G04 EAGLE Gerber RS-274X export*
G75*
%MOMM*%
%FSLAX34Y34*%
%LPD*%
%INSolder stop mask CMP*%
%IPPOS*%
%AMOC8*
5,1,8,0,0,1.08239X$1,22.5*%
G01*
%ADD10R,1.473200X0.762000*%
%ADD11R,0.762000X1.473200*%
%ADD12R,1.303200X1.203200*%
%ADD13R,1.303200X2.103200*%
%ADD14R,1.203200X1.303200*%
%ADD15R,0.603200X1.703200*%
%ADD16C,1.203200*%
%ADD17R,2.003200X1.803200*%
%ADD18R,1.403200X1.403200*%
%ADD19R,1.403200X3.203200*%
%ADD20R,1.727200X4.267200*%
%ADD21R,1.219200X2.235200*%
%ADD22R,0.914400X2.336800*%
%ADD23R,0.803200X1.753200*%
%ADD24R,0.762000X1.524000*%
%ADD25R,2.103200X3.603200*%
%ADD26R,1.203200X0.453200*%
%ADD27C,3.203200*%
%ADD28C,1.803200*%
%ADD29R,2.489200X2.997200*%
%ADD30R,1.103200X1.003200*%
%ADD31R,1.673200X1.473200*%
%ADD32R,1.803200X2.003200*%
%ADD33R,1.625600X0.482600*%
%ADD34R,1.033200X0.833200*%
%ADD35R,1.203200X1.103200*%
%ADD36R,1.003200X1.103200*%
%ADD37R,1.703200X1.503200*%
%ADD38C,0.450578*%
%ADD39R,1.203200X1.703200*%
%ADD40R,2.235200X2.235200*%
%ADD41C,2.235200*%
%ADD42R,0.736600X2.184400*%
%ADD43R,1.203200X2.003200*%
%ADD44R,0.838200X1.473200*%
%ADD45C,0.653200*%
%ADD46R,2.603200X1.803200*%
%ADD47C,1.727200*%
%ADD48C,2.082800*%
%ADD49C,1.981200*%
%ADD50R,0.765000X0.045000*%
%ADD51R,0.450000X0.045000*%
%ADD52R,6.075000X0.045000*%
%ADD53R,1.215000X0.045000*%
%ADD54R,1.665000X0.045000*%
%ADD55R,1.710000X0.045000*%
%ADD56R,6.210000X0.045000*%
%ADD57R,1.485000X0.045000*%
%ADD58R,1.935000X0.045000*%
%ADD59R,0.990000X0.045000*%
%ADD60R,6.300000X0.045000*%
%ADD61R,2.115000X0.045000*%
%ADD62R,1.125000X0.045000*%
%ADD63R,2.160000X0.045000*%
%ADD64R,6.390000X0.045000*%
%ADD65R,1.890000X0.045000*%
%ADD66R,2.250000X0.045000*%
%ADD67R,2.070000X0.045000*%
%ADD68R,2.295000X0.045000*%
%ADD69R,1.305000X0.045000*%
%ADD70R,6.435000X0.045000*%
%ADD71R,2.205000X0.045000*%
%ADD72R,2.340000X0.045000*%
%ADD73R,1.440000X0.045000*%
%ADD74R,2.385000X0.045000*%
%ADD75R,3.960000X0.045000*%
%ADD76R,6.480000X0.045000*%
%ADD77R,4.005000X0.045000*%
%ADD78R,2.475000X0.045000*%
%ADD79R,2.565000X0.045000*%
%ADD80R,7.605000X0.045000*%
%ADD81R,6.525000X0.045000*%
%ADD82R,0.810000X0.045000*%
%ADD83R,1.080000X0.045000*%
%ADD84R,1.170000X0.045000*%
%ADD85R,0.855000X0.045000*%
%ADD86R,1.035000X0.045000*%
%ADD87R,1.350000X0.045000*%
%ADD88R,1.260000X0.045000*%
%ADD89R,0.900000X0.045000*%
%ADD90R,0.630000X0.045000*%
%ADD91R,0.945000X0.045000*%
%ADD92R,0.315000X0.045000*%
%ADD93R,5.130000X0.045000*%
%ADD94R,2.880000X0.045000*%
%ADD95R,2.835000X0.045000*%
%ADD96R,5.085000X0.045000*%
%ADD97R,5.040000X0.045000*%
%ADD98R,2.790000X0.045000*%
%ADD99R,4.995000X0.045000*%
%ADD100R,2.700000X0.045000*%
%ADD101R,4.950000X0.045000*%
%ADD102R,2.655000X0.045000*%
%ADD103R,4.860000X0.045000*%
%ADD104R,2.610000X0.045000*%
%ADD105R,4.770000X0.045000*%
%ADD106R,2.520000X0.045000*%
%ADD107R,4.680000X0.045000*%
%ADD108R,4.545000X0.045000*%
%ADD109R,4.275000X0.045000*%
%ADD110R,0.405000X0.045000*%
%ADD111R,0.675000X0.045000*%
%ADD112R,1.395000X0.045000*%
%ADD113R,1.575000X0.045000*%
%ADD114R,3.105000X0.045000*%
%ADD115R,3.060000X0.045000*%
%ADD116R,2.925000X0.045000*%
%ADD117R,2.025000X0.045000*%
%ADD118R,1.800000X0.045000*%
%ADD119R,1.530000X0.045000*%
%ADD120R,6.850000X0.050000*%
%ADD121R,0.350000X0.050000*%
%ADD122R,0.500000X0.050000*%
%ADD123R,0.100000X0.050000*%
%ADD124R,1.150000X0.050000*%
%ADD125R,0.850000X0.050000*%
%ADD126R,0.450000X0.050000*%
%ADD127R,1.050000X0.050000*%
%ADD128R,1.250000X0.050000*%
%ADD129R,1.400000X0.050000*%
%ADD130R,0.550000X0.050000*%
%ADD131R,0.650000X0.050000*%
%ADD132R,0.400000X0.050000*%
%ADD133R,0.600000X0.050000*%
%ADD134R,0.700000X0.050000*%
%ADD135R,0.300000X0.050000*%
%ADD136R,0.250000X0.050000*%
%ADD137R,0.800000X0.050000*%
%ADD138R,0.750000X0.050000*%
%ADD139R,1.200000X0.050000*%
%ADD140R,0.900000X0.050000*%
%ADD141R,0.950000X0.050000*%
%ADD142R,1.000000X0.050000*%
%ADD143R,1.100000X0.050000*%
%ADD144R,1.450000X0.050000*%
%ADD145R,1.350000X0.050000*%
%ADD146R,1.850000X0.050000*%
%ADD147R,1.900000X0.050000*%
%ADD148R,2.300000X0.050000*%
%ADD149R,3.150000X0.050000*%
%ADD150R,1.550000X0.050000*%
%ADD151R,1.500000X0.050000*%
%ADD152R,0.200000X0.050000*%
%ADD153R,1.300000X0.050000*%
%ADD154R,1.950000X0.050000*%
%ADD155R,2.050000X0.050000*%
%ADD156R,2.100000X0.050000*%
%ADD157R,2.000000X0.050000*%
%ADD158C,1.511200*%
%ADD159R,1.511200X1.511200*%
%ADD160R,1.203200X1.603200*%
%ADD161R,0.193041X0.010159*%
%ADD162R,0.182881X0.010159*%
%ADD163R,0.182881X0.010162*%
%ADD164R,0.182878X0.010159*%
%ADD165R,0.172719X0.010159*%
%ADD166R,0.182878X0.010162*%
%ADD167R,0.243838X0.010159*%
%ADD168R,0.294641X0.010159*%
%ADD169R,0.386081X0.010159*%
%ADD170R,0.345441X0.010159*%
%ADD171R,0.172722X0.010159*%
%ADD172R,1.036319X0.010162*%
%ADD173R,1.402081X0.010162*%
%ADD174R,1.036319X0.010159*%
%ADD175R,1.402081X0.010159*%
%ADD176R,1.026159X0.010159*%
%ADD177R,1.381763X0.010159*%
%ADD178R,1.005841X0.010159*%
%ADD179R,0.995678X0.010162*%
%ADD180R,1.371600X0.010162*%
%ADD181R,0.172719X0.010162*%
%ADD182R,0.975359X0.010159*%
%ADD183R,1.351278X0.010159*%
%ADD184R,0.924563X0.010159*%
%ADD185R,1.300481X0.010159*%
%ADD186R,0.853441X0.010159*%
%ADD187R,1.229359X0.010159*%
%ADD188R,0.792478X0.010159*%
%ADD189R,1.148081X0.010159*%
%ADD190R,0.721359X0.010162*%
%ADD191R,1.076959X0.010162*%
%ADD192R,0.081281X0.010162*%
%ADD193R,0.172722X0.010162*%
%ADD194R,0.670559X0.010159*%
%ADD195R,1.026163X0.010159*%
%ADD196R,0.264163X0.010159*%
%ADD197R,0.609600X0.010159*%
%ADD198R,0.955041X0.010159*%
%ADD199R,0.345438X0.010159*%
%ADD200R,0.548638X0.010159*%
%ADD201R,0.883922X0.010159*%
%ADD202R,0.396238X0.010159*%
%ADD203R,0.518159X0.010159*%
%ADD204R,0.843278X0.010159*%
%ADD205R,0.467359X0.010159*%
%ADD206R,0.497841X0.010162*%
%ADD207R,0.822959X0.010162*%
%ADD208R,0.508000X0.010162*%
%ADD209R,0.477522X0.010159*%
%ADD210R,0.802641X0.010159*%
%ADD211R,0.558800X0.010159*%
%ADD212R,0.467363X0.010159*%
%ADD213R,0.792481X0.010159*%
%ADD214R,0.589281X0.010159*%
%ADD215R,0.782322X0.010159*%
%ADD216R,0.619759X0.010159*%
%ADD217R,0.447038X0.010159*%
%ADD218R,0.772159X0.010159*%
%ADD219R,0.640081X0.010159*%
%ADD220R,0.447038X0.010162*%
%ADD221R,0.772159X0.010162*%
%ADD222R,0.660400X0.010162*%
%ADD223R,0.436878X0.010159*%
%ADD224R,0.690881X0.010159*%
%ADD225R,0.762000X0.010159*%
%ADD226R,0.701037X0.010159*%
%ADD227R,0.721359X0.010159*%
%ADD228R,0.731519X0.010159*%
%ADD229R,0.426719X0.010162*%
%ADD230R,0.762000X0.010162*%
%ADD231R,0.751841X0.010162*%
%ADD232R,0.426719X0.010159*%
%ADD233R,0.751841X0.010159*%
%ADD234R,0.782319X0.010159*%
%ADD235R,0.741681X0.010159*%
%ADD236R,0.162559X0.010159*%
%ADD237R,0.426722X0.010159*%
%ADD238R,0.741678X0.010159*%
%ADD239R,0.812800X0.010159*%
%ADD240R,0.426722X0.010162*%
%ADD241R,0.812800X0.010162*%
%ADD242R,0.711200X0.010159*%
%ADD243R,0.822959X0.010159*%
%ADD244R,0.416563X0.010159*%
%ADD245R,0.690878X0.010159*%
%ADD246R,0.213359X0.010159*%
%ADD247R,0.233681X0.010159*%
%ADD248R,0.863600X0.010159*%
%ADD249R,0.254000X0.010159*%
%ADD250R,0.416563X0.010162*%
%ADD251R,0.670559X0.010162*%
%ADD252R,0.873759X0.010162*%
%ADD253R,0.274319X0.010162*%
%ADD254R,0.406400X0.010159*%
%ADD255R,0.650238X0.010159*%
%ADD256R,0.883919X0.010159*%
%ADD257R,0.284478X0.010159*%
%ADD258R,0.650241X0.010159*%
%ADD259R,0.894081X0.010159*%
%ADD260R,0.314959X0.010159*%
%ADD261R,0.904241X0.010159*%
%ADD262R,0.325119X0.010159*%
%ADD263R,0.416559X0.010159*%
%ADD264R,0.619762X0.010159*%
%ADD265R,0.355600X0.010159*%
%ADD266R,0.406400X0.010162*%
%ADD267R,0.609600X0.010162*%
%ADD268R,0.924563X0.010162*%
%ADD269R,0.365762X0.010162*%
%ADD270R,0.924559X0.010159*%
%ADD271R,0.396241X0.010159*%
%ADD272R,0.599441X0.010159*%
%ADD273R,0.934719X0.010159*%
%ADD274R,0.579122X0.010159*%
%ADD275R,0.436881X0.010159*%
%ADD276R,0.396241X0.010162*%
%ADD277R,0.579119X0.010162*%
%ADD278R,0.955041X0.010162*%
%ADD279R,0.467359X0.010162*%
%ADD280R,0.568959X0.010159*%
%ADD281R,0.487678X0.010159*%
%ADD282R,0.965200X0.010159*%
%ADD283R,0.497838X0.010159*%
%ADD284R,0.975363X0.010159*%
%ADD285R,0.518162X0.010159*%
%ADD286R,0.548641X0.010159*%
%ADD287R,0.538478X0.010162*%
%ADD288R,0.985519X0.010162*%
%ADD289R,0.538481X0.010162*%
%ADD290R,0.538478X0.010159*%
%ADD291R,0.985519X0.010159*%
%ADD292R,0.528319X0.010159*%
%ADD293R,0.995678X0.010159*%
%ADD294R,0.995681X0.010159*%
%ADD295R,0.579119X0.010159*%
%ADD296R,0.508000X0.010159*%
%ADD297R,0.375919X0.010162*%
%ADD298R,1.005841X0.010162*%
%ADD299R,0.386078X0.010159*%
%ADD300R,0.497841X0.010159*%
%ADD301R,1.016000X0.010159*%
%ADD302R,0.629919X0.010159*%
%ADD303R,0.487681X0.010159*%
%ADD304R,0.375919X0.010159*%
%ADD305R,0.477522X0.010162*%
%ADD306R,1.016000X0.010162*%
%ADD307R,0.457200X0.010159*%
%ADD308R,0.701041X0.010159*%
%ADD309R,0.457200X0.010162*%
%ADD310R,1.036322X0.010162*%
%ADD311R,0.447041X0.010159*%
%ADD312R,1.036322X0.010159*%
%ADD313R,0.375922X0.010159*%
%ADD314R,1.046478X0.010159*%
%ADD315R,0.375922X0.010162*%
%ADD316R,1.046478X0.010162*%
%ADD317R,1.046481X0.010159*%
%ADD318R,0.365762X0.010159*%
%ADD319R,1.056641X0.010159*%
%ADD320R,0.355600X0.010162*%
%ADD321R,1.056641X0.010162*%
%ADD322R,0.365759X0.010159*%
%ADD323R,1.056638X0.010159*%
%ADD324R,0.833122X0.010159*%
%ADD325R,0.843281X0.010159*%
%ADD326R,0.853441X0.010162*%
%ADD327R,1.066800X0.010159*%
%ADD328R,0.873759X0.010159*%
%ADD329R,0.386081X0.010162*%
%ADD330R,1.066800X0.010162*%
%ADD331R,0.883919X0.010162*%
%ADD332R,0.894078X0.010159*%
%ADD333R,0.904238X0.010159*%
%ADD334R,0.914400X0.010159*%
%ADD335R,0.345441X0.010162*%
%ADD336R,0.914400X0.010162*%
%ADD337R,0.335278X0.010162*%
%ADD338R,0.335278X0.010159*%
%ADD339R,0.975363X0.010162*%
%ADD340R,0.985522X0.010159*%
%ADD341R,0.325119X0.010162*%
%ADD342R,0.995681X0.010162*%
%ADD343R,0.335281X0.010159*%
%ADD344R,0.325122X0.010159*%
%ADD345R,0.325122X0.010162*%
%ADD346R,0.345438X0.010162*%
%ADD347R,1.046481X0.010162*%
%ADD348R,0.304800X0.010159*%
%ADD349R,0.314959X0.010162*%
%ADD350R,1.076959X0.010159*%
%ADD351R,1.087122X0.010159*%
%ADD352R,0.304800X0.010162*%
%ADD353R,1.097281X0.010162*%
%ADD354R,1.097281X0.010159*%
%ADD355R,1.107441X0.010159*%
%ADD356R,1.107441X0.010162*%
%ADD357R,1.117600X0.010159*%
%ADD358R,0.294641X0.010162*%
%ADD359R,1.117600X0.010162*%
%ADD360R,1.127763X0.010159*%
%ADD361R,0.294637X0.010159*%
%ADD362R,1.127759X0.010159*%
%ADD363R,0.284478X0.010162*%
%ADD364R,0.365759X0.010162*%
%ADD365R,1.127759X0.010162*%
%ADD366R,1.137919X0.010159*%
%ADD367R,0.284481X0.010159*%
%ADD368R,0.284481X0.010162*%
%ADD369R,1.026159X0.010162*%
%ADD370R,1.137919X0.010162*%
%ADD371R,0.568963X0.010162*%
%ADD372R,1.127763X0.010162*%
%ADD373R,1.747519X0.010159*%
%ADD374R,1.737359X0.010162*%
%ADD375R,1.737359X0.010159*%
%ADD376R,1.727200X0.010159*%
%ADD377R,1.727200X0.010162*%
%ADD378R,0.152400X0.010162*%
%ADD379R,0.142238X0.010159*%
%ADD380R,0.121919X0.010159*%
%ADD381R,1.097278X0.010159*%
%ADD382R,1.717041X0.010159*%
%ADD383R,0.111759X0.010159*%
%ADD384R,0.091441X0.010159*%
%ADD385R,1.087119X0.010159*%
%ADD386R,1.717041X0.010162*%
%ADD387R,0.081278X0.010162*%
%ADD388R,1.097278X0.010162*%
%ADD389R,0.071119X0.010159*%
%ADD390R,0.833119X0.010159*%
%ADD391R,0.060959X0.010159*%
%ADD392R,0.731522X0.010159*%
%ADD393R,0.050800X0.010159*%
%ADD394R,0.040641X0.010159*%
%ADD395R,0.436881X0.010162*%
%ADD396R,0.030478X0.010162*%
%ADD397R,0.833119X0.010162*%
%ADD398R,0.020319X0.010159*%
%ADD399R,0.010159X0.010159*%
%ADD400R,0.274319X0.010159*%
%ADD401R,0.447041X0.010162*%
%ADD402R,0.264159X0.010159*%
%ADD403R,0.477519X0.010159*%
%ADD404R,0.254000X0.010162*%
%ADD405R,0.843278X0.010162*%
%ADD406R,0.619759X0.010162*%
%ADD407R,0.629919X0.010162*%
%ADD408R,0.975359X0.010162*%
%ADD409R,0.650241X0.010162*%
%ADD410R,0.944881X0.010159*%
%ADD411R,0.243841X0.010159*%
%ADD412R,0.934722X0.010159*%
%ADD413R,0.924559X0.010162*%
%ADD414R,0.660400X0.010159*%
%ADD415R,0.243841X0.010162*%
%ADD416R,0.680719X0.010159*%
%ADD417R,0.690878X0.010162*%
%ADD418R,0.894081X0.010162*%
%ADD419R,0.873762X0.010159*%
%ADD420R,0.243838X0.010162*%
%ADD421R,0.701041X0.010162*%
%ADD422R,0.863600X0.010162*%
%ADD423R,0.873762X0.010162*%
%ADD424R,0.233681X0.010162*%
%ADD425R,0.731519X0.010162*%
%ADD426R,0.233678X0.010159*%
%ADD427R,0.233678X0.010162*%
%ADD428R,0.782322X0.010162*%
%ADD429R,0.802641X0.010162*%
%ADD430R,0.792481X0.010162*%
%ADD431R,0.223522X0.010159*%
%ADD432R,0.223522X0.010162*%
%ADD433R,0.883922X0.010162*%
%ADD434R,0.223519X0.010159*%
%ADD435R,0.223519X0.010162*%
%ADD436R,0.741681X0.010162*%
%ADD437R,0.731522X0.010162*%
%ADD438R,0.213363X0.010159*%
%ADD439R,0.213359X0.010162*%
%ADD440R,0.152400X0.010159*%
%ADD441R,0.142241X0.010159*%
%ADD442R,0.518159X0.010162*%
%ADD443R,0.121919X0.010162*%
%ADD444R,0.101600X0.010159*%
%ADD445R,0.081281X0.010159*%
%ADD446R,0.030481X0.010162*%
%ADD447R,0.213363X0.010162*%
%ADD448R,0.853438X0.010162*%
%ADD449R,0.203200X0.010162*%
%ADD450R,0.894078X0.010162*%
%ADD451R,0.487681X0.010162*%
%ADD452R,0.853438X0.010159*%
%ADD453R,0.203200X0.010159*%
%ADD454R,0.467363X0.010162*%
%ADD455R,0.670563X0.010159*%
%ADD456R,0.071122X0.010159*%
%ADD457R,0.060959X0.010162*%
%ADD458R,0.020322X0.010159*%
%ADD459R,0.010162X0.010159*%
%ADD460R,0.904238X0.010162*%
%ADD461R,0.904241X0.010162*%
%ADD462R,0.193038X0.010159*%
%ADD463R,0.193041X0.010162*%
%ADD464R,0.822963X0.010159*%
%ADD465R,0.193038X0.010162*%
%ADD466R,0.640078X0.010159*%
%ADD467R,0.599438X0.010162*%
%ADD468R,1.137922X0.010159*%
%ADD469R,1.107438X0.010159*%
%ADD470R,1.087119X0.010162*%
%ADD471R,0.121922X0.010159*%
%ADD472R,0.071119X0.010162*%
%ADD473R,0.965200X0.010162*%
%ADD474R,0.944881X0.010162*%
%ADD475R,2.403200X2.803200*%
%ADD476C,4.219200*%


D10*
X149726Y574800D03*
X149726Y582800D03*
X149726Y590800D03*
X149726Y598800D03*
X149726Y606800D03*
X149726Y614800D03*
X149726Y622800D03*
X149726Y630800D03*
D11*
X134800Y645726D03*
X126800Y645726D03*
X118800Y645726D03*
X110800Y645726D03*
X102800Y645726D03*
X94800Y645726D03*
X86800Y645726D03*
X78800Y645726D03*
D10*
X63874Y630800D03*
X63874Y622800D03*
X63874Y614800D03*
X63874Y606800D03*
X63874Y598800D03*
X63874Y590800D03*
X63874Y582800D03*
X63874Y574800D03*
D11*
X78800Y559874D03*
X86800Y559874D03*
X94800Y559874D03*
X102800Y559874D03*
X110800Y559874D03*
X118800Y559874D03*
X126800Y559874D03*
X134800Y559874D03*
D12*
X34500Y604000D03*
X17500Y604000D03*
X55000Y522500D03*
X55000Y505500D03*
X193500Y585000D03*
X210500Y585000D03*
X193500Y568000D03*
X210500Y568000D03*
X34500Y625000D03*
X17500Y625000D03*
D13*
X190500Y645500D03*
X213500Y608500D03*
X213500Y645500D03*
X190500Y608500D03*
D12*
X232000Y633500D03*
X232000Y616500D03*
D14*
X232000Y602500D03*
X232000Y585500D03*
X232000Y647500D03*
X232000Y664500D03*
D15*
X100250Y447250D03*
X93750Y447250D03*
X87250Y447250D03*
X80750Y447250D03*
X74250Y447250D03*
X67750Y447250D03*
X61250Y447250D03*
X54750Y447250D03*
X48250Y447250D03*
X41750Y447250D03*
X35250Y447250D03*
X28750Y447250D03*
X22250Y447250D03*
X15750Y447250D03*
X15750Y374750D03*
X22250Y374750D03*
X28750Y374750D03*
X35250Y374750D03*
X41750Y374750D03*
X48250Y374750D03*
X54750Y374750D03*
X61250Y374750D03*
X67750Y374750D03*
X74250Y374750D03*
X80750Y374750D03*
X87250Y374750D03*
X93750Y374750D03*
X100250Y374750D03*
D14*
X127000Y444500D03*
X127000Y461500D03*
D16*
X83000Y51000D03*
X39000Y51000D03*
D17*
X77000Y118000D03*
X77000Y146000D03*
D18*
X127000Y376500D03*
X127000Y397500D03*
X144000Y376500D03*
X144000Y397500D03*
D12*
X127000Y412500D03*
X127000Y429500D03*
X144000Y412500D03*
X144000Y429500D03*
D14*
X55000Y491500D03*
X55000Y474500D03*
D12*
X394000Y485500D03*
X394000Y468500D03*
X373000Y485500D03*
X373000Y468500D03*
D19*
X350000Y675500D03*
X330000Y675500D03*
X310000Y675500D03*
X290000Y675500D03*
X370000Y675500D03*
X390000Y675500D03*
X410000Y675500D03*
X430000Y675500D03*
X430000Y862500D03*
X410000Y862500D03*
X390000Y862500D03*
X370000Y862500D03*
X350000Y862500D03*
X330000Y862500D03*
X310000Y862500D03*
X290000Y862500D03*
D12*
X418500Y640000D03*
X401500Y640000D03*
X418500Y619000D03*
X401500Y619000D03*
D20*
X420400Y973680D03*
X369600Y973680D03*
D21*
X395000Y963520D03*
D22*
X408954Y973426D03*
X381046Y973426D03*
D23*
X403350Y590000D03*
X403350Y536000D03*
X416050Y590000D03*
X390650Y590000D03*
X377950Y590000D03*
X416050Y536000D03*
X390650Y536000D03*
X377950Y536000D03*
D14*
X415000Y516500D03*
X415000Y499500D03*
D24*
X45602Y242316D03*
X55000Y242316D03*
X64398Y242316D03*
X64398Y265684D03*
X45602Y265684D03*
D25*
X84500Y302000D03*
X45500Y302000D03*
D26*
X108869Y167000D03*
X108869Y162000D03*
X108869Y157000D03*
X108869Y152000D03*
X108869Y147000D03*
X151131Y147000D03*
X151131Y152000D03*
X151131Y157000D03*
X151131Y162000D03*
X151131Y167000D03*
D27*
X336000Y199000D03*
X336000Y913000D03*
D28*
X433000Y213500D03*
D27*
X119000Y198000D03*
X119000Y912000D03*
D28*
X216000Y212500D03*
D29*
X190460Y193000D03*
X149540Y193000D03*
D14*
X151500Y129000D03*
X134500Y129000D03*
D30*
X73000Y210500D03*
X73000Y191500D03*
X94000Y201000D03*
D31*
X46000Y154500D03*
X46000Y197500D03*
D12*
X88000Y243500D03*
X88000Y226500D03*
D14*
X111000Y226500D03*
X111000Y243500D03*
D32*
X84000Y333000D03*
X56000Y333000D03*
D17*
X108000Y297000D03*
X108000Y325000D03*
D33*
X364156Y267906D03*
X364156Y263080D03*
X364156Y258000D03*
X364156Y252920D03*
X364156Y248094D03*
X407844Y248094D03*
X407844Y252920D03*
X407844Y258000D03*
X407844Y263080D03*
X407844Y267906D03*
D12*
X408500Y291000D03*
X391500Y291000D03*
D14*
X324000Y142500D03*
X324000Y159500D03*
X306000Y141500D03*
X306000Y158500D03*
D34*
X327000Y84500D03*
X327000Y61500D03*
D14*
X340000Y142500D03*
X340000Y159500D03*
X358000Y142500D03*
X358000Y159500D03*
D34*
X362000Y84500D03*
X362000Y61500D03*
D14*
X397000Y142500D03*
X397000Y159500D03*
X379000Y142500D03*
X379000Y159500D03*
D34*
X397000Y84500D03*
X397000Y61500D03*
D14*
X412000Y142500D03*
X412000Y159500D03*
X430000Y141500D03*
X430000Y158500D03*
D34*
X433000Y84500D03*
X433000Y61500D03*
D35*
X15000Y508500D03*
X31000Y508500D03*
X31000Y467500D03*
X15000Y467500D03*
D36*
X208500Y148000D03*
X189500Y148000D03*
X199000Y127000D03*
D14*
X208500Y161000D03*
X191500Y161000D03*
D12*
X27000Y539500D03*
X27000Y522500D03*
D14*
X13500Y558000D03*
X30500Y558000D03*
D32*
X173000Y228000D03*
X145000Y228000D03*
X173000Y256000D03*
X145000Y256000D03*
D17*
X18000Y270000D03*
X18000Y242000D03*
D37*
X264000Y245500D03*
X264000Y226500D03*
D38*
X203213Y250537D02*
X190687Y250537D01*
X190687Y252963D01*
X203213Y252963D01*
X203213Y250537D01*
X203213Y244037D02*
X190687Y244037D01*
X190687Y246463D01*
X203213Y246463D01*
X203213Y244037D01*
X203213Y237537D02*
X190687Y237537D01*
X190687Y239963D01*
X203213Y239963D01*
X203213Y237537D01*
X203213Y231037D02*
X190687Y231037D01*
X190687Y233463D01*
X203213Y233463D01*
X203213Y231037D01*
X232787Y233463D02*
X245313Y233463D01*
X245313Y231037D01*
X232787Y231037D01*
X232787Y233463D01*
X232787Y239963D02*
X245313Y239963D01*
X245313Y237537D01*
X232787Y237537D01*
X232787Y239963D01*
X232787Y246463D02*
X245313Y246463D01*
X245313Y244037D01*
X232787Y244037D01*
X232787Y246463D01*
X232787Y252963D02*
X245313Y252963D01*
X245313Y250537D01*
X232787Y250537D01*
X232787Y252963D01*
D36*
X248500Y148000D03*
X229500Y148000D03*
X239000Y127000D03*
D39*
X243000Y415500D03*
X243000Y366500D03*
X211000Y415500D03*
X211000Y366500D03*
D14*
X187000Y373500D03*
X187000Y390500D03*
D40*
X199000Y106000D03*
D41*
X149000Y106000D03*
D40*
X431000Y109000D03*
D41*
X396000Y109000D03*
X361000Y109000D03*
X326000Y109000D03*
X291000Y109000D03*
X256000Y109000D03*
D42*
X339050Y587638D03*
X326350Y587638D03*
X313650Y587638D03*
X300950Y587638D03*
X300950Y538362D03*
X313650Y538362D03*
X326350Y538362D03*
X339050Y538362D03*
D43*
X320500Y616000D03*
X345500Y616000D03*
D14*
X339000Y500500D03*
X339000Y517500D03*
D34*
X291000Y84500D03*
X291000Y61500D03*
D44*
X261064Y764000D03*
X252936Y764000D03*
X261064Y787000D03*
X252936Y787000D03*
X261064Y742000D03*
X252936Y742000D03*
D18*
X143500Y65000D03*
X164500Y65000D03*
X143500Y83000D03*
X164500Y83000D03*
D14*
X199500Y83000D03*
X182500Y83000D03*
X255500Y83000D03*
X238500Y83000D03*
D45*
X344000Y433500D02*
X344000Y437500D01*
X334000Y437500D02*
X334000Y433500D01*
X324000Y433500D02*
X324000Y437500D01*
X324000Y408500D02*
X324000Y404500D01*
X334000Y404500D02*
X334000Y408500D01*
X344000Y408500D02*
X344000Y404500D01*
D46*
X334000Y421000D03*
D47*
X398380Y367000D02*
X413620Y367000D01*
X416160Y392400D02*
X400920Y392400D01*
X398380Y417800D02*
X413620Y417800D01*
X416160Y443200D02*
X400920Y443200D01*
D14*
X334000Y389500D03*
X334000Y372500D03*
D48*
X28000Y657000D03*
X28000Y682400D03*
X28000Y707800D03*
X28000Y733200D03*
X28000Y758600D03*
X28000Y784000D03*
D49*
X263500Y913300D03*
X238100Y913300D03*
X212700Y913300D03*
X187300Y913300D03*
D12*
X203500Y889000D03*
X186500Y889000D03*
D35*
X19000Y847500D03*
X35000Y847500D03*
X35000Y806500D03*
X19000Y806500D03*
D50*
X210350Y947950D03*
D51*
X266825Y947950D03*
D52*
X160850Y948400D03*
D53*
X210350Y948400D03*
D54*
X245450Y948400D03*
D50*
X266600Y948400D03*
D55*
X286175Y948400D03*
D56*
X161975Y948850D03*
D57*
X210350Y948850D03*
D58*
X245900Y948850D03*
D59*
X266825Y948850D03*
D58*
X286400Y948850D03*
D60*
X162425Y949300D03*
D55*
X210125Y949300D03*
D61*
X245900Y949300D03*
D62*
X267050Y949300D03*
D63*
X286625Y949300D03*
D64*
X162875Y949750D03*
D65*
X210125Y949750D03*
D63*
X246125Y949750D03*
D53*
X267050Y949750D03*
D66*
X286625Y949750D03*
D64*
X163325Y950200D03*
D67*
X210125Y950200D03*
D68*
X246350Y950200D03*
D69*
X267050Y950200D03*
D68*
X286850Y950200D03*
D70*
X163550Y950650D03*
D71*
X210350Y950650D03*
D72*
X246575Y950650D03*
D73*
X267275Y950650D03*
D74*
X286850Y950650D03*
D70*
X164000Y951100D03*
D68*
X210350Y951100D03*
D74*
X246800Y951100D03*
D75*
X279425Y951100D03*
D76*
X164225Y951550D03*
D74*
X210350Y951550D03*
X246800Y951550D03*
D77*
X279200Y951550D03*
D70*
X164450Y952000D03*
D78*
X210350Y952000D03*
D76*
X267275Y952000D03*
X164675Y952450D03*
D79*
X210350Y952450D03*
D76*
X267275Y952450D03*
D80*
X170750Y952900D03*
D62*
X218000Y952900D03*
D81*
X267500Y952900D03*
D73*
X140375Y953350D03*
D82*
X155675Y953350D03*
D83*
X202025Y953350D03*
D84*
X218225Y953350D03*
D83*
X240725Y953350D03*
D57*
X266150Y953350D03*
D62*
X281450Y953350D03*
D53*
X139700Y953800D03*
D85*
X156800Y953800D03*
D86*
X201800Y953800D03*
D62*
X218450Y953800D03*
D83*
X240725Y953800D03*
D87*
X265025Y953800D03*
D62*
X281450Y953800D03*
D86*
X138800Y954250D03*
D85*
X157700Y954250D03*
D86*
X201350Y954250D03*
D84*
X218675Y954250D03*
D62*
X240950Y954250D03*
D88*
X264575Y954250D03*
D62*
X281450Y954250D03*
D82*
X138575Y954700D03*
D89*
X158375Y954700D03*
D59*
X201125Y954700D03*
D84*
X218675Y954700D03*
D83*
X241175Y954700D03*
D53*
X264350Y954700D03*
D62*
X281900Y954700D03*
D90*
X138125Y955150D03*
D91*
X159050Y955150D03*
D59*
X201125Y955150D03*
D84*
X219125Y955150D03*
D83*
X241175Y955150D03*
D84*
X264125Y955150D03*
D62*
X281900Y955150D03*
D92*
X137450Y955600D03*
D59*
X159725Y955600D03*
D86*
X200900Y955600D03*
D84*
X219125Y955600D03*
D62*
X241400Y955600D03*
D84*
X264125Y955600D03*
D62*
X281900Y955600D03*
D86*
X160400Y956050D03*
X200900Y956050D03*
D53*
X219350Y956050D03*
D62*
X241400Y956050D03*
D84*
X264125Y956050D03*
X282125Y956050D03*
D86*
X160850Y956500D03*
X200900Y956500D03*
D84*
X219575Y956500D03*
D83*
X241625Y956500D03*
D84*
X264125Y956500D03*
D62*
X282350Y956500D03*
D86*
X161300Y956950D03*
D83*
X201125Y956950D03*
D84*
X219575Y956950D03*
D62*
X241850Y956950D03*
D84*
X264125Y956950D03*
D62*
X282350Y956950D03*
X161750Y957400D03*
D83*
X201125Y957400D03*
D84*
X219575Y957400D03*
D62*
X241850Y957400D03*
D84*
X264125Y957400D03*
X282575Y957400D03*
D62*
X162200Y957850D03*
D83*
X201125Y957850D03*
D84*
X220025Y957850D03*
D83*
X242075Y957850D03*
D53*
X264350Y957850D03*
D62*
X282800Y957850D03*
X162650Y958300D03*
X201350Y958300D03*
D84*
X220025Y958300D03*
D62*
X242300Y958300D03*
D53*
X264350Y958300D03*
D62*
X282800Y958300D03*
D84*
X162875Y958750D03*
D62*
X201350Y958750D03*
D84*
X220025Y958750D03*
D62*
X242300Y958750D03*
D84*
X264575Y958750D03*
D62*
X282800Y958750D03*
D84*
X163325Y959200D03*
X201575Y959200D03*
D62*
X220250Y959200D03*
D83*
X242525Y959200D03*
D53*
X264800Y959200D03*
D62*
X283250Y959200D03*
D53*
X163550Y959650D03*
D84*
X201575Y959650D03*
D62*
X220250Y959650D03*
X242750Y959650D03*
D53*
X264800Y959650D03*
D62*
X283250Y959650D03*
D53*
X164000Y960100D03*
D62*
X201800Y960100D03*
X220250Y960100D03*
X242750Y960100D03*
D53*
X264800Y960100D03*
D62*
X283250Y960100D03*
D88*
X164225Y960550D03*
D84*
X202025Y960550D03*
D83*
X220475Y960550D03*
X242975Y960550D03*
D84*
X265025Y960550D03*
D62*
X283700Y960550D03*
D88*
X164225Y961000D03*
D84*
X202025Y961000D03*
D83*
X220475Y961000D03*
X242975Y961000D03*
D53*
X265250Y961000D03*
D62*
X283700Y961000D03*
D88*
X164675Y961450D03*
D62*
X202250Y961450D03*
D86*
X220250Y961450D03*
D62*
X243200Y961450D03*
D53*
X265250Y961450D03*
D62*
X283700Y961450D03*
D69*
X164900Y961900D03*
D84*
X202475Y961900D03*
D59*
X220475Y961900D03*
D83*
X243425Y961900D03*
D84*
X265475Y961900D03*
D62*
X284150Y961900D03*
D88*
X165125Y962350D03*
D84*
X202475Y962350D03*
D59*
X220475Y962350D03*
D83*
X243425Y962350D03*
D84*
X265475Y962350D03*
D62*
X284150Y962350D03*
D69*
X165350Y962800D03*
D62*
X202700Y962800D03*
D91*
X220250Y962800D03*
D62*
X243650Y962800D03*
D84*
X265925Y962800D03*
D62*
X284150Y962800D03*
D69*
X165350Y963250D03*
D84*
X202925Y963250D03*
D89*
X220475Y963250D03*
D62*
X243650Y963250D03*
X266150Y963250D03*
D84*
X284375Y963250D03*
D69*
X165800Y963700D03*
D62*
X203150Y963700D03*
D85*
X220250Y963700D03*
D83*
X243875Y963700D03*
D62*
X266150Y963700D03*
X284600Y963700D03*
D69*
X165800Y964150D03*
D83*
X203375Y964150D03*
D85*
X220250Y964150D03*
D62*
X244100Y964150D03*
X266600Y964150D03*
X284600Y964150D03*
D87*
X166025Y964600D03*
D62*
X203600Y964600D03*
D50*
X220250Y964600D03*
D62*
X244100Y964600D03*
D83*
X266825Y964600D03*
D84*
X284825Y964600D03*
D87*
X166025Y965050D03*
D93*
X224075Y965050D03*
D94*
X276275Y965050D03*
D87*
X166475Y965500D03*
D93*
X224525Y965500D03*
D95*
X276500Y965500D03*
D87*
X166475Y965950D03*
D96*
X224750Y965950D03*
D95*
X276950Y965950D03*
D87*
X166475Y966400D03*
D97*
X224975Y966400D03*
D98*
X277175Y966400D03*
D87*
X166475Y966850D03*
D99*
X225650Y966850D03*
D100*
X277625Y966850D03*
D87*
X166925Y967300D03*
D101*
X225875Y967300D03*
D102*
X277850Y967300D03*
D87*
X166925Y967750D03*
D103*
X226325Y967750D03*
D104*
X278525Y967750D03*
D87*
X166925Y968200D03*
D105*
X226775Y968200D03*
D106*
X278975Y968200D03*
D87*
X166925Y968650D03*
D107*
X227675Y968650D03*
D74*
X279650Y968650D03*
D87*
X167375Y969100D03*
D108*
X228350Y969100D03*
D68*
X280550Y969100D03*
D87*
X167375Y969550D03*
D109*
X229700Y969550D03*
D67*
X281675Y969550D03*
D87*
X167375Y970000D03*
D62*
X245900Y970000D03*
D87*
X167375Y970450D03*
D83*
X246125Y970450D03*
D69*
X167600Y970900D03*
D83*
X246125Y970900D03*
D69*
X167600Y971350D03*
D62*
X246350Y971350D03*
D69*
X167600Y971800D03*
D62*
X246350Y971800D03*
D69*
X167600Y972250D03*
D83*
X246575Y972250D03*
D88*
X167825Y972700D03*
D62*
X246800Y972700D03*
D88*
X167825Y973150D03*
D62*
X246800Y973150D03*
D69*
X168050Y973600D03*
D83*
X247025Y973600D03*
D69*
X168050Y974050D03*
D62*
X247250Y974050D03*
D88*
X168275Y974500D03*
D62*
X247250Y974500D03*
D88*
X168275Y974950D03*
D83*
X247475Y974950D03*
D88*
X168275Y975400D03*
D83*
X247475Y975400D03*
D88*
X168275Y975850D03*
D62*
X247700Y975850D03*
D53*
X168500Y976300D03*
D83*
X247925Y976300D03*
D88*
X168725Y976750D03*
D83*
X247925Y976750D03*
D88*
X168725Y977200D03*
D62*
X248150Y977200D03*
D88*
X168725Y977650D03*
D83*
X248375Y977650D03*
D53*
X168950Y978100D03*
D83*
X248375Y978100D03*
D88*
X169175Y978550D03*
D110*
X191450Y978550D03*
D62*
X248600Y978550D03*
D88*
X169175Y979000D03*
D111*
X191450Y979000D03*
D62*
X248600Y979000D03*
D53*
X169400Y979450D03*
D85*
X191450Y979450D03*
D83*
X248825Y979450D03*
D53*
X169400Y979900D03*
D86*
X191450Y979900D03*
D62*
X249050Y979900D03*
D53*
X169850Y980350D03*
D62*
X191450Y980350D03*
X249050Y980350D03*
D53*
X169850Y980800D03*
X191450Y980800D03*
D83*
X249275Y980800D03*
D84*
X170075Y981250D03*
D69*
X191450Y981250D03*
D62*
X249500Y981250D03*
D53*
X170300Y981700D03*
D112*
X191450Y981700D03*
D62*
X249500Y981700D03*
D84*
X170525Y982150D03*
D57*
X191450Y982150D03*
D83*
X249725Y982150D03*
D84*
X170975Y982600D03*
D57*
X191450Y982600D03*
D83*
X249725Y982600D03*
D84*
X170975Y983050D03*
D113*
X191450Y983050D03*
D62*
X249950Y983050D03*
D84*
X171425Y983500D03*
D113*
X191450Y983500D03*
D83*
X250175Y983500D03*
D62*
X171650Y983950D03*
D113*
X191450Y983950D03*
D83*
X250175Y983950D03*
D84*
X171875Y984400D03*
D54*
X191450Y984400D03*
D62*
X250400Y984400D03*
D84*
X172325Y984850D03*
D54*
X191450Y984850D03*
D83*
X250625Y984850D03*
D84*
X172775Y985300D03*
D54*
X191450Y985300D03*
D83*
X250625Y985300D03*
D84*
X173225Y985750D03*
D54*
X191450Y985750D03*
D62*
X250850Y985750D03*
D88*
X174125Y986200D03*
D54*
X191450Y986200D03*
D62*
X250850Y986200D03*
D69*
X174800Y986650D03*
D54*
X191450Y986650D03*
D114*
X184250Y987100D03*
D115*
X184475Y987550D03*
D116*
X184700Y988000D03*
D94*
X184925Y988450D03*
D95*
X185150Y988900D03*
D100*
X185375Y989350D03*
D104*
X185825Y989800D03*
D78*
X186050Y990250D03*
D72*
X186275Y990700D03*
D71*
X186500Y991150D03*
D117*
X186950Y991600D03*
D118*
X187175Y992050D03*
D119*
X187625Y992500D03*
D88*
X188075Y992950D03*
D50*
X189200Y993400D03*
D120*
X192000Y450500D03*
X192000Y451000D03*
D121*
X234500Y451000D03*
D122*
X270750Y451000D03*
D123*
X158250Y451500D03*
X225750Y451500D03*
D121*
X234500Y451500D03*
D124*
X254000Y451500D03*
D125*
X271000Y451500D03*
D126*
X288500Y451500D03*
X299000Y451500D03*
D123*
X158250Y452000D03*
X225750Y452000D03*
D121*
X234500Y452000D03*
D124*
X254000Y452000D03*
D127*
X271000Y452000D03*
D126*
X288500Y452000D03*
X299000Y452000D03*
D123*
X158250Y452500D03*
X225750Y452500D03*
D121*
X234500Y452500D03*
D124*
X254000Y452500D03*
X271000Y452500D03*
D122*
X288750Y452500D03*
X299250Y452500D03*
D123*
X158250Y453000D03*
X225750Y453000D03*
D121*
X234500Y453000D03*
D124*
X254000Y453000D03*
D128*
X271000Y453000D03*
D122*
X288750Y453000D03*
X299250Y453000D03*
D123*
X158250Y453500D03*
X225750Y453500D03*
D121*
X234500Y453500D03*
D124*
X254000Y453500D03*
D129*
X270750Y453500D03*
D130*
X288500Y453500D03*
X299000Y453500D03*
D123*
X158250Y454000D03*
X225750Y454000D03*
D121*
X234500Y454000D03*
D124*
X254000Y454000D03*
D131*
X267000Y454000D03*
X275000Y454000D03*
D130*
X288500Y454000D03*
X299000Y454000D03*
D123*
X158250Y454500D03*
X225750Y454500D03*
D121*
X234500Y454500D03*
D132*
X250250Y454500D03*
D122*
X265750Y454500D03*
D130*
X276000Y454500D03*
D133*
X288750Y454500D03*
X299250Y454500D03*
D123*
X158250Y455000D03*
X225750Y455000D03*
D121*
X234500Y455000D03*
D132*
X250250Y455000D03*
D122*
X265250Y455000D03*
X276750Y455000D03*
D131*
X288500Y455000D03*
D133*
X299250Y455000D03*
D123*
X158250Y455500D03*
X225750Y455500D03*
D121*
X234500Y455500D03*
D132*
X250250Y455500D03*
D126*
X265000Y455500D03*
X277000Y455500D03*
D131*
X288500Y455500D03*
X299000Y455500D03*
D123*
X158250Y456000D03*
X225750Y456000D03*
D121*
X234500Y456000D03*
D132*
X250250Y456000D03*
D126*
X264500Y456000D03*
X277500Y456000D03*
D131*
X288500Y456000D03*
D134*
X299250Y456000D03*
D123*
X158250Y456500D03*
X225750Y456500D03*
D121*
X234500Y456500D03*
D132*
X250250Y456500D03*
X264250Y456500D03*
X277750Y456500D03*
D121*
X287000Y456500D03*
D135*
X290750Y456500D03*
X297250Y456500D03*
D121*
X301000Y456500D03*
D123*
X158250Y457000D03*
D134*
X167750Y457000D03*
D131*
X191500Y457000D03*
D130*
X203000Y457000D03*
D123*
X225750Y457000D03*
D121*
X234500Y457000D03*
D132*
X250250Y457000D03*
D126*
X264000Y457000D03*
D132*
X277750Y457000D03*
X286750Y457000D03*
D135*
X290750Y457000D03*
D136*
X297000Y457000D03*
D121*
X301000Y457000D03*
D123*
X158250Y457500D03*
D137*
X167750Y457500D03*
D138*
X191500Y457500D03*
D131*
X203000Y457500D03*
D123*
X225750Y457500D03*
D121*
X234500Y457500D03*
D132*
X250250Y457500D03*
X263750Y457500D03*
X278250Y457500D03*
D121*
X286500Y457500D03*
D135*
X290750Y457500D03*
X296750Y457500D03*
D121*
X301000Y457500D03*
D123*
X158250Y458000D03*
D137*
X167750Y458000D03*
D138*
X191500Y458000D03*
X203000Y458000D03*
D123*
X225750Y458000D03*
D121*
X234500Y458000D03*
D132*
X250250Y458000D03*
X263750Y458000D03*
X278250Y458000D03*
D121*
X286500Y458000D03*
D135*
X290750Y458000D03*
X296750Y458000D03*
D132*
X301250Y458000D03*
D123*
X158250Y458500D03*
D137*
X167750Y458500D03*
D138*
X191500Y458500D03*
X203000Y458500D03*
D123*
X225750Y458500D03*
D139*
X238750Y458500D03*
D132*
X250250Y458500D03*
X263750Y458500D03*
X278250Y458500D03*
X286250Y458500D03*
D135*
X291250Y458500D03*
X296750Y458500D03*
D132*
X301250Y458500D03*
D123*
X158250Y459000D03*
D137*
X167750Y459000D03*
D138*
X191500Y459000D03*
X203000Y459000D03*
D123*
X225750Y459000D03*
D128*
X239000Y459000D03*
D132*
X250250Y459000D03*
D121*
X263500Y459000D03*
D132*
X278250Y459000D03*
X286250Y459000D03*
D135*
X291250Y459000D03*
D136*
X296500Y459000D03*
D121*
X301500Y459000D03*
D123*
X158250Y459500D03*
D137*
X167750Y459500D03*
D135*
X179750Y459500D03*
D138*
X191500Y459500D03*
X203000Y459500D03*
D123*
X225750Y459500D03*
D128*
X239000Y459500D03*
D132*
X250250Y459500D03*
D121*
X263500Y459500D03*
D132*
X278250Y459500D03*
D121*
X286000Y459500D03*
D135*
X291250Y459500D03*
X296250Y459500D03*
D132*
X301750Y459500D03*
D123*
X158250Y460000D03*
D137*
X167750Y460000D03*
D126*
X180000Y460000D03*
D138*
X191500Y460000D03*
X203000Y460000D03*
D123*
X225750Y460000D03*
D128*
X239000Y460000D03*
D132*
X250250Y460000D03*
D121*
X263500Y460000D03*
X278500Y460000D03*
X286000Y460000D03*
D136*
X291500Y460000D03*
D135*
X296250Y460000D03*
D132*
X301750Y460000D03*
D123*
X158250Y460500D03*
D137*
X167750Y460500D03*
D122*
X179750Y460500D03*
D138*
X191500Y460500D03*
X203000Y460500D03*
D123*
X225750Y460500D03*
D128*
X239000Y460500D03*
D132*
X250250Y460500D03*
D121*
X263500Y460500D03*
D132*
X278250Y460500D03*
X285750Y460500D03*
D135*
X291750Y460500D03*
X296250Y460500D03*
D132*
X301750Y460500D03*
D123*
X158250Y461000D03*
D137*
X167750Y461000D03*
D133*
X179750Y461000D03*
D138*
X191500Y461000D03*
X203000Y461000D03*
D123*
X225750Y461000D03*
D128*
X239000Y461000D03*
D132*
X250250Y461000D03*
D121*
X263500Y461000D03*
D132*
X278250Y461000D03*
X285750Y461000D03*
D135*
X291750Y461000D03*
D136*
X296000Y461000D03*
D121*
X302000Y461000D03*
D123*
X158250Y461500D03*
D137*
X167750Y461500D03*
D133*
X179750Y461500D03*
D138*
X191500Y461500D03*
X203000Y461500D03*
D123*
X225750Y461500D03*
D128*
X239000Y461500D03*
D132*
X250250Y461500D03*
X263750Y461500D03*
X278250Y461500D03*
D121*
X285500Y461500D03*
D135*
X291750Y461500D03*
X295750Y461500D03*
D132*
X302250Y461500D03*
D123*
X158250Y462000D03*
D137*
X167750Y462000D03*
D134*
X179750Y462000D03*
D138*
X191500Y462000D03*
X203000Y462000D03*
D123*
X225750Y462000D03*
D121*
X234500Y462000D03*
D132*
X250250Y462000D03*
X263750Y462000D03*
X278250Y462000D03*
X285250Y462000D03*
D136*
X292000Y462000D03*
D135*
X295750Y462000D03*
D132*
X302250Y462000D03*
D123*
X158250Y462500D03*
D137*
X167750Y462500D03*
D134*
X179750Y462500D03*
D138*
X191500Y462500D03*
X203000Y462500D03*
D123*
X225750Y462500D03*
D121*
X234500Y462500D03*
D132*
X250250Y462500D03*
X263750Y462500D03*
X278250Y462500D03*
X285250Y462500D03*
D135*
X292250Y462500D03*
D136*
X295500Y462500D03*
D132*
X302250Y462500D03*
D123*
X158250Y463000D03*
D137*
X167750Y463000D03*
X179750Y463000D03*
D138*
X191500Y463000D03*
X203000Y463000D03*
D123*
X225750Y463000D03*
D121*
X234500Y463000D03*
D132*
X250250Y463000D03*
X264250Y463000D03*
X277750Y463000D03*
X285250Y463000D03*
D133*
X293750Y463000D03*
D132*
X302750Y463000D03*
D123*
X158250Y463500D03*
D137*
X167750Y463500D03*
D125*
X179500Y463500D03*
D138*
X191500Y463500D03*
X203000Y463500D03*
D123*
X225750Y463500D03*
D121*
X234500Y463500D03*
D132*
X250250Y463500D03*
X264250Y463500D03*
X277750Y463500D03*
D121*
X285000Y463500D03*
D133*
X293750Y463500D03*
D132*
X302750Y463500D03*
D123*
X158250Y464000D03*
D137*
X167750Y464000D03*
D140*
X179750Y464000D03*
D138*
X191500Y464000D03*
X203000Y464000D03*
D123*
X225750Y464000D03*
D121*
X234500Y464000D03*
D132*
X250250Y464000D03*
D126*
X264500Y464000D03*
X277500Y464000D03*
D132*
X284750Y464000D03*
D130*
X294000Y464000D03*
D132*
X302750Y464000D03*
D123*
X158250Y464500D03*
D137*
X167750Y464500D03*
D141*
X179500Y464500D03*
D138*
X191500Y464500D03*
X203000Y464500D03*
D123*
X225750Y464500D03*
D121*
X234500Y464500D03*
D132*
X250250Y464500D03*
D126*
X265000Y464500D03*
X277000Y464500D03*
D132*
X284750Y464500D03*
D122*
X293750Y464500D03*
D132*
X302750Y464500D03*
D123*
X158250Y465000D03*
D137*
X167750Y465000D03*
D142*
X179750Y465000D03*
D138*
X191500Y465000D03*
X203000Y465000D03*
D123*
X225750Y465000D03*
D121*
X234500Y465000D03*
D132*
X250250Y465000D03*
D122*
X265250Y465000D03*
D126*
X276500Y465000D03*
D132*
X284750Y465000D03*
D122*
X293750Y465000D03*
D132*
X303250Y465000D03*
D123*
X158250Y465500D03*
D137*
X167750Y465500D03*
D127*
X179500Y465500D03*
D138*
X191500Y465500D03*
X203000Y465500D03*
D123*
X225750Y465500D03*
D121*
X234500Y465500D03*
D132*
X250250Y465500D03*
D130*
X266000Y465500D03*
X276000Y465500D03*
D132*
X284250Y465500D03*
D122*
X293750Y465500D03*
D132*
X303250Y465500D03*
D123*
X158250Y466000D03*
D137*
X167750Y466000D03*
D143*
X179750Y466000D03*
D138*
X191500Y466000D03*
X203000Y466000D03*
D123*
X225750Y466000D03*
D128*
X239000Y466000D03*
D132*
X250250Y466000D03*
D144*
X271000Y466000D03*
D132*
X284250Y466000D03*
D126*
X294000Y466000D03*
D132*
X303250Y466000D03*
D123*
X158250Y466500D03*
D137*
X167750Y466500D03*
D124*
X179500Y466500D03*
D138*
X191500Y466500D03*
D137*
X203250Y466500D03*
D123*
X225750Y466500D03*
D128*
X239000Y466500D03*
D132*
X250250Y466500D03*
D145*
X271000Y466500D03*
D132*
X284250Y466500D03*
X293750Y466500D03*
D126*
X303500Y466500D03*
D123*
X158250Y467000D03*
D137*
X167750Y467000D03*
D139*
X179750Y467000D03*
D138*
X191500Y467000D03*
D146*
X208500Y467000D03*
D123*
X225750Y467000D03*
D128*
X239000Y467000D03*
D132*
X250250Y467000D03*
D128*
X271000Y467000D03*
D132*
X284250Y467000D03*
X293750Y467000D03*
X303750Y467000D03*
D123*
X158250Y467500D03*
D137*
X167750Y467500D03*
D128*
X179500Y467500D03*
D138*
X191500Y467500D03*
D147*
X208750Y467500D03*
D123*
X225750Y467500D03*
D128*
X239000Y467500D03*
D132*
X250250Y467500D03*
D124*
X271000Y467500D03*
D126*
X284000Y467500D03*
D121*
X294000Y467500D03*
D132*
X303750Y467500D03*
D123*
X158250Y468000D03*
D137*
X167750Y468000D03*
D145*
X179500Y468000D03*
D138*
X191500Y468000D03*
D147*
X208750Y468000D03*
D123*
X225750Y468000D03*
D128*
X239000Y468000D03*
D132*
X250250Y468000D03*
D141*
X271000Y468000D03*
D132*
X283750Y468000D03*
D121*
X294000Y468000D03*
D132*
X303750Y468000D03*
D123*
X158250Y468500D03*
D137*
X167750Y468500D03*
D129*
X179250Y468500D03*
D138*
X191500Y468500D03*
D147*
X208750Y468500D03*
D123*
X225750Y468500D03*
D128*
X239000Y468500D03*
D132*
X250250Y468500D03*
D138*
X271000Y468500D03*
D132*
X283750Y468500D03*
D135*
X293750Y468500D03*
D126*
X304000Y468500D03*
D123*
X158250Y469000D03*
D148*
X175250Y469000D03*
D138*
X191500Y469000D03*
D147*
X208750Y469000D03*
D123*
X225750Y469000D03*
D126*
X271000Y469000D03*
D123*
X158250Y469500D03*
D149*
X179500Y469500D03*
D147*
X208750Y469500D03*
D123*
X225750Y469500D03*
X158250Y470000D03*
D150*
X171500Y470000D03*
X187500Y470000D03*
D147*
X208750Y470000D03*
D123*
X225750Y470000D03*
X158250Y470500D03*
D150*
X171500Y470500D03*
X187500Y470500D03*
D147*
X208750Y470500D03*
D123*
X225750Y470500D03*
X158250Y471000D03*
D151*
X171250Y471000D03*
X187750Y471000D03*
D147*
X208750Y471000D03*
D123*
X225750Y471000D03*
X158250Y471500D03*
D144*
X171000Y471500D03*
D151*
X187750Y471500D03*
D147*
X208750Y471500D03*
D123*
X225750Y471500D03*
X158250Y472000D03*
D144*
X171000Y472000D03*
X188000Y472000D03*
D147*
X208750Y472000D03*
D123*
X225750Y472000D03*
X158250Y472500D03*
D129*
X170750Y472500D03*
D144*
X188000Y472500D03*
D146*
X208500Y472500D03*
D123*
X225750Y472500D03*
X158250Y473000D03*
D129*
X170750Y473000D03*
X188250Y473000D03*
D137*
X203250Y473000D03*
D123*
X225750Y473000D03*
X158250Y473500D03*
D145*
X170500Y473500D03*
D129*
X188250Y473500D03*
D138*
X203000Y473500D03*
D123*
X225750Y473500D03*
D121*
X234500Y473500D03*
D152*
X242250Y473500D03*
D121*
X250000Y473500D03*
X258000Y473500D03*
D132*
X268750Y473500D03*
D136*
X276000Y473500D03*
D123*
X158250Y474000D03*
D145*
X170500Y474000D03*
X188500Y474000D03*
D138*
X203000Y474000D03*
D123*
X225750Y474000D03*
D121*
X234500Y474000D03*
D152*
X242250Y474000D03*
D132*
X250250Y474000D03*
X258250Y474000D03*
X268250Y474000D03*
D121*
X276000Y474000D03*
D123*
X158250Y474500D03*
D153*
X170250Y474500D03*
X188750Y474500D03*
D138*
X203000Y474500D03*
D123*
X225750Y474500D03*
D121*
X234500Y474500D03*
D136*
X242500Y474500D03*
D132*
X250250Y474500D03*
X258250Y474500D03*
D126*
X268000Y474500D03*
D132*
X275750Y474500D03*
D123*
X158250Y475000D03*
D153*
X170250Y475000D03*
X188750Y475000D03*
D138*
X203000Y475000D03*
D123*
X225750Y475000D03*
D121*
X234500Y475000D03*
D135*
X242250Y475000D03*
D132*
X250250Y475000D03*
X258250Y475000D03*
X267750Y475000D03*
D126*
X276000Y475000D03*
D123*
X158250Y475500D03*
D128*
X170000Y475500D03*
X189000Y475500D03*
D138*
X203000Y475500D03*
D123*
X225750Y475500D03*
D121*
X234500Y475500D03*
D135*
X242250Y475500D03*
D132*
X250250Y475500D03*
X258250Y475500D03*
D126*
X267500Y475500D03*
X276000Y475500D03*
D123*
X158250Y476000D03*
D128*
X170000Y476000D03*
X189000Y476000D03*
D138*
X203000Y476000D03*
D123*
X225750Y476000D03*
D121*
X234500Y476000D03*
D132*
X242250Y476000D03*
X250250Y476000D03*
X258250Y476000D03*
X267250Y476000D03*
D121*
X276000Y476000D03*
D123*
X158250Y476500D03*
D139*
X169750Y476500D03*
X189250Y476500D03*
D138*
X203000Y476500D03*
D123*
X225750Y476500D03*
D121*
X234500Y476500D03*
D132*
X242250Y476500D03*
X250250Y476500D03*
X258250Y476500D03*
X266750Y476500D03*
D121*
X276000Y476500D03*
D123*
X158250Y477000D03*
D139*
X169750Y477000D03*
X189250Y477000D03*
D138*
X203000Y477000D03*
D123*
X225750Y477000D03*
D121*
X234500Y477000D03*
D132*
X242250Y477000D03*
X250250Y477000D03*
X258250Y477000D03*
X266750Y477000D03*
D136*
X276000Y477000D03*
D123*
X158250Y477500D03*
D124*
X169500Y477500D03*
X189500Y477500D03*
D137*
X203250Y477500D03*
D123*
X225750Y477500D03*
D121*
X234500Y477500D03*
D122*
X242250Y477500D03*
D132*
X250250Y477500D03*
X258250Y477500D03*
X266250Y477500D03*
D123*
X158250Y478000D03*
D124*
X169500Y478000D03*
X189500Y478000D03*
D154*
X209000Y478000D03*
D123*
X225750Y478000D03*
D121*
X234500Y478000D03*
D122*
X242250Y478000D03*
D132*
X250250Y478000D03*
X258250Y478000D03*
D126*
X266000Y478000D03*
D123*
X158250Y478500D03*
D143*
X169250Y478500D03*
X189750Y478500D03*
D155*
X209500Y478500D03*
D123*
X225750Y478500D03*
D121*
X234500Y478500D03*
D133*
X242250Y478500D03*
D132*
X250250Y478500D03*
X258250Y478500D03*
X265750Y478500D03*
D123*
X158250Y479000D03*
D143*
X169250Y479000D03*
X189750Y479000D03*
D156*
X209750Y479000D03*
D123*
X225750Y479000D03*
D121*
X234500Y479000D03*
D133*
X242250Y479000D03*
D132*
X250250Y479000D03*
X258250Y479000D03*
X265250Y479000D03*
D123*
X158250Y479500D03*
D127*
X169000Y479500D03*
X190000Y479500D03*
D156*
X209750Y479500D03*
D123*
X225750Y479500D03*
D121*
X234500Y479500D03*
D133*
X242250Y479500D03*
D132*
X250250Y479500D03*
X258250Y479500D03*
X265250Y479500D03*
D123*
X158250Y480000D03*
D127*
X169000Y480000D03*
X190000Y480000D03*
D156*
X209750Y480000D03*
D123*
X225750Y480000D03*
D121*
X234500Y480000D03*
D134*
X242250Y480000D03*
D132*
X250250Y480000D03*
D127*
X261500Y480000D03*
D123*
X158250Y480500D03*
D142*
X168750Y480500D03*
X190250Y480500D03*
D156*
X209750Y480500D03*
D123*
X225750Y480500D03*
D121*
X234500Y480500D03*
D135*
X240250Y480500D03*
X244250Y480500D03*
D132*
X250250Y480500D03*
D124*
X262000Y480500D03*
D123*
X158250Y481000D03*
D142*
X168750Y481000D03*
X190250Y481000D03*
D156*
X209750Y481000D03*
D123*
X225750Y481000D03*
D121*
X234500Y481000D03*
X240000Y481000D03*
X244500Y481000D03*
D132*
X250250Y481000D03*
D128*
X262500Y481000D03*
D123*
X158250Y481500D03*
D141*
X168500Y481500D03*
X190500Y481500D03*
D156*
X209750Y481500D03*
D123*
X225750Y481500D03*
D121*
X234500Y481500D03*
X240000Y481500D03*
X244500Y481500D03*
D132*
X250250Y481500D03*
D153*
X262750Y481500D03*
D123*
X158250Y482000D03*
D141*
X168500Y482000D03*
X190500Y482000D03*
D156*
X209750Y482000D03*
D123*
X225750Y482000D03*
D121*
X234500Y482000D03*
D135*
X239750Y482000D03*
X244750Y482000D03*
D132*
X250250Y482000D03*
D145*
X263000Y482000D03*
D123*
X158250Y482500D03*
D140*
X168250Y482500D03*
X190750Y482500D03*
D156*
X209750Y482500D03*
D123*
X225750Y482500D03*
D121*
X234500Y482500D03*
X239500Y482500D03*
X245000Y482500D03*
D132*
X250250Y482500D03*
D145*
X263000Y482500D03*
D123*
X158250Y483000D03*
D140*
X168250Y483000D03*
X190750Y483000D03*
D156*
X209750Y483000D03*
D123*
X225750Y483000D03*
D121*
X234500Y483000D03*
X239500Y483000D03*
X245000Y483000D03*
D132*
X250250Y483000D03*
D129*
X263250Y483000D03*
D123*
X158250Y483500D03*
D125*
X168000Y483500D03*
X191000Y483500D03*
D156*
X209750Y483500D03*
D123*
X225750Y483500D03*
D121*
X234500Y483500D03*
X239000Y483500D03*
X245500Y483500D03*
D132*
X250250Y483500D03*
X258250Y483500D03*
D126*
X268000Y483500D03*
D123*
X158250Y484000D03*
D125*
X168000Y484000D03*
X191000Y484000D03*
D155*
X210000Y484000D03*
D123*
X225750Y484000D03*
D121*
X234500Y484000D03*
X239000Y484000D03*
X245500Y484000D03*
D132*
X250250Y484000D03*
X258250Y484000D03*
D126*
X268500Y484000D03*
D123*
X158250Y484500D03*
D138*
X168000Y484500D03*
D137*
X191250Y484500D03*
D157*
X209750Y484500D03*
D123*
X225750Y484500D03*
D121*
X234500Y484500D03*
D135*
X238750Y484500D03*
X245750Y484500D03*
D132*
X250250Y484500D03*
X258250Y484500D03*
X268750Y484500D03*
D123*
X158250Y485000D03*
D131*
X167500Y485000D03*
D134*
X191250Y485000D03*
D154*
X209500Y485000D03*
D123*
X225750Y485000D03*
D121*
X234500Y485000D03*
X238500Y485000D03*
X246000Y485000D03*
D132*
X250250Y485000D03*
X258250Y485000D03*
X268750Y485000D03*
D123*
X158250Y485500D03*
X225750Y485500D03*
D121*
X234500Y485500D03*
X238500Y485500D03*
X246000Y485500D03*
D132*
X250250Y485500D03*
X258250Y485500D03*
X268750Y485500D03*
D123*
X158250Y486000D03*
X225750Y486000D03*
D134*
X236250Y486000D03*
D138*
X248500Y486000D03*
D132*
X258250Y486000D03*
X268750Y486000D03*
D123*
X158250Y486500D03*
X225750Y486500D03*
D134*
X236250Y486500D03*
D138*
X248500Y486500D03*
D132*
X258250Y486500D03*
X268750Y486500D03*
D123*
X158250Y487000D03*
X225750Y487000D03*
D131*
X236000Y487000D03*
D134*
X248750Y487000D03*
D132*
X258250Y487000D03*
D126*
X268500Y487000D03*
D123*
X158250Y487500D03*
X225750Y487500D03*
D131*
X236000Y487500D03*
D134*
X248750Y487500D03*
D132*
X258250Y487500D03*
D126*
X268000Y487500D03*
D123*
X158250Y488000D03*
X225750Y488000D03*
D131*
X236000Y488000D03*
D134*
X248750Y488000D03*
D129*
X263250Y488000D03*
D123*
X158250Y488500D03*
X225750Y488500D03*
D133*
X235750Y488500D03*
D131*
X249000Y488500D03*
D129*
X263250Y488500D03*
D123*
X158250Y489000D03*
X225750Y489000D03*
D133*
X235750Y489000D03*
D131*
X249000Y489000D03*
D145*
X263000Y489000D03*
D123*
X158250Y489500D03*
X225750Y489500D03*
D130*
X235500Y489500D03*
D133*
X249250Y489500D03*
D153*
X262750Y489500D03*
D123*
X158250Y490000D03*
X225750Y490000D03*
D130*
X235500Y490000D03*
D133*
X249250Y490000D03*
D128*
X262500Y490000D03*
D123*
X158250Y490500D03*
X225750Y490500D03*
D130*
X235500Y490500D03*
D133*
X249250Y490500D03*
D124*
X262000Y490500D03*
D120*
X192000Y491000D03*
D122*
X235250Y491000D03*
D130*
X249500Y491000D03*
D127*
X261500Y491000D03*
D120*
X192000Y491500D03*
D158*
X155000Y815000D03*
D159*
X105000Y815000D03*
D160*
X105000Y754000D03*
X114500Y730000D03*
X95500Y730000D03*
D161*
X245533Y276711D03*
D162*
X245482Y276813D03*
X245482Y276914D03*
D163*
X245380Y277016D03*
D162*
X245380Y277118D03*
D164*
X245279Y277219D03*
X245279Y277321D03*
D165*
X245228Y277422D03*
D166*
X245177Y277524D03*
D165*
X245126Y277626D03*
X245126Y277727D03*
D162*
X245076Y277829D03*
D167*
X201286Y277930D03*
D168*
X208957Y277930D03*
D169*
X221606Y277930D03*
D170*
X231969Y277930D03*
D171*
X245025Y277930D03*
D172*
X205248Y278032D03*
D173*
X226686Y278032D03*
D163*
X244974Y278032D03*
D174*
X205248Y278134D03*
D175*
X226686Y278134D03*
D171*
X244923Y278134D03*
D176*
X205198Y278235D03*
D175*
X226686Y278235D03*
D162*
X244872Y278235D03*
D176*
X205198Y278337D03*
D177*
X226686Y278337D03*
D165*
X244822Y278337D03*
D178*
X205198Y278438D03*
D177*
X226686Y278438D03*
D165*
X244822Y278438D03*
D179*
X205147Y278540D03*
D180*
X226635Y278540D03*
D181*
X244720Y278540D03*
D182*
X205147Y278642D03*
D183*
X226635Y278642D03*
D165*
X244720Y278642D03*
D184*
X205096Y278743D03*
D185*
X226686Y278743D03*
D165*
X244618Y278743D03*
D186*
X205045Y278845D03*
D187*
X226737Y278845D03*
D165*
X244618Y278845D03*
D188*
X205045Y278946D03*
D189*
X226838Y278946D03*
D162*
X244568Y278946D03*
D190*
X204994Y279048D03*
D191*
X226889Y279048D03*
D192*
X240808Y279048D03*
D193*
X244517Y279048D03*
D194*
X204944Y279150D03*
D195*
X226940Y279150D03*
D196*
X239894Y279150D03*
D162*
X244466Y279150D03*
D197*
X204944Y279251D03*
D198*
X226991Y279251D03*
D199*
X239386Y279251D03*
D171*
X244415Y279251D03*
D200*
X204842Y279353D03*
D201*
X227143Y279353D03*
D202*
X239132Y279353D03*
D162*
X244364Y279353D03*
D203*
X204791Y279454D03*
D204*
X227143Y279454D03*
D205*
X238776Y279454D03*
D165*
X244314Y279454D03*
D206*
X204791Y279556D03*
D207*
X227143Y279556D03*
D208*
X238472Y279556D03*
D166*
X244263Y279556D03*
D209*
X204791Y279658D03*
D210*
X227143Y279658D03*
D211*
X238218Y279658D03*
D165*
X244212Y279658D03*
D212*
X204842Y279759D03*
D213*
X227194Y279759D03*
D214*
X237964Y279759D03*
D165*
X244212Y279759D03*
D212*
X204842Y279861D03*
D215*
X227143Y279861D03*
D216*
X237710Y279861D03*
D165*
X244110Y279861D03*
D217*
X204842Y279962D03*
D218*
X227092Y279962D03*
D219*
X237608Y279962D03*
D165*
X244110Y279962D03*
D220*
X204842Y280064D03*
D221*
X227092Y280064D03*
D222*
X237405Y280064D03*
D193*
X244009Y280064D03*
D223*
X204893Y280166D03*
D218*
X227092Y280166D03*
D224*
X237252Y280166D03*
D171*
X244009Y280166D03*
D223*
X204893Y280267D03*
D225*
X227042Y280267D03*
D226*
X237100Y280267D03*
D171*
X243907Y280267D03*
D223*
X204893Y280369D03*
D225*
X227042Y280369D03*
D227*
X236998Y280369D03*
D165*
X243806Y280369D03*
D223*
X204893Y280470D03*
D225*
X227042Y280470D03*
D228*
X236846Y280470D03*
D165*
X243806Y280470D03*
D229*
X204944Y280572D03*
D230*
X227042Y280572D03*
D231*
X236744Y280572D03*
D181*
X243704Y280572D03*
D232*
X204944Y280674D03*
D218*
X226991Y280674D03*
D225*
X236592Y280674D03*
D165*
X243704Y280674D03*
D232*
X204944Y280775D03*
D233*
X226889Y280775D03*
D234*
X236490Y280775D03*
D165*
X243602Y280775D03*
D232*
X204944Y280877D03*
D235*
X226838Y280877D03*
D213*
X236338Y280877D03*
D236*
X243552Y280877D03*
D237*
X205045Y280978D03*
D238*
X226737Y280978D03*
D239*
X236236Y280978D03*
D171*
X243501Y280978D03*
D240*
X205045Y281080D03*
D190*
X226635Y281080D03*
D241*
X236135Y281080D03*
D193*
X243501Y281080D03*
D237*
X205045Y281182D03*
D242*
X226584Y281182D03*
D243*
X235982Y281182D03*
D161*
X243501Y281182D03*
D244*
X205096Y281283D03*
D245*
X226483Y281283D03*
D204*
X235881Y281283D03*
D246*
X243602Y281283D03*
D244*
X205096Y281385D03*
D245*
X226381Y281385D03*
D186*
X235728Y281385D03*
D247*
X243602Y281385D03*
D244*
X205096Y281486D03*
D194*
X226280Y281486D03*
D248*
X235678Y281486D03*
D249*
X243704Y281486D03*
D250*
X205096Y281588D03*
D251*
X226280Y281588D03*
D252*
X235525Y281588D03*
D253*
X243704Y281588D03*
D254*
X205147Y281690D03*
D255*
X226178Y281690D03*
D256*
X235474Y281690D03*
D257*
X243755Y281690D03*
D254*
X205147Y281791D03*
D258*
X226076Y281791D03*
D259*
X235322Y281791D03*
D260*
X243806Y281791D03*
D254*
X205147Y281893D03*
D219*
X226026Y281893D03*
D261*
X235271Y281893D03*
D262*
X243856Y281893D03*
D263*
X205198Y281994D03*
D264*
X225924Y281994D03*
D261*
X235170Y281994D03*
D265*
X243907Y281994D03*
D266*
X205248Y282096D03*
D267*
X225873Y282096D03*
D268*
X235068Y282096D03*
D269*
X243958Y282096D03*
D254*
X205248Y282198D03*
D197*
X225772Y282198D03*
D270*
X234966Y282198D03*
D271*
X244009Y282198D03*
D254*
X205248Y282299D03*
D272*
X225721Y282299D03*
D270*
X234865Y282299D03*
D254*
X244060Y282299D03*
X205248Y282401D03*
D214*
X225670Y282401D03*
D273*
X234814Y282401D03*
D232*
X244060Y282401D03*
D271*
X205299Y282502D03*
D274*
X225619Y282502D03*
D273*
X234712Y282502D03*
D275*
X244110Y282502D03*
D276*
X205299Y282604D03*
D277*
X225518Y282604D03*
D278*
X234611Y282604D03*
D279*
X244161Y282604D03*
D271*
X205299Y282706D03*
D280*
X225467Y282706D03*
D198*
X234509Y282706D03*
D281*
X244161Y282706D03*
D271*
X205299Y282807D03*
D211*
X225416Y282807D03*
D282*
X234458Y282807D03*
D283*
X244212Y282807D03*
D271*
X205401Y282909D03*
D211*
X225314Y282909D03*
D284*
X234306Y282909D03*
D285*
X244212Y282909D03*
D271*
X205401Y283010D03*
D286*
X225264Y283010D03*
D182*
X234204Y283010D03*
D285*
X244212Y283010D03*
D276*
X205401Y283112D03*
D287*
X225213Y283112D03*
D288*
X234154Y283112D03*
D289*
X244212Y283112D03*
D271*
X205401Y283214D03*
D290*
X225111Y283214D03*
D291*
X234052Y283214D03*
D286*
X244263Y283214D03*
D169*
X205452Y283315D03*
D292*
X225060Y283315D03*
D293*
X234001Y283315D03*
D280*
X244263Y283315D03*
D169*
X205452Y283417D03*
D203*
X225010Y283417D03*
D294*
X233900Y283417D03*
D295*
X244314Y283417D03*
D169*
X205452Y283518D03*
D296*
X224959Y283518D03*
D178*
X233849Y283518D03*
D272*
X244314Y283518D03*
D297*
X205502Y283620D03*
D208*
X224959Y283620D03*
D298*
X233747Y283620D03*
D267*
X244364Y283620D03*
D299*
X205553Y283722D03*
D296*
X224857Y283722D03*
D178*
X233646Y283722D03*
D216*
X244314Y283722D03*
D299*
X205553Y283823D03*
D300*
X224806Y283823D03*
D301*
X233595Y283823D03*
D302*
X244364Y283823D03*
D299*
X205553Y283925D03*
D303*
X224756Y283925D03*
D301*
X233493Y283925D03*
D258*
X244364Y283925D03*
D304*
X205604Y284026D03*
D209*
X224705Y284026D03*
D301*
X233493Y284026D03*
D258*
X244364Y284026D03*
D297*
X205604Y284128D03*
D305*
X224603Y284128D03*
D306*
X233392Y284128D03*
D251*
X244364Y284128D03*
D304*
X205604Y284230D03*
D209*
X224603Y284230D03*
D176*
X233341Y284230D03*
D194*
X244364Y284230D03*
D304*
X205604Y284331D03*
D205*
X224552Y284331D03*
D176*
X233239Y284331D03*
D224*
X244364Y284331D03*
D304*
X205604Y284433D03*
D307*
X224502Y284433D03*
D174*
X233188Y284433D03*
D308*
X244415Y284433D03*
D304*
X205706Y284534D03*
D205*
X224451Y284534D03*
D176*
X233138Y284534D03*
D242*
X244364Y284534D03*
D297*
X205706Y284636D03*
D309*
X224400Y284636D03*
D310*
X233087Y284636D03*
D190*
X244415Y284636D03*
D304*
X205706Y284738D03*
D311*
X224349Y284738D03*
D312*
X232985Y284738D03*
D228*
X244364Y284738D03*
D304*
X205706Y284839D03*
D311*
X224248Y284839D03*
D174*
X232884Y284839D03*
D238*
X244415Y284839D03*
D313*
X205807Y284941D03*
D311*
X224248Y284941D03*
D314*
X232833Y284941D03*
D233*
X244364Y284941D03*
D313*
X205807Y285042D03*
D223*
X224197Y285042D03*
D174*
X232782Y285042D03*
D225*
X244415Y285042D03*
D315*
X205807Y285144D03*
D229*
X224146Y285144D03*
D316*
X232731Y285144D03*
D221*
X244364Y285144D03*
D313*
X205807Y285246D03*
D223*
X224095Y285246D03*
D317*
X232630Y285246D03*
D218*
X244364Y285246D03*
D318*
X205858Y285347D03*
D232*
X224044Y285347D03*
D319*
X232579Y285347D03*
D213*
X244364Y285347D03*
D318*
X205858Y285449D03*
D263*
X223994Y285449D03*
D317*
X232528Y285449D03*
D213*
X244364Y285449D03*
D318*
X205858Y285550D03*
D237*
X223943Y285550D03*
D319*
X232477Y285550D03*
D210*
X244314Y285550D03*
D320*
X205909Y285652D03*
D250*
X223892Y285652D03*
D321*
X232376Y285652D03*
D241*
X244364Y285652D03*
D265*
X205909Y285754D03*
D254*
X223841Y285754D03*
D314*
X232325Y285754D03*
D243*
X244314Y285754D03*
D322*
X205960Y285855D03*
D254*
X223841Y285855D03*
D323*
X232274Y285855D03*
D243*
X244314Y285855D03*
D322*
X205960Y285957D03*
D271*
X223790Y285957D03*
D319*
X232172Y285957D03*
D324*
X244263Y285957D03*
D265*
X206010Y286058D03*
D254*
X223740Y286058D03*
D319*
X232172Y286058D03*
D325*
X244314Y286058D03*
D320*
X206010Y286160D03*
D276*
X223689Y286160D03*
D321*
X232071Y286160D03*
D326*
X244263Y286160D03*
D265*
X206010Y286262D03*
D271*
X223689Y286262D03*
D327*
X232020Y286262D03*
D186*
X244263Y286262D03*
D265*
X206010Y286363D03*
D169*
X223638Y286363D03*
D319*
X231969Y286363D03*
D248*
X244212Y286363D03*
D265*
X206010Y286465D03*
D271*
X223587Y286465D03*
D319*
X231969Y286465D03*
D328*
X244263Y286465D03*
D265*
X206112Y286566D03*
D169*
X223536Y286566D03*
D319*
X231868Y286566D03*
D256*
X244212Y286566D03*
D320*
X206112Y286668D03*
D329*
X223536Y286668D03*
D330*
X231817Y286668D03*
D331*
X244212Y286668D03*
D265*
X206112Y286770D03*
D299*
X223435Y286770D03*
D323*
X231766Y286770D03*
D256*
X244212Y286770D03*
D265*
X206112Y286871D03*
D299*
X223435Y286871D03*
D327*
X231715Y286871D03*
D332*
X244161Y286871D03*
D170*
X206163Y286973D03*
D304*
X223384Y286973D03*
D319*
X231664Y286973D03*
D333*
X244212Y286973D03*
D170*
X206163Y287074D03*
D299*
X223333Y287074D03*
D327*
X231614Y287074D03*
D334*
X244161Y287074D03*
D335*
X206163Y287176D03*
D297*
X223282Y287176D03*
D330*
X231512Y287176D03*
D336*
X244161Y287176D03*
D170*
X206163Y287278D03*
D304*
X223282Y287278D03*
D327*
X231512Y287278D03*
D270*
X244110Y287278D03*
D170*
X206264Y287379D03*
D304*
X223282Y287379D03*
D319*
X231461Y287379D03*
D270*
X244110Y287379D03*
D170*
X206264Y287481D03*
D322*
X223232Y287481D03*
D327*
X231410Y287481D03*
D273*
X244060Y287481D03*
D170*
X206264Y287582D03*
D318*
X223130Y287582D03*
D319*
X231360Y287582D03*
D273*
X244060Y287582D03*
D337*
X206315Y287684D03*
D269*
X223130Y287684D03*
D330*
X231309Y287684D03*
D278*
X244060Y287684D03*
D338*
X206315Y287786D03*
D318*
X223130Y287786D03*
D327*
X231309Y287786D03*
D198*
X244060Y287786D03*
D338*
X206315Y287887D03*
D265*
X223079Y287887D03*
D327*
X231207Y287887D03*
D282*
X244009Y287887D03*
D338*
X206315Y287989D03*
D322*
X223028Y287989D03*
D319*
X231156Y287989D03*
D282*
X244009Y287989D03*
D262*
X206366Y288090D03*
D265*
X222978Y288090D03*
D327*
X231106Y288090D03*
D284*
X243958Y288090D03*
D337*
X206417Y288192D03*
D320*
X222978Y288192D03*
D321*
X231055Y288192D03*
D339*
X243958Y288192D03*
D338*
X206417Y288294D03*
D265*
X222978Y288294D03*
D327*
X231004Y288294D03*
D340*
X243907Y288294D03*
D338*
X206417Y288395D03*
D265*
X222876Y288395D03*
D327*
X231004Y288395D03*
D340*
X243907Y288395D03*
D262*
X206468Y288497D03*
D265*
X222876Y288497D03*
D319*
X230953Y288497D03*
D294*
X243856Y288497D03*
D262*
X206468Y288598D03*
D265*
X222876Y288598D03*
D327*
X230902Y288598D03*
D294*
X243856Y288598D03*
D341*
X206468Y288700D03*
D335*
X222825Y288700D03*
D321*
X230852Y288700D03*
D342*
X243856Y288700D03*
D262*
X206468Y288802D03*
D265*
X222774Y288802D03*
D319*
X230852Y288802D03*
D301*
X243856Y288802D03*
D343*
X206518Y288903D03*
D170*
X222724Y288903D03*
D327*
X230801Y288903D03*
D301*
X243856Y288903D03*
D344*
X206569Y289005D03*
D170*
X222724Y289005D03*
D323*
X230750Y289005D03*
D176*
X243806Y289005D03*
D344*
X206569Y289106D03*
D265*
X222673Y289106D03*
D314*
X230699Y289106D03*
D176*
X243806Y289106D03*
D345*
X206569Y289208D03*
D346*
X222622Y289208D03*
D321*
X230648Y289208D03*
D310*
X243755Y289208D03*
D344*
X206569Y289310D03*
D199*
X222622Y289310D03*
D319*
X230648Y289310D03*
D312*
X243755Y289310D03*
D344*
X206671Y289411D03*
D199*
X222622Y289411D03*
D319*
X230547Y289411D03*
D317*
X243704Y289411D03*
D344*
X206671Y289513D03*
D265*
X222571Y289513D03*
D319*
X230547Y289513D03*
D317*
X243704Y289513D03*
D344*
X206671Y289614D03*
D170*
X222520Y289614D03*
D317*
X230496Y289614D03*
X243704Y289614D03*
D345*
X206671Y289716D03*
D335*
X222520Y289716D03*
D347*
X230496Y289716D03*
D321*
X243653Y289716D03*
D260*
X206722Y289818D03*
D170*
X222520Y289818D03*
D319*
X230445Y289818D03*
X243653Y289818D03*
D260*
X206722Y289919D03*
D265*
X222470Y289919D03*
D319*
X230445Y289919D03*
D327*
X243602Y289919D03*
D260*
X206722Y290021D03*
D170*
X222419Y290021D03*
D317*
X230394Y290021D03*
D327*
X243602Y290021D03*
D348*
X206772Y290122D03*
D170*
X222419Y290122D03*
D317*
X230394Y290122D03*
D327*
X243602Y290122D03*
D349*
X206823Y290224D03*
D335*
X222419Y290224D03*
D316*
X230293Y290224D03*
D191*
X243552Y290224D03*
D260*
X206823Y290326D03*
D265*
X222368Y290326D03*
D314*
X230293Y290326D03*
D350*
X243552Y290326D03*
D260*
X206823Y290427D03*
D170*
X222317Y290427D03*
D314*
X230293Y290427D03*
D351*
X243501Y290427D03*
D348*
X206874Y290529D03*
D170*
X222317Y290529D03*
D314*
X230191Y290529D03*
D351*
X243501Y290529D03*
D348*
X206874Y290630D03*
D170*
X222317Y290630D03*
D314*
X230191Y290630D03*
D351*
X243501Y290630D03*
D352*
X206874Y290732D03*
D320*
X222266Y290732D03*
D316*
X230191Y290732D03*
D353*
X243450Y290732D03*
D348*
X206874Y290834D03*
D170*
X222216Y290834D03*
D174*
X230140Y290834D03*
D354*
X243450Y290834D03*
D348*
X206874Y290935D03*
D170*
X222216Y290935D03*
D174*
X230140Y290935D03*
D355*
X243399Y290935D03*
D348*
X206976Y291037D03*
D170*
X222216Y291037D03*
D317*
X230090Y291037D03*
D355*
X243399Y291037D03*
D348*
X206976Y291138D03*
D265*
X222165Y291138D03*
D312*
X230039Y291138D03*
D354*
X243348Y291138D03*
D352*
X206976Y291240D03*
D346*
X222114Y291240D03*
D310*
X230039Y291240D03*
D356*
X243298Y291240D03*
D348*
X206976Y291342D03*
D199*
X222114Y291342D03*
D312*
X230039Y291342D03*
D355*
X243298Y291342D03*
D168*
X207026Y291443D03*
D265*
X222063Y291443D03*
D195*
X229988Y291443D03*
D355*
X243298Y291443D03*
D168*
X207026Y291545D03*
D265*
X222063Y291545D03*
D312*
X229937Y291545D03*
D357*
X243247Y291545D03*
D168*
X207026Y291646D03*
D265*
X222063Y291646D03*
D312*
X229937Y291646D03*
D357*
X243247Y291646D03*
D358*
X207026Y291748D03*
D320*
X222063Y291748D03*
D310*
X229937Y291748D03*
D359*
X243247Y291748D03*
D348*
X207077Y291850D03*
D265*
X222063Y291850D03*
D312*
X229937Y291850D03*
D360*
X243196Y291850D03*
D361*
X207128Y291951D03*
D322*
X222012Y291951D03*
D174*
X229836Y291951D03*
D357*
X243145Y291951D03*
D361*
X207128Y292053D03*
D265*
X221962Y292053D03*
D174*
X229836Y292053D03*
D357*
X243145Y292053D03*
D361*
X207128Y292154D03*
D265*
X221962Y292154D03*
D174*
X229836Y292154D03*
D362*
X243094Y292154D03*
D363*
X207179Y292256D03*
D364*
X221911Y292256D03*
D172*
X229836Y292256D03*
D365*
X243094Y292256D03*
D257*
X207179Y292358D03*
D322*
X221911Y292358D03*
D176*
X229785Y292358D03*
D362*
X243094Y292358D03*
D257*
X207179Y292459D03*
D322*
X221911Y292459D03*
D176*
X229785Y292459D03*
D366*
X243044Y292459D03*
D257*
X207179Y292561D03*
D322*
X221911Y292561D03*
D176*
X229785Y292561D03*
D362*
X242993Y292561D03*
D367*
X207280Y292662D03*
D322*
X221911Y292662D03*
D301*
X229734Y292662D03*
D362*
X242993Y292662D03*
D368*
X207280Y292764D03*
D297*
X221860Y292764D03*
D369*
X229683Y292764D03*
D370*
X242942Y292764D03*
D367*
X207280Y292866D03*
D304*
X221860Y292866D03*
D176*
X229683Y292866D03*
D366*
X242942Y292866D03*
D367*
X207280Y292967D03*
D322*
X221809Y292967D03*
D176*
X229683Y292967D03*
D362*
X242891Y292967D03*
D367*
X207382Y293069D03*
D322*
X221809Y293069D03*
D176*
X229683Y293069D03*
D366*
X242840Y293069D03*
D367*
X207382Y293170D03*
D304*
X221758Y293170D03*
D176*
X229683Y293170D03*
D366*
X242840Y293170D03*
D368*
X207382Y293272D03*
D297*
X221758Y293272D03*
D306*
X229632Y293272D03*
D365*
X242790Y293272D03*
D168*
X207433Y293374D03*
D304*
X221758Y293374D03*
D301*
X229632Y293374D03*
D362*
X242790Y293374D03*
D168*
X207534Y293475D03*
D169*
X221708Y293475D03*
D301*
X229632Y293475D03*
D362*
X242790Y293475D03*
D170*
X207788Y293577D03*
D169*
X221708Y293577D03*
D301*
X229632Y293577D03*
D360*
X242688Y293577D03*
D244*
X208144Y293678D03*
D169*
X221708Y293678D03*
D301*
X229632Y293678D03*
D360*
X242688Y293678D03*
D371*
X208906Y293780D03*
D329*
X221708Y293780D03*
D306*
X229632Y293780D03*
D372*
X242688Y293780D03*
D225*
X209871Y293882D03*
D271*
X221657Y293882D03*
D178*
X229582Y293882D03*
D357*
X242637Y293882D03*
D293*
X211141Y293983D03*
D271*
X221657Y293983D03*
D178*
X229582Y293983D03*
D362*
X242586Y293983D03*
D373*
X214900Y294085D03*
D178*
X229582Y294085D03*
D362*
X242586Y294085D03*
D373*
X214900Y294186D03*
D178*
X229582Y294186D03*
D357*
X242536Y294186D03*
D374*
X214951Y294288D03*
D298*
X229582Y294288D03*
D359*
X242536Y294288D03*
D375*
X214951Y294390D03*
D301*
X229531Y294390D03*
D362*
X242485Y294390D03*
D375*
X214951Y294491D03*
D301*
X229531Y294491D03*
D357*
X242434Y294491D03*
D375*
X214951Y294593D03*
D301*
X229531Y294593D03*
D355*
X242383Y294593D03*
D376*
X215002Y294694D03*
D301*
X229531Y294694D03*
D355*
X242383Y294694D03*
D377*
X215002Y294796D03*
D378*
X225213Y294796D03*
D207*
X230394Y294796D03*
D353*
X242332Y294796D03*
D376*
X215002Y294898D03*
D379*
X225162Y294898D03*
D243*
X230394Y294898D03*
D355*
X242282Y294898D03*
D376*
X215002Y294999D03*
D380*
X225060Y294999D03*
D243*
X230394Y294999D03*
D381*
X242231Y294999D03*
D382*
X215053Y295101D03*
D383*
X225010Y295101D03*
D243*
X230394Y295101D03*
D381*
X242231Y295101D03*
D382*
X215053Y295202D03*
D384*
X225010Y295202D03*
D243*
X230394Y295202D03*
D385*
X242180Y295202D03*
D386*
X215053Y295304D03*
D387*
X224959Y295304D03*
D207*
X230394Y295304D03*
D388*
X242129Y295304D03*
D327*
X211802Y295406D03*
D232*
X221504Y295406D03*
D389*
X224908Y295406D03*
D390*
X230344Y295406D03*
D381*
X242129Y295406D03*
D259*
X210938Y295507D03*
D232*
X221504Y295507D03*
D391*
X224857Y295507D03*
D390*
X230344Y295507D03*
D385*
X242078Y295507D03*
D392*
X210227Y295609D03*
D232*
X221504Y295609D03*
D393*
X224806Y295609D03*
D390*
X230344Y295609D03*
D350*
X242028Y295609D03*
D258*
X209820Y295710D03*
D232*
X221504Y295710D03*
D394*
X224756Y295710D03*
D390*
X230344Y295710D03*
D350*
X242028Y295710D03*
D208*
X209109Y295812D03*
D395*
X221454Y295812D03*
D396*
X224705Y295812D03*
D397*
X230344Y295812D03*
D330*
X241977Y295812D03*
D271*
X208550Y295914D03*
D275*
X221454Y295914D03*
D398*
X224654Y295914D03*
D390*
X230344Y295914D03*
D327*
X241977Y295914D03*
D348*
X208093Y296015D03*
D275*
X221454Y296015D03*
D399*
X224603Y296015D03*
D390*
X230344Y296015D03*
D323*
X241926Y296015D03*
D257*
X208093Y296117D03*
D275*
X221454Y296117D03*
D390*
X230344Y296117D03*
D327*
X241875Y296117D03*
D400*
X208042Y296218D03*
D311*
X221403Y296218D03*
D390*
X230344Y296218D03*
D319*
X241824Y296218D03*
D253*
X208042Y296320D03*
D401*
X221403Y296320D03*
D397*
X230344Y296320D03*
D347*
X241774Y296320D03*
D400*
X208042Y296422D03*
D307*
X221454Y296422D03*
D204*
X230293Y296422D03*
D317*
X241774Y296422D03*
D402*
X208093Y296523D03*
D307*
X221454Y296523D03*
D204*
X230293Y296523D03*
D312*
X241723Y296523D03*
D402*
X208093Y296625D03*
D403*
X221454Y296625D03*
D204*
X230293Y296625D03*
D312*
X241723Y296625D03*
D402*
X208093Y296726D03*
D403*
X221454Y296726D03*
D204*
X230293Y296726D03*
D195*
X241672Y296726D03*
D404*
X208144Y296828D03*
D206*
X221555Y296828D03*
D405*
X230293Y296828D03*
D306*
X241621Y296828D03*
D249*
X208144Y296930D03*
D203*
X221657Y296930D03*
D394*
X224959Y296930D03*
D204*
X230293Y296930D03*
D301*
X241621Y296930D03*
D249*
X208144Y297031D03*
D197*
X222114Y297031D03*
D204*
X230293Y297031D03*
D301*
X241621Y297031D03*
D402*
X208195Y297133D03*
D216*
X222063Y297133D03*
D204*
X230293Y297133D03*
D178*
X241570Y297133D03*
D249*
X208246Y297234D03*
D216*
X222063Y297234D03*
D204*
X230293Y297234D03*
D178*
X241469Y297234D03*
D404*
X208246Y297336D03*
D406*
X222063Y297336D03*
D405*
X230293Y297336D03*
D298*
X241469Y297336D03*
D249*
X208246Y297438D03*
D216*
X222063Y297438D03*
D204*
X230293Y297438D03*
D294*
X241418Y297438D03*
D249*
X208246Y297539D03*
D302*
X222012Y297539D03*
D204*
X230293Y297539D03*
D294*
X241418Y297539D03*
D249*
X208347Y297641D03*
D302*
X222012Y297641D03*
D204*
X230293Y297641D03*
D340*
X241367Y297641D03*
D249*
X208347Y297742D03*
D302*
X222012Y297742D03*
D204*
X230293Y297742D03*
D340*
X241367Y297742D03*
D404*
X208347Y297844D03*
D407*
X222012Y297844D03*
D405*
X230293Y297844D03*
D408*
X241316Y297844D03*
D249*
X208347Y297946D03*
D302*
X222012Y297946D03*
D204*
X230293Y297946D03*
D182*
X241316Y297946D03*
D249*
X208347Y298047D03*
D219*
X221962Y298047D03*
D204*
X230293Y298047D03*
D282*
X241266Y298047D03*
D167*
X208398Y298149D03*
D219*
X221962Y298149D03*
D204*
X230293Y298149D03*
D282*
X241266Y298149D03*
D249*
X208449Y298250D03*
D219*
X221962Y298250D03*
D204*
X230293Y298250D03*
D198*
X241215Y298250D03*
D404*
X208449Y298352D03*
D409*
X221911Y298352D03*
D405*
X230293Y298352D03*
D278*
X241215Y298352D03*
D249*
X208449Y298454D03*
D258*
X221911Y298454D03*
D204*
X230293Y298454D03*
D410*
X241164Y298454D03*
D411*
X208500Y298555D03*
D258*
X221911Y298555D03*
D204*
X230293Y298555D03*
D410*
X241164Y298555D03*
D411*
X208500Y298657D03*
D258*
X221911Y298657D03*
D204*
X230293Y298657D03*
D410*
X241164Y298657D03*
D249*
X208550Y298758D03*
D258*
X221911Y298758D03*
D186*
X230344Y298758D03*
D412*
X241113Y298758D03*
D404*
X208550Y298860D03*
D222*
X221860Y298860D03*
D326*
X230344Y298860D03*
D413*
X241062Y298860D03*
D411*
X208601Y298962D03*
D414*
X221860Y298962D03*
D186*
X230344Y298962D03*
D270*
X241062Y298962D03*
D249*
X208652Y299063D03*
D414*
X221860Y299063D03*
D186*
X230344Y299063D03*
D270*
X241062Y299063D03*
D249*
X208652Y299165D03*
D414*
X221860Y299165D03*
D186*
X230344Y299165D03*
D270*
X241062Y299165D03*
D411*
X208703Y299266D03*
D414*
X221860Y299266D03*
D186*
X230344Y299266D03*
D334*
X241012Y299266D03*
D415*
X208703Y299368D03*
D251*
X221809Y299368D03*
D326*
X230344Y299368D03*
D336*
X241012Y299368D03*
D411*
X208703Y299470D03*
D194*
X221809Y299470D03*
D186*
X230344Y299470D03*
D261*
X240961Y299470D03*
D411*
X208703Y299571D03*
D416*
X221860Y299571D03*
D186*
X230344Y299571D03*
D261*
X240961Y299571D03*
D249*
X208754Y299673D03*
D416*
X221860Y299673D03*
D186*
X230344Y299673D03*
D261*
X240961Y299673D03*
D411*
X208804Y299774D03*
D245*
X221809Y299774D03*
D248*
X230394Y299774D03*
D261*
X240961Y299774D03*
D415*
X208804Y299876D03*
D417*
X221809Y299876D03*
D326*
X230445Y299876D03*
D418*
X240910Y299876D03*
D411*
X208804Y299978D03*
D245*
X221809Y299978D03*
D186*
X230445Y299978D03*
D259*
X240910Y299978D03*
D249*
X208855Y300079D03*
D245*
X221809Y300079D03*
D186*
X230445Y300079D03*
D259*
X240910Y300079D03*
D167*
X208906Y300181D03*
D245*
X221809Y300181D03*
D186*
X230445Y300181D03*
D201*
X240859Y300181D03*
D167*
X208906Y300282D03*
D308*
X221758Y300282D03*
D186*
X230445Y300282D03*
D419*
X240910Y300282D03*
D420*
X208906Y300384D03*
D421*
X221758Y300384D03*
D422*
X230496Y300384D03*
D423*
X240910Y300384D03*
D167*
X208906Y300486D03*
D308*
X221758Y300486D03*
D248*
X230496Y300486D03*
X240859Y300486D03*
D167*
X208906Y300587D03*
D242*
X221708Y300587D03*
D248*
X230496Y300587D03*
X240859Y300587D03*
D411*
X209008Y300689D03*
D242*
X221708Y300689D03*
D248*
X230496Y300689D03*
X240859Y300689D03*
D411*
X209008Y300790D03*
D242*
X221708Y300790D03*
D248*
X230496Y300790D03*
X240859Y300790D03*
D415*
X209008Y300892D03*
D190*
X221758Y300892D03*
D422*
X230496Y300892D03*
D326*
X240808Y300892D03*
D247*
X209058Y300994D03*
D228*
X221708Y300994D03*
D248*
X230598Y300994D03*
D186*
X240808Y300994D03*
D247*
X209058Y301095D03*
D228*
X221708Y301095D03*
D248*
X230598Y301095D03*
D186*
X240808Y301095D03*
D411*
X209109Y301197D03*
D228*
X221708Y301197D03*
D248*
X230598Y301197D03*
D186*
X240808Y301197D03*
D411*
X209109Y301298D03*
D228*
X221708Y301298D03*
D328*
X230648Y301298D03*
D204*
X240859Y301298D03*
D424*
X209160Y301400D03*
D425*
X221708Y301400D03*
D252*
X230648Y301400D03*
D405*
X240859Y301400D03*
D411*
X209211Y301502D03*
D238*
X221657Y301502D03*
D328*
X230648Y301502D03*
D390*
X240808Y301502D03*
D411*
X209211Y301603D03*
D238*
X221657Y301603D03*
D328*
X230648Y301603D03*
D390*
X240808Y301603D03*
D411*
X209211Y301705D03*
D233*
X221708Y301705D03*
D328*
X230648Y301705D03*
D390*
X240808Y301705D03*
D247*
X209262Y301806D03*
D233*
X221708Y301806D03*
D419*
X230750Y301806D03*
D390*
X240808Y301806D03*
D424*
X209262Y301908D03*
D231*
X221708Y301908D03*
D423*
X230750Y301908D03*
D397*
X240808Y301908D03*
D411*
X209312Y302010D03*
D225*
X221657Y302010D03*
D419*
X230750Y302010D03*
D390*
X240808Y302010D03*
D411*
X209312Y302111D03*
D225*
X221657Y302111D03*
D419*
X230750Y302111D03*
D390*
X240808Y302111D03*
D411*
X209312Y302213D03*
D225*
X221657Y302213D03*
D328*
X230852Y302213D03*
D243*
X240859Y302213D03*
D426*
X209363Y302314D03*
D225*
X221657Y302314D03*
D328*
X230852Y302314D03*
D239*
X240808Y302314D03*
D427*
X209363Y302416D03*
D428*
X221657Y302416D03*
D252*
X230852Y302416D03*
D241*
X240808Y302416D03*
D426*
X209363Y302518D03*
D215*
X221657Y302518D03*
D328*
X230852Y302518D03*
D239*
X240808Y302518D03*
D167*
X209414Y302619D03*
D215*
X221657Y302619D03*
D328*
X230852Y302619D03*
D210*
X240859Y302619D03*
D426*
X209465Y302721D03*
D215*
X221657Y302721D03*
D328*
X230953Y302721D03*
D239*
X240808Y302721D03*
D426*
X209465Y302822D03*
D215*
X221657Y302822D03*
D328*
X230953Y302822D03*
D210*
X240859Y302822D03*
D427*
X209465Y302924D03*
D429*
X221657Y302924D03*
D252*
X230953Y302924D03*
D429*
X240859Y302924D03*
D426*
X209465Y303026D03*
D210*
X221657Y303026D03*
D256*
X231004Y303026D03*
D210*
X240859Y303026D03*
D411*
X209516Y303127D03*
D210*
X221657Y303127D03*
D256*
X231004Y303127D03*
D210*
X240859Y303127D03*
D247*
X209566Y303229D03*
D239*
X221606Y303229D03*
D328*
X231055Y303229D03*
D213*
X240910Y303229D03*
D247*
X209566Y303330D03*
D243*
X221657Y303330D03*
D256*
X231106Y303330D03*
D213*
X240910Y303330D03*
D424*
X209566Y303432D03*
D207*
X221657Y303432D03*
D331*
X231106Y303432D03*
D430*
X240910Y303432D03*
D431*
X209617Y303534D03*
D243*
X221657Y303534D03*
D256*
X231106Y303534D03*
D213*
X240910Y303534D03*
D431*
X209617Y303635D03*
D243*
X221657Y303635D03*
D259*
X231156Y303635D03*
D213*
X240910Y303635D03*
D247*
X209668Y303737D03*
D204*
X221657Y303737D03*
D201*
X231207Y303737D03*
D215*
X240961Y303737D03*
D247*
X209668Y303838D03*
D204*
X221657Y303838D03*
D201*
X231207Y303838D03*
D215*
X240961Y303838D03*
D432*
X209719Y303940D03*
D405*
X221657Y303940D03*
D433*
X231207Y303940D03*
D428*
X240961Y303940D03*
D431*
X209719Y304042D03*
D204*
X221657Y304042D03*
D201*
X231309Y304042D03*
D215*
X240961Y304042D03*
D247*
X209770Y304143D03*
D204*
X221657Y304143D03*
D201*
X231309Y304143D03*
D215*
X240961Y304143D03*
D247*
X209770Y304245D03*
D248*
X221657Y304245D03*
D201*
X231309Y304245D03*
D218*
X241012Y304245D03*
D434*
X209820Y304346D03*
D248*
X221657Y304346D03*
D259*
X231360Y304346D03*
D218*
X241012Y304346D03*
D435*
X209820Y304448D03*
D422*
X221657Y304448D03*
D331*
X231410Y304448D03*
D221*
X241012Y304448D03*
D426*
X209871Y304550D03*
D328*
X221708Y304550D03*
D256*
X231410Y304550D03*
D218*
X241012Y304550D03*
D426*
X209871Y304651D03*
D201*
X221657Y304651D03*
D256*
X231512Y304651D03*
D218*
X241012Y304651D03*
D426*
X209871Y304753D03*
D419*
X221606Y304753D03*
D256*
X231512Y304753D03*
D225*
X241062Y304753D03*
D434*
X209922Y304854D03*
D419*
X221606Y304854D03*
D256*
X231512Y304854D03*
D225*
X241062Y304854D03*
D435*
X209922Y304956D03*
D423*
X221606Y304956D03*
D331*
X231614Y304956D03*
D230*
X241062Y304956D03*
D426*
X209973Y305058D03*
D419*
X221606Y305058D03*
D256*
X231614Y305058D03*
D225*
X241062Y305058D03*
D426*
X209973Y305159D03*
D201*
X221555Y305159D03*
D259*
X231664Y305159D03*
D233*
X241113Y305159D03*
D434*
X210024Y305261D03*
D201*
X221555Y305261D03*
X231715Y305261D03*
D233*
X241113Y305261D03*
D434*
X210024Y305362D03*
D328*
X221504Y305362D03*
D201*
X231715Y305362D03*
D233*
X241113Y305362D03*
D435*
X210024Y305464D03*
D331*
X221454Y305464D03*
D418*
X231766Y305464D03*
D436*
X241164Y305464D03*
D247*
X210074Y305566D03*
D256*
X221454Y305566D03*
D201*
X231817Y305566D03*
D235*
X241164Y305566D03*
D431*
X210125Y305667D03*
D256*
X221454Y305667D03*
D201*
X231817Y305667D03*
D235*
X241164Y305667D03*
D431*
X210125Y305769D03*
D256*
X221454Y305769D03*
X231918Y305769D03*
D235*
X241164Y305769D03*
D431*
X210125Y305870D03*
D256*
X221454Y305870D03*
X231918Y305870D03*
D392*
X241215Y305870D03*
D432*
X210125Y305972D03*
D331*
X221352Y305972D03*
D252*
X231969Y305972D03*
D437*
X241215Y305972D03*
D438*
X210176Y306074D03*
D256*
X221352Y306074D03*
X232020Y306074D03*
D392*
X241215Y306074D03*
D431*
X210227Y306175D03*
D256*
X221352Y306175D03*
D328*
X232071Y306175D03*
D227*
X241266Y306175D03*
D431*
X210227Y306277D03*
D256*
X221352Y306277D03*
X232122Y306277D03*
D227*
X241266Y306277D03*
D431*
X210227Y306378D03*
D256*
X221352Y306378D03*
D328*
X232172Y306378D03*
D227*
X241266Y306378D03*
D439*
X210278Y306480D03*
D331*
X221250Y306480D03*
D433*
X232223Y306480D03*
D425*
X241316Y306480D03*
D246*
X210278Y306582D03*
D256*
X221250Y306582D03*
D419*
X232274Y306582D03*
D227*
X241367Y306582D03*
D434*
X210328Y306683D03*
D256*
X221250Y306683D03*
D419*
X232274Y306683D03*
D203*
X240351Y306683D03*
D165*
X244110Y306683D03*
D434*
X210328Y306785D03*
D328*
X221200Y306785D03*
X232376Y306785D03*
D203*
X240351Y306785D03*
D440*
X244212Y306785D03*
D434*
X210328Y306886D03*
D328*
X221200Y306886D03*
X232376Y306886D03*
D203*
X240453Y306886D03*
D441*
X244263Y306886D03*
D435*
X210430Y306988D03*
D433*
X221149Y306988D03*
D252*
X232477Y306988D03*
D442*
X240453Y306988D03*
D443*
X244364Y306988D03*
D434*
X210430Y307090D03*
D201*
X221149Y307090D03*
D328*
X232477Y307090D03*
D203*
X240453Y307090D03*
D444*
X244466Y307090D03*
D434*
X210430Y307191D03*
D201*
X221149Y307191D03*
D328*
X232579Y307191D03*
D296*
X240504Y307191D03*
D445*
X244568Y307191D03*
D434*
X210430Y307293D03*
D201*
X221149Y307293D03*
D328*
X232579Y307293D03*
D296*
X240504Y307293D03*
D391*
X244669Y307293D03*
D246*
X210481Y307394D03*
D201*
X221047Y307394D03*
D328*
X232680Y307394D03*
D203*
X240554Y307394D03*
D393*
X244720Y307394D03*
D435*
X210532Y307496D03*
D433*
X221047Y307496D03*
D422*
X232731Y307496D03*
D208*
X240605Y307496D03*
D446*
X244822Y307496D03*
D434*
X210532Y307598D03*
D201*
X221047Y307598D03*
D419*
X232782Y307598D03*
D296*
X240605Y307598D03*
D398*
X244974Y307598D03*
D434*
X210532Y307699D03*
D201*
X221047Y307699D03*
D248*
X232833Y307699D03*
D296*
X240707Y307699D03*
D399*
X245025Y307699D03*
D246*
X210582Y307801D03*
D259*
X220996Y307801D03*
D328*
X232884Y307801D03*
D296*
X240707Y307801D03*
D246*
X210582Y307902D03*
D256*
X220946Y307902D03*
D248*
X232934Y307902D03*
D296*
X240707Y307902D03*
D439*
X210582Y308004D03*
D331*
X220946Y308004D03*
D422*
X233036Y308004D03*
D208*
X240707Y308004D03*
D438*
X210684Y308106D03*
D256*
X220946Y308106D03*
D248*
X233036Y308106D03*
D300*
X240758Y308106D03*
D438*
X210684Y308207D03*
D332*
X220895Y308207D03*
D248*
X233138Y308207D03*
D296*
X240808Y308207D03*
D438*
X210684Y308309D03*
D332*
X220895Y308309D03*
D186*
X233188Y308309D03*
D300*
X240859Y308309D03*
D438*
X210684Y308410D03*
D332*
X220895Y308410D03*
D248*
X233239Y308410D03*
D300*
X240859Y308410D03*
D447*
X210684Y308512D03*
D331*
X220844Y308512D03*
D448*
X233290Y308512D03*
D206*
X240859Y308512D03*
D246*
X210786Y308614D03*
D256*
X220844Y308614D03*
D248*
X233341Y308614D03*
D303*
X240910Y308614D03*
D246*
X210786Y308715D03*
D332*
X220793Y308715D03*
D186*
X233392Y308715D03*
D300*
X240961Y308715D03*
D246*
X210786Y308817D03*
D332*
X220793Y308817D03*
D186*
X233493Y308817D03*
D303*
X241012Y308817D03*
D246*
X210786Y308918D03*
D332*
X220793Y308918D03*
D248*
X233544Y308918D03*
D303*
X241012Y308918D03*
D449*
X210836Y309020D03*
D450*
X220793Y309020D03*
D326*
X233595Y309020D03*
D451*
X241012Y309020D03*
D246*
X210887Y309122D03*
D256*
X220742Y309122D03*
D186*
X233696Y309122D03*
D403*
X241062Y309122D03*
D246*
X210887Y309223D03*
D259*
X220692Y309223D03*
D186*
X233696Y309223D03*
D281*
X241113Y309223D03*
D246*
X210887Y309325D03*
D259*
X220692Y309325D03*
D452*
X233798Y309325D03*
D403*
X241164Y309325D03*
D246*
X210989Y309426D03*
D259*
X220692Y309426D03*
D186*
X233900Y309426D03*
D403*
X241164Y309426D03*
D439*
X210989Y309528D03*
D418*
X220692Y309528D03*
D326*
X233900Y309528D03*
D279*
X241215Y309528D03*
D246*
X210989Y309630D03*
D201*
X220641Y309630D03*
D186*
X234001Y309630D03*
D205*
X241215Y309630D03*
D246*
X210989Y309731D03*
D259*
X220590Y309731D03*
D440*
X230598Y309731D03*
D416*
X234966Y309731D03*
D403*
X241266Y309731D03*
D246*
X210989Y309833D03*
D259*
X220590Y309833D03*
D441*
X230648Y309833D03*
D194*
X235017Y309833D03*
D205*
X241316Y309833D03*
D453*
X211040Y309934D03*
D259*
X220590Y309934D03*
D380*
X230648Y309934D03*
D194*
X235119Y309934D03*
D205*
X241316Y309934D03*
D439*
X211090Y310036D03*
D433*
X220539Y310036D03*
D443*
X230648Y310036D03*
D251*
X235220Y310036D03*
D454*
X241418Y310036D03*
D246*
X211090Y310138D03*
D259*
X220488Y310138D03*
D383*
X230699Y310138D03*
D455*
X235322Y310138D03*
D212*
X241418Y310138D03*
D453*
X211141Y310239D03*
D259*
X220488Y310239D03*
D444*
X230750Y310239D03*
D414*
X235373Y310239D03*
D307*
X241469Y310239D03*
D453*
X211141Y310341D03*
D259*
X220488Y310341D03*
D445*
X230750Y310341D03*
D414*
X235474Y310341D03*
D307*
X241469Y310341D03*
D453*
X211141Y310442D03*
D259*
X220488Y310442D03*
D456*
X230801Y310442D03*
D414*
X235576Y310442D03*
D311*
X241520Y310442D03*
D447*
X211192Y310544D03*
D450*
X220387Y310544D03*
D457*
X230852Y310544D03*
D222*
X235678Y310544D03*
D309*
X241570Y310544D03*
D453*
X211243Y310646D03*
D332*
X220387Y310646D03*
D393*
X230902Y310646D03*
D258*
X235728Y310646D03*
D307*
X241570Y310646D03*
D453*
X211243Y310747D03*
D332*
X220387Y310747D03*
D458*
X230953Y310747D03*
D414*
X235881Y310747D03*
D311*
X241621Y310747D03*
D453*
X211243Y310849D03*
D332*
X220387Y310849D03*
D459*
X231004Y310849D03*
D357*
X238268Y310849D03*
D453*
X211243Y310950D03*
D332*
X220387Y310950D03*
D357*
X238370Y310950D03*
D449*
X211344Y311052D03*
D460*
X220336Y311052D03*
D356*
X238421Y311052D03*
D453*
X211344Y311154D03*
D332*
X220285Y311154D03*
D354*
X238472Y311154D03*
D453*
X211344Y311255D03*
D332*
X220285Y311255D03*
D385*
X238522Y311255D03*
D453*
X211344Y311357D03*
D332*
X220285Y311357D03*
D350*
X238573Y311357D03*
D453*
X211344Y311458D03*
D332*
X220285Y311458D03*
D350*
X238675Y311458D03*
D449*
X211446Y311560D03*
D461*
X220234Y311560D03*
D330*
X238726Y311560D03*
D453*
X211446Y311662D03*
D261*
X220234Y311662D03*
D319*
X238776Y311662D03*
D453*
X211446Y311763D03*
D259*
X220184Y311763D03*
D314*
X238827Y311763D03*
D453*
X211446Y311865D03*
D259*
X220184Y311865D03*
D174*
X238878Y311865D03*
D161*
X211497Y311966D03*
D259*
X220184Y311966D03*
D174*
X238980Y311966D03*
D449*
X211548Y312068D03*
D461*
X220133Y312068D03*
D369*
X239030Y312068D03*
D453*
X211548Y312170D03*
D261*
X220133Y312170D03*
D176*
X239030Y312170D03*
D453*
X211548Y312271D03*
D259*
X220082Y312271D03*
D301*
X239081Y312271D03*
D161*
X211598Y312373D03*
D259*
X220082Y312373D03*
D301*
X239183Y312373D03*
D453*
X211649Y312474D03*
D259*
X220082Y312474D03*
D178*
X239234Y312474D03*
D449*
X211649Y312576D03*
D461*
X220031Y312576D03*
D342*
X239284Y312576D03*
D453*
X211649Y312678D03*
D259*
X219980Y312678D03*
D340*
X239335Y312678D03*
D462*
X211700Y312779D03*
D259*
X219980Y312779D03*
D340*
X239437Y312779D03*
D462*
X211700Y312881D03*
D261*
X219930Y312881D03*
D182*
X239488Y312881D03*
D453*
X211751Y312982D03*
D261*
X219930Y312982D03*
D282*
X239538Y312982D03*
D449*
X211751Y313084D03*
D461*
X219930Y313084D03*
D278*
X239589Y313084D03*
D161*
X211802Y313186D03*
D332*
X219879Y313186D03*
D410*
X239640Y313186D03*
D161*
X211802Y313287D03*
D332*
X219879Y313287D03*
D410*
X239742Y313287D03*
D161*
X211802Y313389D03*
D333*
X219828Y313389D03*
D273*
X239792Y313389D03*
D161*
X211802Y313490D03*
D333*
X219828Y313490D03*
D270*
X239843Y313490D03*
D449*
X211852Y313592D03*
D460*
X219828Y313592D03*
D461*
X239945Y313592D03*
D161*
X211903Y313694D03*
D333*
X219828Y313694D03*
D259*
X239996Y313694D03*
D161*
X211903Y313795D03*
D332*
X219777Y313795D03*
X240097Y313795D03*
D161*
X211903Y313897D03*
D332*
X219777Y313897D03*
D256*
X240148Y313897D03*
D453*
X211954Y313998D03*
D261*
X219726Y313998D03*
D328*
X240199Y313998D03*
D463*
X212005Y314100D03*
D461*
X219726Y314100D03*
D422*
X240250Y314100D03*
D161*
X212005Y314202D03*
D261*
X219726Y314202D03*
D186*
X240300Y314202D03*
D161*
X212005Y314303D03*
D261*
X219726Y314303D03*
D452*
X240402Y314303D03*
D161*
X212005Y314405D03*
D261*
X219625Y314405D03*
D204*
X240453Y314405D03*
D162*
X212056Y314506D03*
D261*
X219625Y314506D03*
D390*
X240504Y314506D03*
D463*
X212106Y314608D03*
D461*
X219625Y314608D03*
D207*
X240554Y314608D03*
D161*
X212106Y314710D03*
D261*
X219625Y314710D03*
D464*
X240656Y314710D03*
D164*
X212157Y314811D03*
D261*
X219625Y314811D03*
D239*
X240707Y314811D03*
D462*
X212208Y314913D03*
D261*
X219625Y314913D03*
D213*
X240808Y314913D03*
D462*
X212208Y315014D03*
D261*
X219523Y315014D03*
D215*
X240859Y315014D03*
D465*
X212208Y315116D03*
D461*
X219523Y315116D03*
D428*
X240961Y315116D03*
D164*
X212259Y315218D03*
D261*
X219523Y315218D03*
D218*
X241012Y315218D03*
D164*
X212259Y315319D03*
D261*
X219523Y315319D03*
D225*
X241062Y315319D03*
D164*
X212259Y315421D03*
D261*
X219422Y315421D03*
D235*
X241164Y315421D03*
D161*
X212310Y315522D03*
D261*
X219422Y315522D03*
D392*
X241215Y315522D03*
D463*
X212310Y315624D03*
D461*
X219422Y315624D03*
D190*
X241367Y315624D03*
D162*
X212360Y315726D03*
D261*
X219422Y315726D03*
D242*
X241418Y315726D03*
D162*
X212360Y315827D03*
D334*
X219371Y315827D03*
D308*
X241469Y315827D03*
D162*
X212360Y315929D03*
D333*
X219320Y315929D03*
D416*
X241570Y315929D03*
D161*
X212411Y316030D03*
D333*
X219320Y316030D03*
D416*
X241672Y316030D03*
D163*
X212462Y316132D03*
D460*
X219320Y316132D03*
D222*
X241774Y316132D03*
D162*
X212462Y316234D03*
D333*
X219320Y316234D03*
D258*
X241824Y316234D03*
D162*
X212462Y316335D03*
D333*
X219320Y316335D03*
D466*
X241875Y316335D03*
D162*
X212462Y316437D03*
D261*
X219218Y316437D03*
D216*
X241977Y316437D03*
D161*
X212513Y316538D03*
D261*
X219218Y316538D03*
D216*
X242078Y316538D03*
D163*
X212564Y316640D03*
D461*
X219218Y316640D03*
D467*
X242180Y316640D03*
D162*
X212564Y316742D03*
D261*
X219218Y316742D03*
D295*
X242282Y316742D03*
D162*
X212564Y316843D03*
D261*
X219218Y316843D03*
D280*
X242332Y316843D03*
D165*
X212614Y316945D03*
D334*
X219168Y316945D03*
D200*
X242434Y316945D03*
D165*
X212614Y317046D03*
D261*
X219117Y317046D03*
D286*
X242536Y317046D03*
D166*
X212665Y317148D03*
D461*
X219117Y317148D03*
D289*
X242586Y317148D03*
D164*
X212665Y317250D03*
D261*
X219117Y317250D03*
D285*
X242688Y317250D03*
D165*
X212716Y317351D03*
D334*
X219066Y317351D03*
D296*
X242840Y317351D03*
D165*
X212716Y317453D03*
D334*
X219066Y317453D03*
D303*
X242942Y317453D03*
D164*
X212767Y317554D03*
D334*
X219066Y317554D03*
D209*
X242993Y317554D03*
D166*
X212767Y317656D03*
D461*
X219015Y317656D03*
D279*
X243044Y317656D03*
D165*
X212818Y317758D03*
D334*
X218964Y317758D03*
D311*
X243145Y317758D03*
D165*
X212818Y317859D03*
D334*
X218964Y317859D03*
D275*
X243298Y317859D03*
D162*
X212868Y317961D03*
D334*
X218964Y317961D03*
D232*
X243348Y317961D03*
D162*
X212868Y318062D03*
D270*
X218914Y318062D03*
D254*
X243450Y318062D03*
D163*
X212868Y318164D03*
D413*
X218914Y318164D03*
D276*
X243501Y318164D03*
D171*
X212919Y318266D03*
D334*
X218863Y318266D03*
D304*
X243602Y318266D03*
D162*
X212970Y318367D03*
D334*
X218863Y318367D03*
D322*
X243755Y318367D03*
D468*
X217745Y318469D03*
D170*
X243856Y318469D03*
D362*
X217694Y318570D03*
D338*
X243907Y318570D03*
D359*
X217745Y318672D03*
D349*
X244009Y318672D03*
D357*
X217745Y318774D03*
D168*
X244110Y318774D03*
D357*
X217745Y318875D03*
D361*
X244212Y318875D03*
D357*
X217745Y318977D03*
D400*
X244314Y318977D03*
D469*
X217796Y319078D03*
D249*
X244415Y319078D03*
D388*
X217745Y319180D03*
D427*
X244517Y319180D03*
D381*
X217745Y319282D03*
D246*
X244618Y319282D03*
D385*
X217796Y319383D03*
D438*
X244720Y319383D03*
D385*
X217796Y319485D03*
D161*
X244822Y319485D03*
D385*
X217796Y319586D03*
D171*
X244923Y319586D03*
D470*
X217796Y319688D03*
D378*
X245025Y319688D03*
D327*
X217796Y319790D03*
D441*
X245177Y319790D03*
D327*
X217796Y319891D03*
D471*
X245279Y319891D03*
D327*
X217796Y319993D03*
D444*
X245380Y319993D03*
D327*
X217796Y320094D03*
D445*
X245482Y320094D03*
D330*
X217796Y320196D03*
D472*
X245634Y320196D03*
D319*
X217847Y320298D03*
D394*
X245787Y320298D03*
D317*
X217796Y320399D03*
D398*
X245888Y320399D03*
D317*
X217796Y320501D03*
X217796Y320602D03*
D310*
X217847Y320704D03*
D312*
X217847Y320806D03*
X217847Y320907D03*
D195*
X217796Y321009D03*
D301*
X217847Y321110D03*
D306*
X217847Y321212D03*
D301*
X217847Y321314D03*
D293*
X217847Y321415D03*
X217847Y321517D03*
X217847Y321618D03*
D179*
X217847Y321720D03*
D291*
X217898Y321822D03*
D182*
X217847Y321923D03*
X217847Y322025D03*
X217847Y322126D03*
D473*
X217898Y322228D03*
D282*
X217898Y322330D03*
X217898Y322431D03*
D198*
X217847Y322533D03*
D410*
X217898Y322634D03*
D474*
X217898Y322736D03*
D273*
X217948Y322838D03*
X217948Y322939D03*
X217948Y323041D03*
D334*
X217948Y323142D03*
D461*
X217999Y323244D03*
D259*
X218050Y323346D03*
X218050Y323447D03*
D201*
X218101Y323549D03*
D328*
X218152Y323650D03*
D422*
X218202Y323752D03*
D325*
X218202Y323854D03*
D324*
X218253Y323955D03*
D239*
X218355Y324057D03*
D210*
X218406Y324158D03*
D221*
X218456Y324260D03*
D228*
X218456Y324362D03*
D194*
X218456Y324463D03*
D343*
X217390Y324565D03*
D475*
X46000Y80000D03*
X46000Y130000D03*
D160*
X63000Y840000D03*
X72500Y816000D03*
X53500Y816000D03*
D14*
X57500Y873000D03*
X74500Y873000D03*
D18*
X20500Y873000D03*
X41500Y873000D03*
D476*
X432000Y29000D03*
X38000Y966000D03*
M02*
