M48
;GenerationSoftware,Autodesk,EAGLE,9.6.1*%
;CreationDate,2020-05-19T06:38:24Z*%
FMAT,2
ICI,OFF
METRIC,TZ,000.000
T11C0.350
T10C0.450
T9C0.500
T8C0.800
T7C1.000
T6C1.016
T5C1.200
T4C1.300
T3C1.600
T2C2.000
T1C3.000
%
G90
M71
T1
X3800Y96600
X43200Y2900
T2
X33600Y19900
X33600Y91300
X11900Y19800
X11900Y91200
T3
X43300Y21350
X21600Y21250
T4
X19900Y10600
X14900Y10600
T5
X39600Y10900
X25600Y10900
X29100Y10900
X32600Y10900
X36100Y10900
X43100Y10900
T6
X40854Y39240
X40600Y36700
X40600Y41780
X40854Y44320
X2800Y65700
X2800Y68240
X2800Y70780
X2800Y73320
X2800Y75860
X2800Y78400
T7
X8300Y5100
X3900Y5100
X26350Y91330
X23810Y91330
X21270Y91330
X18730Y91330
T8
X10500Y81500
X15500Y81500
T9
X17400Y27400
X5600Y53800
X22900Y15900
T10
X19200Y55200
X17900Y35600
X33200Y71700
T11
X12400Y62600
X17600Y61200
X15600Y65500
X17300Y65500
X21300Y66400
X20700Y54900
X22100Y54900
X23500Y54900
X33800Y56300
X32600Y56300
X31300Y56300
X40400Y57000
X39100Y57000
X40400Y70400
X37100Y70300
X34000Y70400
X39000Y88600
X39000Y83700
X43100Y83700
X43000Y88800
X43000Y90200
X43000Y91600
X43000Y93000
X1200Y82700
X9500Y62700
X1600Y89200
X7000Y89200
X19700Y52700
X21500Y52700
X23300Y52700
X24900Y52700
X26700Y5600
X31000Y5600
X34500Y5600
X38000Y5600
X36400Y28100
X35000Y28100
X44400Y27900
X44300Y26500
X44300Y24900
X35200Y37200
X36500Y37100
X41500Y48800
X41500Y47800
X36100Y53500
X36100Y52300
X24200Y39900
X24200Y38700
X24200Y20300
X29900Y20400
X29900Y21900
X29900Y23400
X29900Y24900
X10400Y41100
X9100Y41100
X7700Y41100
X11100Y36900
X30500Y17300
X28900Y17300
X27200Y17300
X42900Y17300
X42900Y18700
X4000Y2100
X8200Y2100
X6100Y3800
X39500Y30600
X41100Y30600
X25300Y17300
X39000Y89800
X7200Y49500
X13000Y81500
X13000Y84900
X39000Y78200
X31500Y81800
X31600Y75200
X44900Y67900
X1000Y58700
X13000Y83200
X13000Y79800
X13000Y78200
X11400Y4700
X13200Y34000
X13200Y33100
X12300Y34000
X11400Y34000
X10500Y34000
X12300Y33100
X12300Y32200
X13200Y32200
X17900Y14900
X17900Y15900
X17900Y13800
X12700Y4700
X1800Y10300
X1800Y4900
X7000Y53100
X11100Y54200
X2000Y48800
X39400Y27500
X31250Y51550
X39000Y52000
X35800Y40900
X36300Y44300
X30100Y50300
X29100Y52400
X38600Y26300
X37300Y49900
X37000Y41800
X12800Y52500
X10000Y46400
X7400Y46300
X13100Y53700
X20900Y74100
X21000Y76400
X21000Y78700
X9300Y12100
X10300Y12100
X10300Y11100
X10300Y10100
X9300Y11100
X9300Y10100
X8300Y10100
X1700Y34700
X6100Y2100
X29700Y73800
X31000Y83800
X4100Y51900
X8500Y21200
X9300Y15200
X6900Y56000
X4700Y35800
X7500Y16900
X12900Y16800
X34700Y26300
X14500Y64600
X8300Y57600
X21500Y13500
X4200Y53900
X7200Y54600
X1400Y20300
X1400Y16100
X22100Y25000
X8700Y58700
X18200Y42800
X16700Y57500
X14400Y55400
X1400Y19000
X16400Y14000
X11000Y26800
X9600Y26800
X43800Y97400
X8200Y26800
X1400Y29900
X1400Y31800
X1400Y33500
X8500Y35000
X7100Y36000
X1700Y39400
X1700Y41100
X1700Y42700
X11200Y44300
X11200Y45900
X12700Y47600
X11200Y47600
X12700Y49200
X11200Y49200
X8300Y52500
X8000Y50800
X4900Y64100
X4200Y67100
X8100Y62700
X12400Y59700
X10900Y59700
X8100Y61100
X9500Y61100
X10900Y61100
X12400Y61100
X3000Y34900
M30