G04 EAGLE Gerber RS-274X export*
G75*
%MOMM*%
%FSLAX34Y34*%
%LPD*%
%INSolder side*%
%IPPOS*%
%AMOC8*
5,1,8,0,0,1.08239X$1,22.5*%
G01*
%ADD10R,2.000000X2.400000*%
%ADD11R,0.500000X2.308000*%
%ADD12R,0.830000X0.630000*%
%ADD13R,1.524000X4.064000*%
%ADD14C,3.000000*%
%ADD15R,1.100000X1.000000*%
%ADD16R,2.032000X2.032000*%
%ADD17C,2.032000*%
%ADD18C,1.524000*%
%ADD19C,1.879600*%
%ADD20C,1.778000*%
%ADD21C,1.308000*%
%ADD22R,1.308000X1.308000*%
%ADD23C,0.756400*%
%ADD24C,4.016000*%
%ADD25C,0.812800*%
%ADD26C,0.906400*%
%ADD27C,0.856400*%
%ADD28C,0.406400*%
%ADD29C,0.254000*%
%ADD30C,0.304800*%

G36*
X90446Y5083D02*
X90446Y5083D01*
X90464Y5081D01*
X90646Y5102D01*
X90829Y5121D01*
X90846Y5126D01*
X90863Y5128D01*
X91038Y5185D01*
X91214Y5239D01*
X91229Y5247D01*
X91246Y5253D01*
X91406Y5343D01*
X91568Y5431D01*
X91581Y5442D01*
X91597Y5451D01*
X91736Y5571D01*
X91877Y5688D01*
X91888Y5702D01*
X91902Y5714D01*
X92014Y5859D01*
X92129Y6002D01*
X92137Y6018D01*
X92148Y6032D01*
X92230Y6197D01*
X92315Y6359D01*
X92320Y6376D01*
X92328Y6392D01*
X92375Y6571D01*
X92426Y6746D01*
X92428Y6764D01*
X92432Y6781D01*
X92459Y7112D01*
X92459Y34052D01*
X93948Y35541D01*
X116052Y35541D01*
X117541Y34052D01*
X117541Y7157D01*
X117550Y7060D01*
X117550Y6962D01*
X117570Y6860D01*
X117581Y6756D01*
X117609Y6663D01*
X117628Y6567D01*
X117668Y6471D01*
X117699Y6371D01*
X117745Y6285D01*
X117783Y6195D01*
X117841Y6109D01*
X117891Y6017D01*
X117953Y5943D01*
X118008Y5861D01*
X118082Y5788D01*
X118148Y5708D01*
X118224Y5647D01*
X118294Y5578D01*
X118381Y5521D01*
X118462Y5456D01*
X118549Y5411D01*
X118630Y5357D01*
X118727Y5318D01*
X118819Y5270D01*
X118913Y5243D01*
X119004Y5207D01*
X119106Y5188D01*
X119206Y5159D01*
X119304Y5151D01*
X119400Y5133D01*
X119527Y5133D01*
X119608Y5126D01*
X119660Y5132D01*
X119731Y5132D01*
X121176Y5246D01*
X121248Y5259D01*
X121321Y5262D01*
X121486Y5302D01*
X121572Y5317D01*
X121603Y5329D01*
X121644Y5339D01*
X125479Y6585D01*
X125619Y6646D01*
X125761Y6701D01*
X125809Y6730D01*
X125847Y6747D01*
X125918Y6796D01*
X126045Y6873D01*
X129307Y9243D01*
X129421Y9345D01*
X129540Y9441D01*
X129576Y9483D01*
X129608Y9511D01*
X129660Y9580D01*
X129757Y9693D01*
X132127Y12955D01*
X132204Y13087D01*
X132287Y13215D01*
X132308Y13266D01*
X132330Y13303D01*
X132358Y13384D01*
X132415Y13521D01*
X133661Y17356D01*
X133677Y17428D01*
X133701Y17497D01*
X133728Y17664D01*
X133747Y17750D01*
X133748Y17783D01*
X133754Y17825D01*
X133913Y19841D01*
X133912Y19907D01*
X133919Y20000D01*
X133919Y28972D01*
X136374Y36528D01*
X141044Y42956D01*
X147472Y47626D01*
X155028Y50081D01*
X389972Y50081D01*
X397528Y47626D01*
X403956Y42956D01*
X408626Y36528D01*
X411081Y28972D01*
X411081Y20000D01*
X411087Y19934D01*
X411087Y19841D01*
X411246Y17825D01*
X411259Y17752D01*
X411262Y17679D01*
X411301Y17514D01*
X411317Y17428D01*
X411329Y17397D01*
X411339Y17356D01*
X412585Y13521D01*
X412646Y13381D01*
X412701Y13239D01*
X412730Y13191D01*
X412747Y13153D01*
X412796Y13082D01*
X412873Y12955D01*
X415243Y9693D01*
X415345Y9579D01*
X415441Y9460D01*
X415483Y9424D01*
X415511Y9392D01*
X415580Y9340D01*
X415693Y9243D01*
X418955Y6873D01*
X419087Y6796D01*
X419215Y6713D01*
X419266Y6692D01*
X419303Y6670D01*
X419384Y6642D01*
X419521Y6585D01*
X423356Y5339D01*
X423428Y5323D01*
X423497Y5299D01*
X423664Y5272D01*
X423750Y5253D01*
X423783Y5252D01*
X423824Y5246D01*
X425841Y5087D01*
X425907Y5088D01*
X426000Y5081D01*
X440000Y5081D01*
X440066Y5087D01*
X440159Y5087D01*
X442175Y5246D01*
X442248Y5259D01*
X442321Y5262D01*
X442486Y5301D01*
X442572Y5317D01*
X442603Y5329D01*
X442644Y5339D01*
X446479Y6585D01*
X446619Y6646D01*
X446761Y6701D01*
X446809Y6730D01*
X446847Y6747D01*
X446918Y6796D01*
X447045Y6873D01*
X450307Y9243D01*
X450421Y9345D01*
X450540Y9441D01*
X450576Y9483D01*
X450608Y9511D01*
X450660Y9580D01*
X450757Y9693D01*
X453127Y12955D01*
X453204Y13087D01*
X453287Y13215D01*
X453308Y13266D01*
X453330Y13303D01*
X453358Y13384D01*
X453415Y13521D01*
X454661Y17356D01*
X454677Y17428D01*
X454701Y17497D01*
X454728Y17664D01*
X454747Y17750D01*
X454748Y17783D01*
X454754Y17825D01*
X454913Y19841D01*
X454912Y19907D01*
X454919Y20000D01*
X454919Y970000D01*
X454914Y970056D01*
X454915Y970133D01*
X454719Y973120D01*
X454714Y973153D01*
X454714Y973187D01*
X454654Y973513D01*
X453108Y979285D01*
X453073Y979378D01*
X453047Y979475D01*
X452994Y979587D01*
X452966Y979661D01*
X452937Y979708D01*
X452905Y979774D01*
X449917Y984949D01*
X449859Y985030D01*
X449809Y985117D01*
X449729Y985211D01*
X449683Y985276D01*
X449642Y985313D01*
X449595Y985370D01*
X445370Y989595D01*
X445292Y989658D01*
X445222Y989729D01*
X445120Y989799D01*
X445058Y989850D01*
X445010Y989875D01*
X444949Y989917D01*
X439774Y992905D01*
X439683Y992946D01*
X439597Y992996D01*
X439480Y993038D01*
X439408Y993071D01*
X439354Y993083D01*
X439285Y993108D01*
X433513Y994654D01*
X433480Y994660D01*
X433449Y994670D01*
X433120Y994719D01*
X431709Y994812D01*
X431625Y994809D01*
X431540Y994816D01*
X431424Y994802D01*
X431306Y994798D01*
X431224Y994779D01*
X431141Y994769D01*
X431029Y994732D01*
X430915Y994705D01*
X430838Y994670D01*
X430758Y994644D01*
X430656Y994586D01*
X430549Y994537D01*
X430481Y994487D01*
X430407Y994446D01*
X430318Y994369D01*
X430223Y994300D01*
X430166Y994238D01*
X430102Y994183D01*
X430031Y994090D01*
X429951Y994004D01*
X429907Y993931D01*
X429856Y993865D01*
X429803Y993760D01*
X429743Y993659D01*
X429714Y993580D01*
X429676Y993504D01*
X429646Y993391D01*
X429606Y993280D01*
X429594Y993197D01*
X429572Y993115D01*
X429560Y992967D01*
X429547Y992882D01*
X429549Y992840D01*
X429545Y992785D01*
X429545Y977489D01*
X422178Y977489D01*
X422160Y977487D01*
X422143Y977489D01*
X421960Y977468D01*
X421778Y977449D01*
X421761Y977444D01*
X421743Y977442D01*
X421568Y977385D01*
X421393Y977331D01*
X421377Y977323D01*
X421360Y977317D01*
X421200Y977227D01*
X421039Y977139D01*
X421025Y977128D01*
X421009Y977119D01*
X420870Y976999D01*
X420729Y976882D01*
X420718Y976868D01*
X420705Y976856D01*
X420592Y976711D01*
X420477Y976568D01*
X420469Y976552D01*
X420458Y976538D01*
X420399Y976421D01*
X420391Y976436D01*
X420303Y976598D01*
X420292Y976611D01*
X420283Y976627D01*
X420163Y976766D01*
X420045Y976907D01*
X420032Y976918D01*
X420020Y976932D01*
X419875Y977044D01*
X419732Y977159D01*
X419716Y977167D01*
X419702Y977178D01*
X419537Y977260D01*
X419374Y977345D01*
X419357Y977350D01*
X419341Y977358D01*
X419163Y977405D01*
X418988Y977456D01*
X418970Y977458D01*
X418953Y977462D01*
X418622Y977489D01*
X411255Y977489D01*
X411255Y992888D01*
X411253Y992906D01*
X411255Y992924D01*
X411234Y993106D01*
X411215Y993289D01*
X411210Y993306D01*
X411208Y993323D01*
X411151Y993498D01*
X411097Y993674D01*
X411089Y993689D01*
X411083Y993706D01*
X410993Y993866D01*
X410905Y994028D01*
X410894Y994041D01*
X410885Y994057D01*
X410765Y994196D01*
X410648Y994337D01*
X410634Y994348D01*
X410622Y994362D01*
X410477Y994474D01*
X410334Y994589D01*
X410318Y994597D01*
X410304Y994608D01*
X410139Y994690D01*
X409977Y994775D01*
X409960Y994780D01*
X409944Y994788D01*
X409765Y994835D01*
X409590Y994886D01*
X409572Y994888D01*
X409555Y994892D01*
X409224Y994919D01*
X380776Y994919D01*
X380758Y994917D01*
X380740Y994919D01*
X380558Y994898D01*
X380375Y994879D01*
X380358Y994874D01*
X380341Y994872D01*
X380166Y994815D01*
X379990Y994761D01*
X379975Y994753D01*
X379958Y994747D01*
X379798Y994657D01*
X379636Y994569D01*
X379623Y994558D01*
X379607Y994549D01*
X379468Y994429D01*
X379327Y994312D01*
X379316Y994298D01*
X379302Y994286D01*
X379190Y994141D01*
X379075Y993998D01*
X379067Y993982D01*
X379056Y993968D01*
X378974Y993803D01*
X378889Y993641D01*
X378884Y993624D01*
X378876Y993608D01*
X378829Y993429D01*
X378778Y993254D01*
X378776Y993236D01*
X378772Y993219D01*
X378745Y992888D01*
X378745Y977489D01*
X371378Y977489D01*
X371360Y977487D01*
X371343Y977489D01*
X371160Y977468D01*
X370978Y977449D01*
X370961Y977444D01*
X370943Y977442D01*
X370768Y977385D01*
X370593Y977331D01*
X370577Y977323D01*
X370560Y977317D01*
X370400Y977227D01*
X370239Y977139D01*
X370225Y977128D01*
X370209Y977119D01*
X370070Y976999D01*
X369929Y976882D01*
X369918Y976868D01*
X369905Y976856D01*
X369792Y976711D01*
X369677Y976568D01*
X369669Y976552D01*
X369658Y976538D01*
X369599Y976421D01*
X369591Y976436D01*
X369503Y976598D01*
X369492Y976611D01*
X369483Y976627D01*
X369363Y976766D01*
X369245Y976907D01*
X369232Y976918D01*
X369220Y976932D01*
X369075Y977044D01*
X368932Y977159D01*
X368916Y977167D01*
X368902Y977178D01*
X368737Y977260D01*
X368574Y977345D01*
X368557Y977350D01*
X368541Y977358D01*
X368363Y977405D01*
X368188Y977456D01*
X368170Y977458D01*
X368153Y977462D01*
X367822Y977489D01*
X360455Y977489D01*
X360455Y992888D01*
X360453Y992906D01*
X360455Y992924D01*
X360434Y993106D01*
X360415Y993289D01*
X360410Y993306D01*
X360408Y993323D01*
X360351Y993498D01*
X360297Y993674D01*
X360289Y993689D01*
X360283Y993706D01*
X360193Y993866D01*
X360105Y994028D01*
X360094Y994041D01*
X360085Y994057D01*
X359965Y994196D01*
X359848Y994337D01*
X359834Y994348D01*
X359822Y994362D01*
X359677Y994474D01*
X359534Y994589D01*
X359518Y994597D01*
X359504Y994608D01*
X359339Y994690D01*
X359177Y994775D01*
X359160Y994780D01*
X359144Y994788D01*
X358965Y994835D01*
X358790Y994886D01*
X358772Y994888D01*
X358755Y994892D01*
X358424Y994919D01*
X30000Y994919D01*
X29944Y994914D01*
X29867Y994915D01*
X26880Y994719D01*
X26847Y994714D01*
X26813Y994714D01*
X26487Y994654D01*
X20715Y993108D01*
X20622Y993073D01*
X20525Y993047D01*
X20413Y992994D01*
X20339Y992966D01*
X20292Y992937D01*
X20226Y992905D01*
X15051Y989917D01*
X14970Y989859D01*
X14883Y989809D01*
X14789Y989729D01*
X14724Y989683D01*
X14687Y989642D01*
X14630Y989595D01*
X10405Y985370D01*
X10342Y985292D01*
X10271Y985222D01*
X10201Y985120D01*
X10150Y985058D01*
X10125Y985010D01*
X10083Y984949D01*
X7095Y979774D01*
X7054Y979683D01*
X7004Y979597D01*
X6962Y979480D01*
X6929Y979408D01*
X6917Y979354D01*
X6892Y979285D01*
X5346Y973513D01*
X5340Y973480D01*
X5330Y973449D01*
X5281Y973120D01*
X5085Y970133D01*
X5087Y970076D01*
X5081Y970000D01*
X5081Y706374D01*
X5082Y706365D01*
X5081Y706356D01*
X5102Y706163D01*
X5121Y705973D01*
X5123Y705965D01*
X5124Y705956D01*
X5183Y705771D01*
X5239Y705588D01*
X5243Y705580D01*
X5246Y705572D01*
X5339Y705404D01*
X5431Y705234D01*
X5436Y705227D01*
X5441Y705220D01*
X5565Y705072D01*
X5688Y704925D01*
X5695Y704919D01*
X5701Y704913D01*
X5853Y704793D01*
X6002Y704673D01*
X6010Y704668D01*
X6017Y704663D01*
X6190Y704575D01*
X6359Y704487D01*
X6368Y704485D01*
X6376Y704481D01*
X6562Y704429D01*
X6746Y704376D01*
X6755Y704375D01*
X6764Y704373D01*
X6957Y704358D01*
X7148Y704343D01*
X7156Y704344D01*
X7165Y704343D01*
X7358Y704367D01*
X7547Y704390D01*
X7556Y704392D01*
X7565Y704394D01*
X7747Y704455D01*
X7930Y704515D01*
X7938Y704519D01*
X7946Y704522D01*
X8113Y704618D01*
X8281Y704712D01*
X8288Y704718D01*
X8295Y704723D01*
X8548Y704937D01*
X12394Y708783D01*
X12394Y708784D01*
X15222Y711611D01*
X15299Y711611D01*
X15321Y711613D01*
X15343Y711611D01*
X15521Y711633D01*
X15699Y711651D01*
X15721Y711657D01*
X15743Y711660D01*
X15914Y711716D01*
X16084Y711769D01*
X16104Y711779D01*
X16125Y711786D01*
X16281Y711875D01*
X16438Y711961D01*
X16455Y711975D01*
X16475Y711986D01*
X16610Y712104D01*
X16748Y712218D01*
X16762Y712236D01*
X16778Y712250D01*
X16888Y712393D01*
X17000Y712532D01*
X17010Y712552D01*
X17024Y712569D01*
X17175Y712865D01*
X17879Y714563D01*
X21237Y717921D01*
X22933Y718623D01*
X22940Y718628D01*
X22949Y718630D01*
X23117Y718722D01*
X23287Y718814D01*
X23294Y718819D01*
X23302Y718824D01*
X23449Y718947D01*
X23598Y719070D01*
X23603Y719077D01*
X23610Y719083D01*
X23730Y719233D01*
X23852Y719383D01*
X23856Y719391D01*
X23861Y719397D01*
X23949Y719568D01*
X24039Y719739D01*
X24041Y719748D01*
X24045Y719756D01*
X24097Y719939D01*
X24152Y720125D01*
X24152Y720135D01*
X24155Y720143D01*
X24170Y720334D01*
X24186Y720527D01*
X24185Y720536D01*
X24186Y720544D01*
X24163Y720735D01*
X24141Y720927D01*
X24138Y720935D01*
X24137Y720944D01*
X24077Y721127D01*
X24018Y721310D01*
X24014Y721318D01*
X24011Y721326D01*
X23915Y721494D01*
X23822Y721661D01*
X23816Y721668D01*
X23811Y721676D01*
X23685Y721821D01*
X23560Y721967D01*
X23553Y721973D01*
X23547Y721980D01*
X23394Y722097D01*
X23243Y722216D01*
X23235Y722220D01*
X23228Y722225D01*
X22933Y722377D01*
X21237Y723079D01*
X17879Y726437D01*
X16061Y730825D01*
X16061Y735575D01*
X17879Y739963D01*
X21237Y743321D01*
X22933Y744023D01*
X22940Y744028D01*
X22949Y744030D01*
X23117Y744122D01*
X23287Y744214D01*
X23294Y744219D01*
X23302Y744224D01*
X23449Y744347D01*
X23598Y744470D01*
X23603Y744477D01*
X23610Y744483D01*
X23730Y744633D01*
X23852Y744783D01*
X23856Y744791D01*
X23861Y744797D01*
X23949Y744968D01*
X24039Y745139D01*
X24041Y745148D01*
X24045Y745156D01*
X24097Y745339D01*
X24152Y745525D01*
X24152Y745535D01*
X24155Y745543D01*
X24170Y745734D01*
X24186Y745927D01*
X24185Y745936D01*
X24186Y745944D01*
X24163Y746135D01*
X24141Y746327D01*
X24138Y746335D01*
X24137Y746344D01*
X24077Y746526D01*
X24018Y746710D01*
X24014Y746718D01*
X24011Y746726D01*
X23915Y746894D01*
X23822Y747061D01*
X23816Y747068D01*
X23811Y747076D01*
X23685Y747221D01*
X23560Y747367D01*
X23553Y747373D01*
X23547Y747380D01*
X23394Y747497D01*
X23243Y747616D01*
X23235Y747620D01*
X23228Y747625D01*
X22933Y747777D01*
X21237Y748479D01*
X17879Y751837D01*
X16061Y756225D01*
X16061Y760975D01*
X17879Y765363D01*
X21237Y768721D01*
X21883Y768989D01*
X22933Y769423D01*
X22940Y769428D01*
X22949Y769430D01*
X23117Y769522D01*
X23287Y769614D01*
X23294Y769619D01*
X23302Y769624D01*
X23449Y769747D01*
X23598Y769870D01*
X23603Y769877D01*
X23610Y769883D01*
X23730Y770033D01*
X23852Y770183D01*
X23856Y770191D01*
X23861Y770197D01*
X23949Y770368D01*
X24039Y770539D01*
X24041Y770548D01*
X24045Y770556D01*
X24097Y770739D01*
X24152Y770925D01*
X24152Y770935D01*
X24155Y770943D01*
X24170Y771134D01*
X24186Y771327D01*
X24185Y771336D01*
X24186Y771344D01*
X24163Y771535D01*
X24141Y771727D01*
X24138Y771735D01*
X24137Y771744D01*
X24077Y771927D01*
X24018Y772110D01*
X24014Y772118D01*
X24011Y772126D01*
X23915Y772294D01*
X23822Y772461D01*
X23816Y772468D01*
X23811Y772476D01*
X23685Y772621D01*
X23560Y772767D01*
X23553Y772773D01*
X23547Y772780D01*
X23394Y772897D01*
X23243Y773016D01*
X23235Y773020D01*
X23228Y773025D01*
X22933Y773177D01*
X21237Y773879D01*
X17879Y777237D01*
X16061Y781625D01*
X16061Y786375D01*
X17879Y790763D01*
X21237Y794121D01*
X25625Y795939D01*
X30375Y795939D01*
X34763Y794121D01*
X38121Y790763D01*
X39939Y786375D01*
X39939Y783292D01*
X39941Y783265D01*
X39939Y783238D01*
X39961Y783065D01*
X39979Y782891D01*
X39986Y782866D01*
X39990Y782839D01*
X40045Y782673D01*
X40097Y782506D01*
X40110Y782483D01*
X40118Y782457D01*
X40205Y782306D01*
X40289Y782152D01*
X40306Y782132D01*
X40319Y782108D01*
X40534Y781855D01*
X66984Y755406D01*
X67004Y755389D01*
X67022Y755368D01*
X67160Y755261D01*
X67295Y755151D01*
X67319Y755138D01*
X67340Y755122D01*
X67497Y755044D01*
X67651Y754962D01*
X67676Y754954D01*
X67700Y754942D01*
X67870Y754897D01*
X68037Y754847D01*
X68063Y754845D01*
X68089Y754838D01*
X68420Y754811D01*
X171580Y754811D01*
X171607Y754813D01*
X171633Y754811D01*
X171807Y754833D01*
X171981Y754851D01*
X172006Y754858D01*
X172033Y754862D01*
X172199Y754917D01*
X172366Y754969D01*
X172389Y754982D01*
X172415Y754990D01*
X172566Y755077D01*
X172720Y755161D01*
X172740Y755178D01*
X172763Y755191D01*
X173016Y755406D01*
X203082Y785472D01*
X203099Y785492D01*
X203120Y785510D01*
X203227Y785648D01*
X203337Y785783D01*
X203350Y785807D01*
X203366Y785828D01*
X203444Y785985D01*
X203526Y786139D01*
X203534Y786164D01*
X203546Y786188D01*
X203591Y786358D01*
X203641Y786525D01*
X203643Y786551D01*
X203650Y786577D01*
X203677Y786908D01*
X203677Y788258D01*
X204640Y790582D01*
X206418Y792360D01*
X208742Y793323D01*
X211258Y793323D01*
X213582Y792360D01*
X215360Y790582D01*
X216323Y788258D01*
X216323Y785742D01*
X215360Y783418D01*
X213582Y781640D01*
X211258Y780677D01*
X209908Y780677D01*
X209881Y780675D01*
X209855Y780677D01*
X209681Y780655D01*
X209507Y780637D01*
X209482Y780630D01*
X209455Y780626D01*
X209289Y780571D01*
X209122Y780519D01*
X209099Y780506D01*
X209073Y780498D01*
X208922Y780411D01*
X208768Y780327D01*
X208748Y780310D01*
X208725Y780297D01*
X208472Y780082D01*
X177667Y749278D01*
X177662Y749271D01*
X177655Y749266D01*
X177535Y749116D01*
X177412Y748967D01*
X177408Y748959D01*
X177403Y748952D01*
X177314Y748781D01*
X177224Y748611D01*
X177221Y748603D01*
X177217Y748595D01*
X177164Y748409D01*
X177109Y748225D01*
X177108Y748216D01*
X177106Y748208D01*
X177090Y748016D01*
X177073Y747824D01*
X177074Y747815D01*
X177073Y747806D01*
X177095Y747617D01*
X177116Y747424D01*
X177119Y747415D01*
X177120Y747407D01*
X177179Y747225D01*
X177237Y747040D01*
X177242Y747032D01*
X177245Y747024D01*
X177340Y746855D01*
X177432Y746688D01*
X177438Y746681D01*
X177442Y746673D01*
X177569Y746527D01*
X177693Y746381D01*
X177700Y746375D01*
X177706Y746368D01*
X177857Y746251D01*
X178009Y746131D01*
X178017Y746127D01*
X178024Y746122D01*
X178196Y746036D01*
X178368Y745949D01*
X178376Y745946D01*
X178384Y745942D01*
X178571Y745892D01*
X178756Y745841D01*
X178764Y745840D01*
X178773Y745838D01*
X179104Y745811D01*
X185580Y745811D01*
X185607Y745813D01*
X185633Y745811D01*
X185807Y745833D01*
X185981Y745851D01*
X186006Y745858D01*
X186033Y745862D01*
X186199Y745917D01*
X186366Y745969D01*
X186389Y745982D01*
X186415Y745990D01*
X186566Y746077D01*
X186720Y746161D01*
X186740Y746178D01*
X186763Y746191D01*
X187016Y746406D01*
X203082Y762472D01*
X203099Y762492D01*
X203120Y762510D01*
X203227Y762648D01*
X203337Y762783D01*
X203350Y762807D01*
X203366Y762828D01*
X203444Y762985D01*
X203526Y763139D01*
X203534Y763164D01*
X203546Y763188D01*
X203591Y763358D01*
X203641Y763525D01*
X203643Y763551D01*
X203650Y763577D01*
X203677Y763908D01*
X203677Y765258D01*
X204640Y767582D01*
X206418Y769360D01*
X208742Y770323D01*
X211258Y770323D01*
X213582Y769360D01*
X215360Y767582D01*
X216323Y765258D01*
X216323Y762742D01*
X215360Y760418D01*
X213582Y758640D01*
X211258Y757677D01*
X209908Y757677D01*
X209881Y757675D01*
X209855Y757677D01*
X209681Y757655D01*
X209507Y757637D01*
X209482Y757630D01*
X209455Y757626D01*
X209289Y757571D01*
X209122Y757519D01*
X209099Y757506D01*
X209073Y757498D01*
X208922Y757411D01*
X208768Y757327D01*
X208748Y757310D01*
X208725Y757297D01*
X208472Y757082D01*
X191867Y740478D01*
X191862Y740471D01*
X191855Y740466D01*
X191735Y740316D01*
X191612Y740167D01*
X191608Y740159D01*
X191603Y740152D01*
X191514Y739982D01*
X191424Y739811D01*
X191421Y739802D01*
X191417Y739795D01*
X191364Y739610D01*
X191309Y739425D01*
X191308Y739416D01*
X191306Y739408D01*
X191290Y739216D01*
X191273Y739024D01*
X191274Y739015D01*
X191273Y739006D01*
X191295Y738817D01*
X191316Y738624D01*
X191319Y738615D01*
X191320Y738607D01*
X191379Y738425D01*
X191437Y738240D01*
X191442Y738232D01*
X191445Y738224D01*
X191540Y738055D01*
X191632Y737888D01*
X191638Y737881D01*
X191642Y737873D01*
X191768Y737727D01*
X191893Y737581D01*
X191900Y737575D01*
X191906Y737568D01*
X192057Y737451D01*
X192209Y737331D01*
X192217Y737327D01*
X192224Y737322D01*
X192396Y737236D01*
X192568Y737149D01*
X192576Y737146D01*
X192584Y737142D01*
X192771Y737092D01*
X192956Y737041D01*
X192964Y737040D01*
X192973Y737038D01*
X193304Y737011D01*
X198780Y737011D01*
X198807Y737013D01*
X198833Y737011D01*
X199007Y737033D01*
X199181Y737051D01*
X199206Y737058D01*
X199233Y737062D01*
X199399Y737117D01*
X199566Y737169D01*
X199589Y737182D01*
X199615Y737190D01*
X199766Y737277D01*
X199920Y737361D01*
X199940Y737378D01*
X199963Y737391D01*
X200216Y737606D01*
X202082Y739472D01*
X202099Y739492D01*
X202120Y739510D01*
X202227Y739648D01*
X202337Y739783D01*
X202350Y739807D01*
X202366Y739828D01*
X202444Y739985D01*
X202526Y740139D01*
X202534Y740164D01*
X202546Y740188D01*
X202591Y740358D01*
X202641Y740525D01*
X202643Y740551D01*
X202650Y740577D01*
X202677Y740908D01*
X202677Y742258D01*
X203640Y744582D01*
X205418Y746360D01*
X206106Y746645D01*
X207742Y747323D01*
X210258Y747323D01*
X212582Y746360D01*
X214360Y744582D01*
X215323Y742258D01*
X215323Y739742D01*
X214360Y737418D01*
X212582Y735640D01*
X210258Y734677D01*
X208908Y734677D01*
X208881Y734675D01*
X208855Y734677D01*
X208681Y734655D01*
X208507Y734637D01*
X208482Y734630D01*
X208455Y734626D01*
X208289Y734571D01*
X208122Y734519D01*
X208099Y734506D01*
X208073Y734498D01*
X207922Y734411D01*
X207768Y734327D01*
X207748Y734310D01*
X207725Y734297D01*
X207472Y734082D01*
X202778Y729389D01*
X40701Y729389D01*
X40679Y729387D01*
X40657Y729389D01*
X40479Y729367D01*
X40301Y729349D01*
X40279Y729343D01*
X40257Y729340D01*
X40087Y729284D01*
X39916Y729231D01*
X39896Y729221D01*
X39875Y729214D01*
X39719Y729125D01*
X39562Y729039D01*
X39544Y729025D01*
X39525Y729014D01*
X39390Y728896D01*
X39252Y728782D01*
X39238Y728764D01*
X39222Y728750D01*
X39112Y728608D01*
X39000Y728468D01*
X38990Y728448D01*
X38976Y728430D01*
X38825Y728135D01*
X38121Y726437D01*
X34763Y723079D01*
X33067Y722377D01*
X33060Y722372D01*
X33051Y722370D01*
X32881Y722277D01*
X32713Y722186D01*
X32706Y722181D01*
X32698Y722176D01*
X32549Y722052D01*
X32402Y721930D01*
X32397Y721923D01*
X32390Y721917D01*
X32269Y721766D01*
X32148Y721617D01*
X32144Y721610D01*
X32139Y721602D01*
X32050Y721430D01*
X31961Y721261D01*
X31959Y721252D01*
X31955Y721244D01*
X31903Y721060D01*
X31848Y720874D01*
X31848Y720865D01*
X31845Y720857D01*
X31830Y720666D01*
X31814Y720473D01*
X31815Y720464D01*
X31814Y720456D01*
X31837Y720264D01*
X31859Y720073D01*
X31862Y720065D01*
X31863Y720056D01*
X31923Y719874D01*
X31982Y719690D01*
X31986Y719682D01*
X31989Y719674D01*
X32084Y719508D01*
X32178Y719338D01*
X32184Y719332D01*
X32189Y719324D01*
X32314Y719180D01*
X32440Y719033D01*
X32447Y719027D01*
X32453Y719020D01*
X32605Y718903D01*
X32757Y718784D01*
X32765Y718780D01*
X32772Y718775D01*
X33067Y718623D01*
X34763Y717921D01*
X38121Y714563D01*
X39939Y710175D01*
X39939Y705425D01*
X38121Y701037D01*
X34763Y697679D01*
X31744Y696428D01*
X31665Y696386D01*
X31583Y696353D01*
X31488Y696291D01*
X31389Y696238D01*
X31320Y696182D01*
X31246Y696133D01*
X31165Y696054D01*
X31078Y695982D01*
X31022Y695913D01*
X30959Y695850D01*
X30896Y695757D01*
X30825Y695669D01*
X30783Y695590D01*
X30734Y695517D01*
X30690Y695413D01*
X30638Y695313D01*
X30613Y695227D01*
X30578Y695145D01*
X30556Y695035D01*
X30525Y694926D01*
X30517Y694838D01*
X30499Y694750D01*
X30500Y694637D01*
X30490Y694525D01*
X30500Y694437D01*
X30500Y694348D01*
X30522Y694237D01*
X30535Y694125D01*
X30562Y694040D01*
X30580Y693953D01*
X30624Y693849D01*
X30658Y693742D01*
X30702Y693664D01*
X30736Y693582D01*
X30799Y693489D01*
X30855Y693390D01*
X30912Y693323D01*
X30962Y693249D01*
X31043Y693170D01*
X31116Y693084D01*
X31186Y693030D01*
X31250Y692967D01*
X31345Y692906D01*
X31433Y692836D01*
X31513Y692796D01*
X31587Y692748D01*
X31718Y692693D01*
X31793Y692655D01*
X31837Y692643D01*
X31893Y692620D01*
X32193Y692522D01*
X33725Y691742D01*
X35116Y690731D01*
X36331Y689516D01*
X37342Y688125D01*
X38122Y686593D01*
X38654Y684958D01*
X38657Y684939D01*
X28508Y684939D01*
X28490Y684937D01*
X28473Y684939D01*
X28290Y684918D01*
X28108Y684899D01*
X28091Y684894D01*
X28073Y684892D01*
X27995Y684867D01*
X27858Y684906D01*
X27840Y684908D01*
X27823Y684912D01*
X27492Y684939D01*
X17343Y684939D01*
X17346Y684958D01*
X17878Y686593D01*
X18658Y688125D01*
X19669Y689516D01*
X20884Y690731D01*
X22275Y691742D01*
X23807Y692522D01*
X24107Y692620D01*
X24188Y692655D01*
X24273Y692682D01*
X24372Y692736D01*
X24475Y692781D01*
X24548Y692833D01*
X24626Y692875D01*
X24712Y692948D01*
X24805Y693013D01*
X24866Y693077D01*
X24934Y693134D01*
X25004Y693223D01*
X25082Y693304D01*
X25130Y693380D01*
X25185Y693449D01*
X25237Y693550D01*
X25297Y693645D01*
X25328Y693728D01*
X25369Y693807D01*
X25400Y693916D01*
X25440Y694022D01*
X25455Y694109D01*
X25479Y694195D01*
X25487Y694307D01*
X25506Y694419D01*
X25503Y694508D01*
X25510Y694596D01*
X25496Y694708D01*
X25492Y694821D01*
X25472Y694907D01*
X25461Y694996D01*
X25426Y695103D01*
X25400Y695213D01*
X25363Y695294D01*
X25335Y695378D01*
X25279Y695476D01*
X25231Y695579D01*
X25179Y695650D01*
X25135Y695728D01*
X25061Y695813D01*
X24994Y695904D01*
X24929Y695964D01*
X24871Y696031D01*
X24781Y696100D01*
X24698Y696177D01*
X24622Y696222D01*
X24552Y696277D01*
X24426Y696341D01*
X24354Y696385D01*
X24310Y696401D01*
X24256Y696428D01*
X21237Y697679D01*
X18089Y700827D01*
X18075Y700838D01*
X18064Y700852D01*
X17919Y700966D01*
X17777Y701082D01*
X17762Y701091D01*
X17748Y701102D01*
X17584Y701185D01*
X17422Y701271D01*
X17405Y701276D01*
X17389Y701284D01*
X17212Y701333D01*
X17036Y701386D01*
X17018Y701387D01*
X17001Y701392D01*
X16818Y701405D01*
X16635Y701422D01*
X16617Y701420D01*
X16599Y701421D01*
X16417Y701398D01*
X16235Y701379D01*
X16218Y701373D01*
X16200Y701371D01*
X16026Y701313D01*
X15851Y701257D01*
X15835Y701248D01*
X15818Y701243D01*
X15659Y701151D01*
X15498Y701062D01*
X15485Y701051D01*
X15469Y701042D01*
X15216Y700827D01*
X13406Y699017D01*
X13389Y698996D01*
X13368Y698978D01*
X13261Y698840D01*
X13151Y698705D01*
X13138Y698681D01*
X13122Y698660D01*
X13044Y698503D01*
X12962Y698349D01*
X12954Y698324D01*
X12942Y698300D01*
X12897Y698130D01*
X12847Y697963D01*
X12845Y697937D01*
X12838Y697911D01*
X12811Y697580D01*
X12811Y661739D01*
X12811Y661735D01*
X12811Y661730D01*
X12831Y661537D01*
X12851Y661338D01*
X12852Y661334D01*
X12852Y661330D01*
X12910Y661144D01*
X12969Y660954D01*
X12971Y660950D01*
X12972Y660945D01*
X13066Y660774D01*
X13161Y660599D01*
X13163Y660596D01*
X13166Y660592D01*
X13293Y660441D01*
X13418Y660290D01*
X13422Y660287D01*
X13425Y660284D01*
X13579Y660161D01*
X13732Y660038D01*
X13736Y660036D01*
X13739Y660033D01*
X13915Y659943D01*
X14089Y659852D01*
X14094Y659851D01*
X14098Y659849D01*
X14286Y659796D01*
X14476Y659741D01*
X14481Y659741D01*
X14485Y659739D01*
X14678Y659724D01*
X14878Y659708D01*
X14882Y659709D01*
X14886Y659708D01*
X15079Y659732D01*
X15277Y659755D01*
X15282Y659756D01*
X15286Y659757D01*
X15472Y659819D01*
X15660Y659880D01*
X15664Y659882D01*
X15668Y659883D01*
X15840Y659981D01*
X16011Y660078D01*
X16014Y660081D01*
X16018Y660083D01*
X16167Y660213D01*
X16315Y660341D01*
X16318Y660344D01*
X16322Y660347D01*
X16443Y660506D01*
X16562Y660659D01*
X16564Y660663D01*
X16567Y660667D01*
X16719Y660962D01*
X17879Y663763D01*
X21237Y667121D01*
X24256Y668372D01*
X24334Y668414D01*
X24417Y668447D01*
X24512Y668509D01*
X24611Y668562D01*
X24680Y668618D01*
X24754Y668667D01*
X24835Y668746D01*
X24922Y668818D01*
X24978Y668887D01*
X25041Y668950D01*
X25104Y669043D01*
X25175Y669131D01*
X25217Y669210D01*
X25266Y669283D01*
X25310Y669387D01*
X25362Y669487D01*
X25387Y669573D01*
X25422Y669655D01*
X25444Y669766D01*
X25475Y669874D01*
X25483Y669962D01*
X25501Y670049D01*
X25500Y670163D01*
X25510Y670275D01*
X25500Y670363D01*
X25500Y670452D01*
X25478Y670563D01*
X25465Y670675D01*
X25438Y670760D01*
X25420Y670847D01*
X25376Y670951D01*
X25342Y671058D01*
X25298Y671136D01*
X25264Y671218D01*
X25201Y671311D01*
X25145Y671410D01*
X25088Y671477D01*
X25038Y671551D01*
X24957Y671630D01*
X24884Y671716D01*
X24814Y671770D01*
X24750Y671833D01*
X24655Y671894D01*
X24567Y671964D01*
X24487Y672004D01*
X24413Y672052D01*
X24282Y672107D01*
X24207Y672145D01*
X24163Y672157D01*
X24107Y672180D01*
X23807Y672278D01*
X22275Y673058D01*
X20884Y674069D01*
X19669Y675284D01*
X18658Y676675D01*
X17878Y678207D01*
X17346Y679842D01*
X17343Y679861D01*
X27492Y679861D01*
X27510Y679862D01*
X27527Y679861D01*
X27710Y679882D01*
X27892Y679901D01*
X27909Y679906D01*
X27927Y679908D01*
X28005Y679933D01*
X28142Y679894D01*
X28160Y679892D01*
X28177Y679888D01*
X28508Y679861D01*
X38657Y679861D01*
X38654Y679842D01*
X38122Y678207D01*
X37342Y676675D01*
X36331Y675284D01*
X35116Y674069D01*
X33725Y673058D01*
X32193Y672278D01*
X31893Y672180D01*
X31812Y672145D01*
X31727Y672118D01*
X31628Y672064D01*
X31525Y672018D01*
X31452Y671967D01*
X31374Y671925D01*
X31288Y671852D01*
X31195Y671787D01*
X31134Y671723D01*
X31066Y671666D01*
X30996Y671577D01*
X30918Y671495D01*
X30870Y671420D01*
X30815Y671351D01*
X30763Y671250D01*
X30703Y671155D01*
X30672Y671072D01*
X30631Y670993D01*
X30600Y670884D01*
X30560Y670778D01*
X30546Y670691D01*
X30521Y670605D01*
X30513Y670493D01*
X30494Y670381D01*
X30497Y670292D01*
X30490Y670204D01*
X30504Y670092D01*
X30508Y669979D01*
X30528Y669893D01*
X30539Y669804D01*
X30574Y669697D01*
X30600Y669587D01*
X30637Y669506D01*
X30665Y669422D01*
X30721Y669324D01*
X30769Y669221D01*
X30821Y669149D01*
X30865Y669072D01*
X30939Y668987D01*
X31006Y668896D01*
X31071Y668836D01*
X31129Y668769D01*
X31219Y668700D01*
X31302Y668623D01*
X31378Y668577D01*
X31448Y668523D01*
X31574Y668459D01*
X31647Y668415D01*
X31690Y668399D01*
X31744Y668372D01*
X34763Y667121D01*
X38121Y663763D01*
X39939Y659375D01*
X39939Y654625D01*
X38121Y650237D01*
X34763Y646879D01*
X30375Y645061D01*
X25625Y645061D01*
X21237Y646879D01*
X17879Y650237D01*
X16719Y653038D01*
X16717Y653042D01*
X16715Y653046D01*
X16620Y653222D01*
X16528Y653393D01*
X16526Y653397D01*
X16523Y653401D01*
X16397Y653552D01*
X16272Y653704D01*
X16268Y653706D01*
X16266Y653710D01*
X16113Y653832D01*
X15959Y653957D01*
X15955Y653959D01*
X15952Y653962D01*
X15780Y654051D01*
X15603Y654144D01*
X15598Y654146D01*
X15595Y654148D01*
X15408Y654201D01*
X15216Y654257D01*
X15212Y654258D01*
X15208Y654259D01*
X15010Y654275D01*
X14815Y654292D01*
X14811Y654292D01*
X14806Y654292D01*
X14609Y654269D01*
X14415Y654247D01*
X14411Y654246D01*
X14407Y654245D01*
X14220Y654184D01*
X14032Y654124D01*
X14028Y654122D01*
X14024Y654120D01*
X13853Y654024D01*
X13680Y653927D01*
X13677Y653924D01*
X13673Y653922D01*
X13524Y653794D01*
X13375Y653666D01*
X13372Y653662D01*
X13368Y653659D01*
X13249Y653505D01*
X13126Y653348D01*
X13124Y653344D01*
X13122Y653341D01*
X13034Y653164D01*
X12946Y652989D01*
X12944Y652985D01*
X12942Y652980D01*
X12891Y652788D01*
X12839Y652600D01*
X12839Y652596D01*
X12838Y652592D01*
X12811Y652261D01*
X12811Y635420D01*
X12813Y635393D01*
X12811Y635366D01*
X12833Y635193D01*
X12851Y635019D01*
X12858Y634994D01*
X12862Y634967D01*
X12917Y634801D01*
X12969Y634634D01*
X12982Y634611D01*
X12990Y634585D01*
X13077Y634434D01*
X13161Y634280D01*
X13178Y634260D01*
X13191Y634236D01*
X13406Y633983D01*
X20983Y626406D01*
X20984Y626406D01*
X23811Y623578D01*
X23811Y549104D01*
X23812Y549095D01*
X23811Y549086D01*
X23832Y548893D01*
X23851Y548703D01*
X23853Y548695D01*
X23854Y548686D01*
X23912Y548502D01*
X23969Y548318D01*
X23973Y548310D01*
X23976Y548302D01*
X24068Y548134D01*
X24161Y547964D01*
X24166Y547957D01*
X24171Y547950D01*
X24295Y547802D01*
X24418Y547655D01*
X24425Y547649D01*
X24431Y547643D01*
X24583Y547523D01*
X24732Y547403D01*
X24740Y547398D01*
X24747Y547393D01*
X24920Y547305D01*
X25089Y547217D01*
X25098Y547215D01*
X25106Y547211D01*
X25292Y547159D01*
X25476Y547106D01*
X25485Y547105D01*
X25494Y547103D01*
X25687Y547088D01*
X25878Y547073D01*
X25886Y547074D01*
X25895Y547073D01*
X26088Y547098D01*
X26277Y547120D01*
X26286Y547122D01*
X26295Y547124D01*
X26477Y547185D01*
X26660Y547245D01*
X26668Y547249D01*
X26676Y547252D01*
X26843Y547348D01*
X27011Y547442D01*
X27018Y547448D01*
X27025Y547453D01*
X27278Y547667D01*
X43422Y563811D01*
X63028Y563811D01*
X63054Y563813D01*
X63081Y563811D01*
X63255Y563833D01*
X63428Y563851D01*
X63454Y563858D01*
X63480Y563862D01*
X63646Y563917D01*
X63813Y563969D01*
X63837Y563982D01*
X63862Y563990D01*
X64014Y564077D01*
X64167Y564161D01*
X64188Y564178D01*
X64211Y564191D01*
X64464Y564406D01*
X65418Y565360D01*
X67742Y566323D01*
X70258Y566323D01*
X72582Y565360D01*
X74360Y563582D01*
X75323Y561258D01*
X75323Y558742D01*
X74360Y556418D01*
X73291Y555349D01*
X73282Y555339D01*
X73272Y555330D01*
X73155Y555183D01*
X73036Y555038D01*
X73029Y555026D01*
X73021Y555015D01*
X72935Y554848D01*
X72847Y554682D01*
X72843Y554669D01*
X72837Y554657D01*
X72786Y554477D01*
X72732Y554296D01*
X72731Y554282D01*
X72727Y554270D01*
X72713Y554084D01*
X72696Y553895D01*
X72697Y553881D01*
X72696Y553868D01*
X72719Y553684D01*
X72739Y553495D01*
X72743Y553482D01*
X72745Y553469D01*
X72804Y553291D01*
X72861Y553111D01*
X72867Y553099D01*
X72871Y553086D01*
X72965Y552922D01*
X73056Y552758D01*
X73064Y552748D01*
X73071Y552737D01*
X73195Y552594D01*
X73316Y552451D01*
X73327Y552443D01*
X73335Y552433D01*
X73484Y552319D01*
X73632Y552202D01*
X73644Y552196D01*
X73655Y552188D01*
X73950Y552036D01*
X75582Y551360D01*
X77360Y549582D01*
X78323Y547258D01*
X78323Y545616D01*
X78324Y545607D01*
X78323Y545598D01*
X78344Y545406D01*
X78363Y545215D01*
X78365Y545207D01*
X78366Y545198D01*
X78424Y545015D01*
X78481Y544830D01*
X78485Y544822D01*
X78488Y544814D01*
X78581Y544645D01*
X78673Y544476D01*
X78678Y544469D01*
X78683Y544462D01*
X78808Y544314D01*
X78930Y544167D01*
X78937Y544161D01*
X78943Y544155D01*
X79095Y544035D01*
X79244Y543915D01*
X79252Y543911D01*
X79259Y543905D01*
X79431Y543818D01*
X79601Y543729D01*
X79610Y543727D01*
X79618Y543723D01*
X79804Y543671D01*
X79988Y543618D01*
X79997Y543617D01*
X80006Y543615D01*
X80198Y543600D01*
X80390Y543585D01*
X80398Y543586D01*
X80407Y543585D01*
X80600Y543610D01*
X80789Y543632D01*
X80798Y543634D01*
X80807Y543636D01*
X80990Y543697D01*
X81172Y543757D01*
X81180Y543761D01*
X81188Y543764D01*
X81354Y543859D01*
X81523Y543954D01*
X81530Y543960D01*
X81537Y543965D01*
X81790Y544179D01*
X83422Y545811D01*
X105028Y545811D01*
X105054Y545813D01*
X105081Y545811D01*
X105255Y545833D01*
X105428Y545851D01*
X105454Y545858D01*
X105480Y545862D01*
X105646Y545917D01*
X105813Y545969D01*
X105837Y545982D01*
X105862Y545990D01*
X106014Y546077D01*
X106167Y546161D01*
X106188Y546178D01*
X106211Y546191D01*
X106464Y546406D01*
X107418Y547360D01*
X109742Y548323D01*
X112258Y548323D01*
X114582Y547360D01*
X116360Y545582D01*
X117323Y543258D01*
X117323Y541616D01*
X117324Y541607D01*
X117323Y541598D01*
X117344Y541406D01*
X117363Y541215D01*
X117365Y541207D01*
X117366Y541198D01*
X117424Y541015D01*
X117481Y540830D01*
X117485Y540822D01*
X117488Y540814D01*
X117581Y540645D01*
X117673Y540476D01*
X117678Y540469D01*
X117683Y540462D01*
X117808Y540314D01*
X117930Y540167D01*
X117937Y540161D01*
X117943Y540155D01*
X118094Y540035D01*
X118244Y539915D01*
X118252Y539910D01*
X118259Y539905D01*
X118430Y539818D01*
X118601Y539729D01*
X118610Y539727D01*
X118618Y539723D01*
X118803Y539671D01*
X118988Y539618D01*
X118997Y539617D01*
X119006Y539615D01*
X119198Y539600D01*
X119390Y539585D01*
X119398Y539586D01*
X119407Y539585D01*
X119600Y539610D01*
X119789Y539632D01*
X119798Y539634D01*
X119807Y539636D01*
X119990Y539697D01*
X120172Y539757D01*
X120180Y539761D01*
X120188Y539764D01*
X120354Y539859D01*
X120523Y539954D01*
X120530Y539960D01*
X120537Y539965D01*
X120790Y540179D01*
X121422Y540811D01*
X125028Y540811D01*
X125054Y540813D01*
X125081Y540811D01*
X125255Y540833D01*
X125428Y540851D01*
X125454Y540858D01*
X125480Y540862D01*
X125646Y540917D01*
X125813Y540969D01*
X125837Y540982D01*
X125862Y540990D01*
X126014Y541077D01*
X126167Y541161D01*
X126188Y541178D01*
X126211Y541191D01*
X126464Y541406D01*
X127418Y542360D01*
X129992Y543426D01*
X130170Y543481D01*
X130178Y543485D01*
X130186Y543488D01*
X130354Y543581D01*
X130524Y543673D01*
X130531Y543678D01*
X130538Y543683D01*
X130686Y543807D01*
X130833Y543930D01*
X130839Y543937D01*
X130845Y543943D01*
X130965Y544095D01*
X131085Y544244D01*
X131090Y544252D01*
X131095Y544259D01*
X131183Y544432D01*
X131271Y544601D01*
X131273Y544610D01*
X131277Y544618D01*
X131329Y544804D01*
X131382Y544988D01*
X131383Y544997D01*
X131385Y545006D01*
X131399Y545198D01*
X131415Y545390D01*
X131414Y545398D01*
X131415Y545407D01*
X131391Y545600D01*
X131368Y545789D01*
X131366Y545798D01*
X131364Y545807D01*
X131303Y545989D01*
X131243Y546172D01*
X131239Y546180D01*
X131236Y546188D01*
X131140Y546355D01*
X131046Y546523D01*
X131040Y546530D01*
X131035Y546537D01*
X130821Y546790D01*
X106016Y571594D01*
X105996Y571611D01*
X105978Y571632D01*
X105840Y571739D01*
X105705Y571849D01*
X105681Y571862D01*
X105660Y571878D01*
X105503Y571956D01*
X105349Y572038D01*
X105324Y572046D01*
X105300Y572058D01*
X105130Y572103D01*
X104963Y572153D01*
X104937Y572155D01*
X104911Y572162D01*
X104580Y572189D01*
X88972Y572189D01*
X88946Y572187D01*
X88919Y572189D01*
X88745Y572167D01*
X88572Y572149D01*
X88546Y572142D01*
X88520Y572138D01*
X88354Y572083D01*
X88187Y572031D01*
X88163Y572018D01*
X88138Y572010D01*
X87986Y571923D01*
X87833Y571839D01*
X87812Y571822D01*
X87789Y571809D01*
X87536Y571594D01*
X86582Y570640D01*
X84258Y569677D01*
X81742Y569677D01*
X79418Y570640D01*
X77640Y572418D01*
X76677Y574742D01*
X76677Y577258D01*
X77640Y579582D01*
X79418Y581360D01*
X80166Y581670D01*
X80181Y581678D01*
X80198Y581684D01*
X80359Y581773D01*
X80520Y581860D01*
X80534Y581871D01*
X80550Y581880D01*
X80689Y581999D01*
X80831Y582116D01*
X80842Y582130D01*
X80856Y582142D01*
X80969Y582287D01*
X81085Y582429D01*
X81093Y582445D01*
X81104Y582459D01*
X81186Y582622D01*
X81272Y582785D01*
X81277Y582803D01*
X81285Y582818D01*
X81333Y582995D01*
X81385Y583172D01*
X81386Y583190D01*
X81391Y583207D01*
X81404Y583391D01*
X81419Y583573D01*
X81417Y583591D01*
X81419Y583608D01*
X81395Y583791D01*
X81374Y583973D01*
X81369Y583990D01*
X81366Y584008D01*
X81265Y584324D01*
X80677Y585742D01*
X80677Y588258D01*
X81640Y590582D01*
X83418Y592360D01*
X85742Y593323D01*
X88258Y593323D01*
X90582Y592360D01*
X92360Y590582D01*
X93303Y588305D01*
X93318Y588277D01*
X93328Y588247D01*
X93413Y588100D01*
X93493Y587950D01*
X93513Y587925D01*
X93529Y587898D01*
X93744Y587645D01*
X93984Y587406D01*
X94004Y587389D01*
X94022Y587368D01*
X94160Y587262D01*
X94295Y587151D01*
X94319Y587138D01*
X94340Y587122D01*
X94496Y587044D01*
X94651Y586962D01*
X94676Y586954D01*
X94700Y586942D01*
X94869Y586897D01*
X95037Y586847D01*
X95063Y586845D01*
X95089Y586838D01*
X95420Y586811D01*
X130578Y586811D01*
X137722Y579667D01*
X137729Y579662D01*
X137734Y579655D01*
X137884Y579535D01*
X138033Y579412D01*
X138041Y579408D01*
X138048Y579403D01*
X138218Y579314D01*
X138389Y579224D01*
X138398Y579221D01*
X138405Y579217D01*
X138590Y579164D01*
X138775Y579109D01*
X138784Y579108D01*
X138792Y579106D01*
X138984Y579090D01*
X139176Y579073D01*
X139185Y579074D01*
X139194Y579073D01*
X139383Y579095D01*
X139576Y579116D01*
X139585Y579119D01*
X139593Y579120D01*
X139775Y579179D01*
X139960Y579237D01*
X139968Y579242D01*
X139976Y579245D01*
X140145Y579340D01*
X140312Y579432D01*
X140319Y579438D01*
X140327Y579442D01*
X140473Y579568D01*
X140619Y579693D01*
X140625Y579700D01*
X140632Y579706D01*
X140749Y579857D01*
X140869Y580009D01*
X140873Y580017D01*
X140878Y580024D01*
X140964Y580196D01*
X141051Y580368D01*
X141054Y580376D01*
X141058Y580384D01*
X141108Y580571D01*
X141159Y580756D01*
X141160Y580764D01*
X141162Y580773D01*
X141189Y581104D01*
X141189Y640028D01*
X141187Y640054D01*
X141189Y640081D01*
X141167Y640255D01*
X141149Y640428D01*
X141142Y640454D01*
X141138Y640480D01*
X141083Y640646D01*
X141031Y640813D01*
X141018Y640837D01*
X141010Y640862D01*
X140923Y641014D01*
X140839Y641167D01*
X140822Y641188D01*
X140809Y641211D01*
X140594Y641464D01*
X139640Y642418D01*
X138677Y644742D01*
X138677Y647258D01*
X139640Y649582D01*
X141418Y651360D01*
X143742Y652323D01*
X146258Y652323D01*
X148582Y651360D01*
X150360Y649582D01*
X151323Y647258D01*
X151323Y644742D01*
X150360Y642418D01*
X149406Y641464D01*
X149389Y641443D01*
X149368Y641426D01*
X149261Y641288D01*
X149151Y641152D01*
X149138Y641129D01*
X149122Y641108D01*
X149044Y640951D01*
X148962Y640797D01*
X148954Y640771D01*
X148942Y640747D01*
X148897Y640578D01*
X148847Y640411D01*
X148845Y640384D01*
X148838Y640358D01*
X148811Y640028D01*
X148811Y581420D01*
X148813Y581393D01*
X148811Y581367D01*
X148833Y581193D01*
X148851Y581019D01*
X148858Y580994D01*
X148862Y580967D01*
X148917Y580802D01*
X148969Y580634D01*
X148982Y580611D01*
X148990Y580585D01*
X149077Y580434D01*
X149161Y580280D01*
X149178Y580260D01*
X149191Y580237D01*
X149406Y579984D01*
X157210Y572179D01*
X157217Y572174D01*
X157222Y572167D01*
X157372Y572047D01*
X157521Y571924D01*
X157529Y571920D01*
X157536Y571915D01*
X157706Y571826D01*
X157877Y571736D01*
X157886Y571733D01*
X157893Y571729D01*
X158078Y571676D01*
X158263Y571621D01*
X158272Y571620D01*
X158280Y571618D01*
X158472Y571602D01*
X158664Y571585D01*
X158673Y571586D01*
X158682Y571585D01*
X158871Y571607D01*
X159064Y571628D01*
X159073Y571631D01*
X159081Y571632D01*
X159263Y571691D01*
X159448Y571749D01*
X159456Y571754D01*
X159464Y571757D01*
X159633Y571852D01*
X159800Y571944D01*
X159807Y571950D01*
X159815Y571954D01*
X159961Y572080D01*
X160107Y572205D01*
X160113Y572212D01*
X160120Y572218D01*
X160237Y572369D01*
X160357Y572521D01*
X160361Y572529D01*
X160366Y572536D01*
X160452Y572708D01*
X160539Y572880D01*
X160542Y572888D01*
X160546Y572896D01*
X160596Y573083D01*
X160647Y573268D01*
X160648Y573276D01*
X160650Y573285D01*
X160677Y573616D01*
X160677Y576258D01*
X161640Y578582D01*
X163418Y580360D01*
X165742Y581323D01*
X168258Y581323D01*
X170582Y580360D01*
X172360Y578582D01*
X173323Y576258D01*
X173323Y574908D01*
X173325Y574881D01*
X173323Y574855D01*
X173345Y574681D01*
X173363Y574507D01*
X173370Y574482D01*
X173374Y574455D01*
X173429Y574289D01*
X173481Y574122D01*
X173494Y574099D01*
X173502Y574073D01*
X173589Y573922D01*
X173673Y573768D01*
X173690Y573748D01*
X173703Y573725D01*
X173918Y573472D01*
X180811Y566578D01*
X180811Y552181D01*
X180812Y552172D01*
X180811Y552164D01*
X180832Y551972D01*
X180851Y551781D01*
X180853Y551772D01*
X180854Y551763D01*
X180912Y551580D01*
X180969Y551396D01*
X180973Y551388D01*
X180976Y551379D01*
X181069Y551211D01*
X181161Y551042D01*
X181166Y551035D01*
X181171Y551027D01*
X181296Y550879D01*
X181418Y550733D01*
X181425Y550727D01*
X181431Y550720D01*
X181583Y550600D01*
X181732Y550480D01*
X181740Y550476D01*
X181747Y550471D01*
X181920Y550383D01*
X182089Y550295D01*
X182098Y550292D01*
X182106Y550288D01*
X182291Y550237D01*
X182476Y550183D01*
X182485Y550183D01*
X182494Y550180D01*
X182686Y550166D01*
X182878Y550150D01*
X182886Y550151D01*
X182895Y550151D01*
X183088Y550175D01*
X183277Y550197D01*
X183286Y550200D01*
X183295Y550201D01*
X183478Y550263D01*
X183660Y550322D01*
X183668Y550327D01*
X183677Y550329D01*
X183843Y550426D01*
X184011Y550520D01*
X184018Y550526D01*
X184025Y550530D01*
X184278Y550745D01*
X184582Y551049D01*
X184599Y551070D01*
X184620Y551087D01*
X184727Y551225D01*
X184837Y551361D01*
X184850Y551384D01*
X184866Y551405D01*
X184944Y551562D01*
X185026Y551716D01*
X185034Y551742D01*
X185046Y551766D01*
X185091Y551935D01*
X185141Y552102D01*
X185143Y552129D01*
X185150Y552155D01*
X185177Y552485D01*
X185177Y553357D01*
X186216Y555865D01*
X188135Y557784D01*
X190643Y558823D01*
X193357Y558823D01*
X195865Y557784D01*
X197784Y555865D01*
X198823Y553357D01*
X198823Y550643D01*
X197784Y548135D01*
X195865Y546216D01*
X193497Y545235D01*
X193357Y545177D01*
X192604Y545177D01*
X192586Y545175D01*
X192568Y545177D01*
X192386Y545156D01*
X192203Y545137D01*
X192186Y545132D01*
X192169Y545130D01*
X191994Y545073D01*
X191818Y545019D01*
X191803Y545011D01*
X191786Y545005D01*
X191626Y544915D01*
X191464Y544827D01*
X191451Y544816D01*
X191435Y544807D01*
X191296Y544687D01*
X191155Y544570D01*
X191144Y544556D01*
X191130Y544544D01*
X191018Y544399D01*
X190903Y544256D01*
X190895Y544240D01*
X190884Y544226D01*
X190802Y544061D01*
X190717Y543899D01*
X190712Y543882D01*
X190704Y543866D01*
X190657Y543687D01*
X190606Y543512D01*
X190604Y543494D01*
X190600Y543477D01*
X190573Y543146D01*
X190573Y444735D01*
X190575Y444709D01*
X190573Y444682D01*
X190595Y444508D01*
X190613Y444335D01*
X190620Y444309D01*
X190624Y444283D01*
X190679Y444117D01*
X190731Y443950D01*
X190744Y443926D01*
X190752Y443901D01*
X190839Y443749D01*
X190923Y443596D01*
X190940Y443575D01*
X190953Y443552D01*
X191168Y443299D01*
X197877Y436590D01*
X198573Y434910D01*
X198573Y420090D01*
X197877Y418410D01*
X184168Y404701D01*
X184151Y404680D01*
X184130Y404663D01*
X184023Y404525D01*
X183913Y404389D01*
X183900Y404366D01*
X183884Y404345D01*
X183806Y404188D01*
X183724Y404034D01*
X183716Y404008D01*
X183704Y403984D01*
X183659Y403815D01*
X183609Y403648D01*
X183607Y403621D01*
X183600Y403595D01*
X183573Y403265D01*
X183573Y361917D01*
X183575Y361891D01*
X183573Y361864D01*
X183595Y361690D01*
X183613Y361517D01*
X183620Y361491D01*
X183624Y361465D01*
X183679Y361299D01*
X183731Y361132D01*
X183744Y361108D01*
X183752Y361083D01*
X183839Y360931D01*
X183923Y360778D01*
X183940Y360757D01*
X183953Y360734D01*
X184168Y360481D01*
X184784Y359865D01*
X185823Y357357D01*
X185823Y354643D01*
X184784Y352135D01*
X182865Y350216D01*
X180357Y349177D01*
X177643Y349177D01*
X175619Y350015D01*
X175606Y350019D01*
X175595Y350025D01*
X175415Y350077D01*
X175234Y350132D01*
X175221Y350133D01*
X175208Y350137D01*
X175020Y350152D01*
X174833Y350170D01*
X174820Y350169D01*
X174806Y350170D01*
X174619Y350148D01*
X174433Y350128D01*
X174420Y350124D01*
X174407Y350123D01*
X174227Y350064D01*
X174048Y350009D01*
X174037Y350002D01*
X174024Y349998D01*
X173859Y349905D01*
X173695Y349815D01*
X173685Y349807D01*
X173673Y349800D01*
X173531Y349677D01*
X173387Y349556D01*
X173379Y349546D01*
X173368Y349537D01*
X173253Y349388D01*
X173136Y349241D01*
X173130Y349229D01*
X173122Y349219D01*
X173038Y349050D01*
X172952Y348883D01*
X172948Y348870D01*
X172942Y348858D01*
X172893Y348676D01*
X172842Y348496D01*
X172841Y348483D01*
X172838Y348470D01*
X172811Y348139D01*
X172811Y310420D01*
X172813Y310393D01*
X172811Y310367D01*
X172833Y310193D01*
X172851Y310019D01*
X172858Y309994D01*
X172862Y309967D01*
X172917Y309801D01*
X172969Y309634D01*
X172982Y309611D01*
X172990Y309585D01*
X173077Y309434D01*
X173161Y309280D01*
X173178Y309260D01*
X173191Y309237D01*
X173406Y308984D01*
X214984Y267406D01*
X215004Y267389D01*
X215022Y267368D01*
X215160Y267261D01*
X215295Y267151D01*
X215319Y267138D01*
X215340Y267122D01*
X215497Y267044D01*
X215651Y266962D01*
X215676Y266954D01*
X215700Y266942D01*
X215870Y266897D01*
X216037Y266847D01*
X216063Y266845D01*
X216089Y266838D01*
X216420Y266811D01*
X341028Y266811D01*
X341054Y266813D01*
X341081Y266811D01*
X341255Y266833D01*
X341428Y266851D01*
X341454Y266858D01*
X341480Y266862D01*
X341646Y266917D01*
X341813Y266969D01*
X341837Y266982D01*
X341862Y266990D01*
X342014Y267077D01*
X342167Y267161D01*
X342188Y267178D01*
X342211Y267191D01*
X342464Y267406D01*
X343418Y268360D01*
X345742Y269323D01*
X348258Y269323D01*
X350582Y268360D01*
X352360Y266582D01*
X353323Y264258D01*
X353323Y261742D01*
X352360Y259418D01*
X350582Y257640D01*
X348258Y256677D01*
X345742Y256677D01*
X343418Y257640D01*
X342464Y258594D01*
X342443Y258611D01*
X342426Y258632D01*
X342288Y258739D01*
X342152Y258849D01*
X342129Y258862D01*
X342108Y258878D01*
X341951Y258956D01*
X341797Y259038D01*
X341771Y259046D01*
X341747Y259058D01*
X341578Y259103D01*
X341411Y259153D01*
X341384Y259155D01*
X341358Y259162D01*
X341028Y259189D01*
X225549Y259189D01*
X225544Y259189D01*
X225540Y259189D01*
X225346Y259169D01*
X225148Y259149D01*
X225144Y259148D01*
X225139Y259148D01*
X224953Y259089D01*
X224763Y259031D01*
X224759Y259029D01*
X224755Y259028D01*
X224582Y258933D01*
X224409Y258839D01*
X224406Y258837D01*
X224402Y258834D01*
X224250Y258707D01*
X224100Y258582D01*
X224097Y258578D01*
X224094Y258575D01*
X223970Y258420D01*
X223848Y258268D01*
X223846Y258264D01*
X223843Y258260D01*
X223752Y258084D01*
X223662Y257911D01*
X223661Y257906D01*
X223659Y257902D01*
X223605Y257713D01*
X223551Y257524D01*
X223551Y257519D01*
X223549Y257515D01*
X223534Y257321D01*
X223518Y257122D01*
X223519Y257118D01*
X223518Y257113D01*
X223542Y256916D01*
X223565Y256723D01*
X223566Y256718D01*
X223567Y256714D01*
X223628Y256529D01*
X223690Y256340D01*
X223692Y256336D01*
X223694Y256331D01*
X223791Y256161D01*
X223888Y255989D01*
X223891Y255986D01*
X223893Y255982D01*
X224023Y255833D01*
X224151Y255685D01*
X224155Y255682D01*
X224158Y255678D01*
X224315Y255557D01*
X224469Y255438D01*
X224473Y255436D01*
X224477Y255433D01*
X224543Y255399D01*
X226360Y253582D01*
X227323Y251258D01*
X227323Y248742D01*
X226360Y246418D01*
X224582Y244640D01*
X224510Y244610D01*
X222258Y243677D01*
X219742Y243677D01*
X217418Y244640D01*
X216464Y245594D01*
X216443Y245611D01*
X216426Y245632D01*
X216288Y245739D01*
X216152Y245849D01*
X216129Y245862D01*
X216108Y245878D01*
X215951Y245956D01*
X215797Y246038D01*
X215771Y246046D01*
X215747Y246058D01*
X215578Y246103D01*
X215411Y246153D01*
X215384Y246155D01*
X215358Y246162D01*
X215028Y246189D01*
X214422Y246189D01*
X205072Y255539D01*
X205065Y255544D01*
X205060Y255551D01*
X204910Y255671D01*
X204761Y255794D01*
X204753Y255798D01*
X204746Y255803D01*
X204576Y255892D01*
X204405Y255982D01*
X204396Y255985D01*
X204389Y255989D01*
X204204Y256042D01*
X204019Y256097D01*
X204010Y256098D01*
X204002Y256100D01*
X203810Y256116D01*
X203618Y256133D01*
X203609Y256132D01*
X203600Y256133D01*
X203411Y256111D01*
X203218Y256090D01*
X203209Y256087D01*
X203201Y256086D01*
X203019Y256027D01*
X202834Y255969D01*
X202826Y255964D01*
X202818Y255961D01*
X202649Y255866D01*
X202482Y255774D01*
X202475Y255768D01*
X202467Y255764D01*
X202321Y255638D01*
X202175Y255513D01*
X202169Y255506D01*
X202162Y255500D01*
X202045Y255349D01*
X201925Y255197D01*
X201921Y255189D01*
X201916Y255182D01*
X201830Y255010D01*
X201743Y254838D01*
X201740Y254830D01*
X201736Y254822D01*
X201686Y254635D01*
X201635Y254450D01*
X201634Y254442D01*
X201632Y254433D01*
X201605Y254102D01*
X201605Y221508D01*
X201606Y221499D01*
X201605Y221490D01*
X201626Y221298D01*
X201645Y221107D01*
X201647Y221098D01*
X201648Y221089D01*
X201706Y220906D01*
X201763Y220722D01*
X201767Y220714D01*
X201770Y220706D01*
X201863Y220537D01*
X201955Y220368D01*
X201960Y220361D01*
X201965Y220353D01*
X202089Y220206D01*
X202212Y220059D01*
X202219Y220053D01*
X202225Y220046D01*
X202376Y219927D01*
X202526Y219806D01*
X202534Y219802D01*
X202541Y219797D01*
X202714Y219709D01*
X202883Y219621D01*
X202892Y219618D01*
X202900Y219614D01*
X203086Y219562D01*
X203270Y219509D01*
X203279Y219509D01*
X203288Y219506D01*
X203481Y219492D01*
X203672Y219477D01*
X203680Y219478D01*
X203689Y219477D01*
X203882Y219501D01*
X204071Y219524D01*
X204080Y219526D01*
X204089Y219527D01*
X204272Y219589D01*
X204454Y219648D01*
X204462Y219653D01*
X204470Y219656D01*
X204637Y219752D01*
X204805Y219846D01*
X204812Y219852D01*
X204819Y219857D01*
X205072Y220071D01*
X208590Y223589D01*
X211064Y224614D01*
X213398Y225581D01*
X218602Y225581D01*
X223410Y223589D01*
X227089Y219910D01*
X229081Y215102D01*
X229081Y209898D01*
X227089Y205090D01*
X223410Y201411D01*
X219817Y199923D01*
X218602Y199419D01*
X216825Y199419D01*
X216816Y199418D01*
X216807Y199419D01*
X216614Y199398D01*
X216424Y199379D01*
X216416Y199377D01*
X216407Y199376D01*
X216222Y199317D01*
X216040Y199261D01*
X216032Y199257D01*
X216023Y199254D01*
X215854Y199161D01*
X215686Y199069D01*
X215679Y199064D01*
X215671Y199059D01*
X215524Y198935D01*
X215376Y198812D01*
X215371Y198805D01*
X215364Y198799D01*
X215244Y198647D01*
X215124Y198498D01*
X215120Y198490D01*
X215114Y198483D01*
X215026Y198310D01*
X214938Y198141D01*
X214936Y198132D01*
X214932Y198124D01*
X214880Y197938D01*
X214827Y197754D01*
X214826Y197745D01*
X214824Y197736D01*
X214810Y197543D01*
X214794Y197352D01*
X214795Y197344D01*
X214795Y197335D01*
X214819Y197142D01*
X214841Y196953D01*
X214844Y196944D01*
X214845Y196935D01*
X214906Y196752D01*
X214966Y196570D01*
X214970Y196562D01*
X214973Y196554D01*
X215069Y196387D01*
X215164Y196219D01*
X215170Y196212D01*
X215174Y196205D01*
X215389Y195952D01*
X234599Y176741D01*
X235605Y174314D01*
X235605Y161941D01*
X235608Y161910D01*
X235606Y161879D01*
X235628Y161709D01*
X235645Y161540D01*
X235654Y161510D01*
X235658Y161479D01*
X235759Y161163D01*
X236073Y160407D01*
X236073Y157593D01*
X234996Y154994D01*
X233006Y153004D01*
X230407Y151927D01*
X228366Y151927D01*
X228357Y151926D01*
X228348Y151927D01*
X228156Y151906D01*
X227965Y151887D01*
X227957Y151885D01*
X227948Y151884D01*
X227765Y151826D01*
X227580Y151769D01*
X227572Y151765D01*
X227564Y151762D01*
X227395Y151669D01*
X227226Y151577D01*
X227219Y151572D01*
X227212Y151567D01*
X227065Y151443D01*
X226917Y151320D01*
X226911Y151313D01*
X226905Y151307D01*
X226786Y151156D01*
X226665Y151006D01*
X226660Y150998D01*
X226655Y150991D01*
X226567Y150818D01*
X226479Y150649D01*
X226477Y150640D01*
X226473Y150632D01*
X226421Y150446D01*
X226368Y150262D01*
X226367Y150253D01*
X226365Y150244D01*
X226350Y150051D01*
X226335Y149860D01*
X226336Y149852D01*
X226335Y149843D01*
X226360Y149649D01*
X226382Y149461D01*
X226384Y149452D01*
X226386Y149443D01*
X226447Y149260D01*
X226507Y149078D01*
X226511Y149070D01*
X226514Y149062D01*
X226610Y148895D01*
X226704Y148727D01*
X226710Y148720D01*
X226715Y148713D01*
X226929Y148460D01*
X230984Y144406D01*
X231004Y144389D01*
X231022Y144368D01*
X231159Y144262D01*
X231295Y144151D01*
X231319Y144138D01*
X231340Y144122D01*
X231496Y144044D01*
X231651Y143962D01*
X231676Y143954D01*
X231700Y143942D01*
X231869Y143897D01*
X232037Y143847D01*
X232063Y143845D01*
X232089Y143838D01*
X232420Y143811D01*
X261578Y143811D01*
X284130Y121259D01*
X284148Y121245D01*
X284162Y121228D01*
X284303Y121117D01*
X284442Y121004D01*
X284461Y120993D01*
X284479Y120980D01*
X284640Y120899D01*
X284798Y120815D01*
X284819Y120809D01*
X284839Y120799D01*
X285012Y120751D01*
X285183Y120700D01*
X285206Y120698D01*
X285227Y120693D01*
X285406Y120680D01*
X285584Y120664D01*
X285607Y120666D01*
X285629Y120665D01*
X285806Y120688D01*
X285985Y120707D01*
X286006Y120714D01*
X286028Y120717D01*
X286344Y120819D01*
X288474Y121701D01*
X293526Y121701D01*
X298194Y119767D01*
X301767Y116194D01*
X303701Y111526D01*
X303701Y106474D01*
X301767Y101806D01*
X298194Y98233D01*
X293526Y96299D01*
X288474Y96299D01*
X283806Y98233D01*
X280233Y101806D01*
X278299Y106474D01*
X278299Y111526D01*
X279181Y113656D01*
X279188Y113677D01*
X279198Y113697D01*
X279246Y113870D01*
X279298Y114041D01*
X279300Y114064D01*
X279306Y114085D01*
X279319Y114264D01*
X279336Y114442D01*
X279334Y114464D01*
X279335Y114487D01*
X279313Y114666D01*
X279294Y114843D01*
X279288Y114864D01*
X279285Y114886D01*
X279228Y115056D01*
X279175Y115227D01*
X279164Y115247D01*
X279157Y115268D01*
X279067Y115424D01*
X278981Y115580D01*
X278967Y115597D01*
X278956Y115617D01*
X278741Y115870D01*
X259016Y135594D01*
X258996Y135611D01*
X258978Y135632D01*
X258840Y135739D01*
X258705Y135849D01*
X258681Y135862D01*
X258660Y135878D01*
X258503Y135956D01*
X258349Y136038D01*
X258324Y136046D01*
X258300Y136058D01*
X258130Y136103D01*
X257963Y136153D01*
X257937Y136155D01*
X257911Y136162D01*
X257580Y136189D01*
X228422Y136189D01*
X225594Y139016D01*
X223572Y141039D01*
X223569Y141041D01*
X223566Y141045D01*
X223413Y141169D01*
X223261Y141294D01*
X223257Y141296D01*
X223253Y141299D01*
X223077Y141391D01*
X222905Y141482D01*
X222901Y141483D01*
X222897Y141486D01*
X222706Y141541D01*
X222519Y141597D01*
X222515Y141597D01*
X222510Y141599D01*
X222318Y141615D01*
X222118Y141633D01*
X222114Y141633D01*
X222109Y141633D01*
X221919Y141612D01*
X221718Y141590D01*
X221714Y141589D01*
X221709Y141588D01*
X221522Y141528D01*
X221334Y141469D01*
X221330Y141466D01*
X221326Y141465D01*
X221155Y141369D01*
X220982Y141274D01*
X220978Y141271D01*
X220974Y141269D01*
X220823Y141139D01*
X220675Y141013D01*
X220672Y141010D01*
X220669Y141007D01*
X220549Y140853D01*
X220425Y140697D01*
X220423Y140693D01*
X220420Y140690D01*
X220332Y140514D01*
X220243Y140338D01*
X220242Y140334D01*
X220240Y140330D01*
X220188Y140143D01*
X220135Y139950D01*
X220134Y139946D01*
X220133Y139942D01*
X220120Y139746D01*
X220105Y139549D01*
X220106Y139545D01*
X220106Y139540D01*
X220131Y139344D01*
X220156Y139149D01*
X220157Y139145D01*
X220158Y139141D01*
X220259Y138825D01*
X221323Y136258D01*
X221323Y133742D01*
X220360Y131418D01*
X218582Y129640D01*
X216258Y128677D01*
X213742Y128677D01*
X211418Y129640D01*
X209640Y131418D01*
X208677Y133742D01*
X208677Y135092D01*
X208676Y135105D01*
X208677Y135116D01*
X208675Y135129D01*
X208677Y135145D01*
X208655Y135319D01*
X208637Y135493D01*
X208630Y135518D01*
X208626Y135545D01*
X208571Y135711D01*
X208519Y135878D01*
X208506Y135901D01*
X208498Y135927D01*
X208411Y136078D01*
X208327Y136232D01*
X208310Y136252D01*
X208297Y136275D01*
X208082Y136528D01*
X201125Y143486D01*
X201125Y162644D01*
X201123Y162671D01*
X201125Y162697D01*
X201103Y162871D01*
X201085Y163045D01*
X201078Y163070D01*
X201074Y163097D01*
X201018Y163263D01*
X200967Y163430D01*
X200955Y163453D01*
X200946Y163478D01*
X200859Y163630D01*
X200775Y163784D01*
X200758Y163804D01*
X200745Y163827D01*
X200530Y164080D01*
X200278Y164332D01*
X200271Y164338D01*
X200266Y164345D01*
X200116Y164465D01*
X199967Y164588D01*
X199959Y164592D01*
X199952Y164597D01*
X199782Y164686D01*
X199611Y164776D01*
X199603Y164779D01*
X199595Y164783D01*
X199410Y164836D01*
X199225Y164891D01*
X199216Y164892D01*
X199208Y164894D01*
X199016Y164910D01*
X198824Y164927D01*
X198815Y164926D01*
X198806Y164927D01*
X198616Y164905D01*
X198424Y164884D01*
X198416Y164881D01*
X198407Y164880D01*
X198223Y164820D01*
X198040Y164763D01*
X198032Y164758D01*
X198024Y164755D01*
X197856Y164661D01*
X197688Y164568D01*
X197681Y164562D01*
X197673Y164558D01*
X197527Y164431D01*
X197381Y164307D01*
X197375Y164300D01*
X197368Y164294D01*
X197250Y164142D01*
X197131Y163991D01*
X197127Y163983D01*
X197122Y163976D01*
X197036Y163804D01*
X196949Y163632D01*
X196946Y163624D01*
X196942Y163616D01*
X196892Y163428D01*
X196841Y163245D01*
X196840Y163236D01*
X196838Y163227D01*
X196811Y162896D01*
X196811Y139422D01*
X194578Y137189D01*
X186865Y137189D01*
X186843Y137187D01*
X186821Y137189D01*
X186643Y137167D01*
X186464Y137149D01*
X186443Y137143D01*
X186421Y137140D01*
X186251Y137084D01*
X186080Y137031D01*
X186060Y137021D01*
X186039Y137014D01*
X185883Y136925D01*
X185726Y136839D01*
X185708Y136825D01*
X185689Y136814D01*
X185554Y136696D01*
X185416Y136582D01*
X185402Y136564D01*
X185385Y136550D01*
X185276Y136408D01*
X185164Y136268D01*
X185154Y136248D01*
X185140Y136230D01*
X184988Y135935D01*
X184360Y134418D01*
X182582Y132640D01*
X180258Y131677D01*
X177742Y131677D01*
X175418Y132640D01*
X173640Y134418D01*
X172697Y136695D01*
X172682Y136723D01*
X172672Y136753D01*
X172587Y136900D01*
X172507Y137050D01*
X172487Y137075D01*
X172471Y137101D01*
X172256Y137354D01*
X170189Y139422D01*
X170189Y157629D01*
X170187Y157655D01*
X170189Y157682D01*
X170167Y157856D01*
X170149Y158029D01*
X170142Y158055D01*
X170138Y158082D01*
X170083Y158247D01*
X170031Y158414D01*
X170018Y158438D01*
X170010Y158463D01*
X169923Y158615D01*
X169839Y158768D01*
X169822Y158789D01*
X169809Y158812D01*
X169594Y159065D01*
X146401Y182259D01*
X145395Y184686D01*
X145395Y217423D01*
X145393Y217449D01*
X145395Y217476D01*
X145373Y217650D01*
X145355Y217823D01*
X145348Y217849D01*
X145344Y217876D01*
X145289Y218041D01*
X145237Y218208D01*
X145224Y218232D01*
X145216Y218257D01*
X145129Y218409D01*
X145045Y218562D01*
X145028Y218583D01*
X145015Y218606D01*
X144800Y218859D01*
X119401Y244259D01*
X118395Y246686D01*
X118395Y312158D01*
X118393Y312176D01*
X118395Y312194D01*
X118374Y312376D01*
X118355Y312559D01*
X118350Y312576D01*
X118348Y312593D01*
X118291Y312768D01*
X118237Y312944D01*
X118229Y312959D01*
X118223Y312976D01*
X118133Y313136D01*
X118045Y313298D01*
X118034Y313311D01*
X118025Y313327D01*
X117905Y313466D01*
X117788Y313607D01*
X117774Y313618D01*
X117762Y313632D01*
X117617Y313744D01*
X117474Y313859D01*
X117458Y313867D01*
X117444Y313878D01*
X117279Y313960D01*
X117117Y314045D01*
X117100Y314050D01*
X117084Y314058D01*
X116905Y314105D01*
X116730Y314156D01*
X116712Y314158D01*
X116695Y314162D01*
X116364Y314189D01*
X99422Y314189D01*
X97189Y316422D01*
X97189Y346909D01*
X97205Y346966D01*
X97257Y347141D01*
X97259Y347159D01*
X97264Y347176D01*
X97277Y347359D01*
X97294Y347542D01*
X97292Y347560D01*
X97293Y347578D01*
X97270Y347760D01*
X97250Y347942D01*
X97245Y347959D01*
X97243Y347977D01*
X97184Y348151D01*
X97129Y348326D01*
X97120Y348342D01*
X97114Y348359D01*
X97023Y348518D01*
X96934Y348679D01*
X96923Y348692D01*
X96914Y348708D01*
X96699Y348961D01*
X71859Y373800D01*
X71838Y373817D01*
X71821Y373838D01*
X71683Y373945D01*
X71548Y374055D01*
X71524Y374068D01*
X71503Y374084D01*
X71346Y374162D01*
X71192Y374244D01*
X71166Y374252D01*
X71142Y374264D01*
X70973Y374309D01*
X70806Y374359D01*
X70779Y374361D01*
X70754Y374368D01*
X70423Y374395D01*
X60686Y374395D01*
X58259Y375401D01*
X50401Y383259D01*
X49395Y385686D01*
X49395Y513550D01*
X49394Y513559D01*
X49395Y513567D01*
X49374Y513759D01*
X49355Y513950D01*
X49353Y513959D01*
X49352Y513968D01*
X49294Y514150D01*
X49237Y514335D01*
X49233Y514343D01*
X49230Y514352D01*
X49137Y514520D01*
X49045Y514689D01*
X49040Y514696D01*
X49035Y514704D01*
X48910Y514852D01*
X48788Y514999D01*
X48781Y515004D01*
X48775Y515011D01*
X48623Y515131D01*
X48474Y515251D01*
X48466Y515255D01*
X48459Y515261D01*
X48287Y515348D01*
X48117Y515436D01*
X48108Y515439D01*
X48100Y515443D01*
X47914Y515495D01*
X47730Y515548D01*
X47721Y515548D01*
X47712Y515551D01*
X47520Y515565D01*
X47328Y515581D01*
X47320Y515580D01*
X47311Y515580D01*
X47118Y515556D01*
X46929Y515534D01*
X46920Y515531D01*
X46911Y515530D01*
X46728Y515468D01*
X46546Y515409D01*
X46538Y515404D01*
X46530Y515402D01*
X46364Y515306D01*
X46195Y515211D01*
X46188Y515205D01*
X46181Y515201D01*
X45928Y514986D01*
X44582Y513640D01*
X44065Y513426D01*
X44045Y513415D01*
X44024Y513408D01*
X43868Y513320D01*
X43710Y513236D01*
X43693Y513221D01*
X43673Y513210D01*
X43538Y513093D01*
X43399Y512979D01*
X43385Y512962D01*
X43368Y512947D01*
X43259Y512806D01*
X43146Y512667D01*
X43135Y512647D01*
X43122Y512629D01*
X43042Y512469D01*
X42959Y512310D01*
X42952Y512289D01*
X42942Y512269D01*
X42896Y512095D01*
X42846Y511924D01*
X42844Y511901D01*
X42838Y511880D01*
X42811Y511549D01*
X42811Y382420D01*
X42813Y382393D01*
X42811Y382367D01*
X42833Y382193D01*
X42851Y382019D01*
X42858Y381994D01*
X42862Y381967D01*
X42917Y381801D01*
X42969Y381634D01*
X42982Y381611D01*
X42990Y381585D01*
X43077Y381434D01*
X43161Y381280D01*
X43178Y381260D01*
X43191Y381237D01*
X43406Y380984D01*
X60811Y363578D01*
X60811Y356871D01*
X60812Y356862D01*
X60811Y356853D01*
X60831Y356663D01*
X60851Y356470D01*
X60853Y356462D01*
X60854Y356453D01*
X60912Y356269D01*
X60969Y356085D01*
X60973Y356077D01*
X60976Y356069D01*
X61069Y355900D01*
X61161Y355731D01*
X61166Y355724D01*
X61171Y355717D01*
X61296Y355569D01*
X61418Y355422D01*
X61425Y355416D01*
X61431Y355410D01*
X61582Y355290D01*
X61732Y355170D01*
X61740Y355166D01*
X61747Y355160D01*
X61920Y355072D01*
X62089Y354984D01*
X62098Y354982D01*
X62106Y354978D01*
X62292Y354926D01*
X62476Y354873D01*
X62485Y354872D01*
X62494Y354870D01*
X62686Y354856D01*
X62878Y354840D01*
X62886Y354841D01*
X62895Y354840D01*
X63087Y354865D01*
X63277Y354887D01*
X63286Y354890D01*
X63295Y354891D01*
X63476Y354952D01*
X63660Y355012D01*
X63668Y355016D01*
X63676Y355019D01*
X63842Y355114D01*
X64011Y355210D01*
X64018Y355216D01*
X64025Y355220D01*
X64278Y355435D01*
X64564Y355720D01*
X64911Y355921D01*
X65299Y356025D01*
X68501Y356025D01*
X68501Y351999D01*
X62230Y351999D01*
X62203Y351997D01*
X62177Y351999D01*
X62003Y351977D01*
X61829Y351959D01*
X61804Y351952D01*
X61777Y351948D01*
X61611Y351893D01*
X61444Y351841D01*
X61421Y351828D01*
X61395Y351820D01*
X61244Y351733D01*
X61090Y351649D01*
X61070Y351632D01*
X61047Y351619D01*
X60794Y351404D01*
X59406Y350016D01*
X59389Y349996D01*
X59368Y349978D01*
X59261Y349840D01*
X59151Y349705D01*
X59138Y349681D01*
X59122Y349660D01*
X59044Y349503D01*
X58962Y349349D01*
X58954Y349324D01*
X58942Y349300D01*
X58897Y349130D01*
X58847Y348963D01*
X58845Y348937D01*
X58838Y348911D01*
X58811Y348580D01*
X58811Y330604D01*
X58812Y330595D01*
X58811Y330586D01*
X58832Y330392D01*
X58851Y330203D01*
X58853Y330195D01*
X58854Y330186D01*
X58913Y330001D01*
X58969Y329818D01*
X58973Y329810D01*
X58976Y329802D01*
X59069Y329634D01*
X59161Y329464D01*
X59166Y329457D01*
X59171Y329450D01*
X59295Y329302D01*
X59418Y329155D01*
X59425Y329149D01*
X59431Y329143D01*
X59583Y329023D01*
X59732Y328903D01*
X59740Y328898D01*
X59747Y328893D01*
X59920Y328805D01*
X60089Y328717D01*
X60098Y328715D01*
X60106Y328711D01*
X60292Y328659D01*
X60476Y328606D01*
X60485Y328605D01*
X60494Y328603D01*
X60687Y328588D01*
X60878Y328573D01*
X60886Y328574D01*
X60895Y328573D01*
X61088Y328597D01*
X61277Y328620D01*
X61286Y328622D01*
X61295Y328624D01*
X61477Y328685D01*
X61660Y328745D01*
X61668Y328749D01*
X61676Y328752D01*
X61843Y328848D01*
X62011Y328942D01*
X62018Y328948D01*
X62025Y328953D01*
X62278Y329167D01*
X62364Y329253D01*
X62381Y329274D01*
X62402Y329292D01*
X62509Y329430D01*
X62619Y329565D01*
X62632Y329589D01*
X62648Y329610D01*
X62726Y329767D01*
X62808Y329921D01*
X62816Y329946D01*
X62828Y329970D01*
X62873Y330140D01*
X62923Y330307D01*
X62925Y330333D01*
X62932Y330359D01*
X62959Y330690D01*
X62959Y338552D01*
X64689Y340282D01*
X64700Y340296D01*
X64714Y340307D01*
X64828Y340452D01*
X64944Y340594D01*
X64952Y340609D01*
X64963Y340623D01*
X65047Y340787D01*
X65133Y340949D01*
X65138Y340966D01*
X65146Y340982D01*
X65195Y341159D01*
X65247Y341335D01*
X65249Y341353D01*
X65254Y341370D01*
X65267Y341553D01*
X65284Y341736D01*
X65282Y341754D01*
X65283Y341772D01*
X65260Y341954D01*
X65240Y342136D01*
X65235Y342153D01*
X65233Y342171D01*
X65175Y342345D01*
X65119Y342520D01*
X65110Y342536D01*
X65105Y342553D01*
X65013Y342712D01*
X64924Y342873D01*
X64913Y342886D01*
X64904Y342902D01*
X64689Y343155D01*
X64280Y343564D01*
X64079Y343911D01*
X63975Y344299D01*
X63975Y347001D01*
X70532Y347001D01*
X70550Y347002D01*
X70567Y347001D01*
X70750Y347022D01*
X70932Y347041D01*
X70949Y347046D01*
X70967Y347048D01*
X71008Y347061D01*
X71102Y347034D01*
X71120Y347032D01*
X71137Y347028D01*
X71468Y347001D01*
X78025Y347001D01*
X78025Y344299D01*
X77921Y343911D01*
X77720Y343564D01*
X77311Y343155D01*
X77300Y343141D01*
X77286Y343129D01*
X77172Y342985D01*
X77056Y342843D01*
X77048Y342827D01*
X77037Y342813D01*
X76953Y342649D01*
X76867Y342488D01*
X76862Y342471D01*
X76854Y342455D01*
X76805Y342277D01*
X76753Y342102D01*
X76751Y342084D01*
X76746Y342067D01*
X76733Y341884D01*
X76716Y341701D01*
X76718Y341683D01*
X76717Y341665D01*
X76740Y341483D01*
X76760Y341300D01*
X76765Y341283D01*
X76767Y341266D01*
X76826Y341092D01*
X76881Y340917D01*
X76890Y340901D01*
X76895Y340884D01*
X76987Y340725D01*
X77076Y340564D01*
X77087Y340551D01*
X77096Y340535D01*
X77311Y340282D01*
X79041Y338552D01*
X79041Y326448D01*
X77552Y324959D01*
X69690Y324959D01*
X69663Y324957D01*
X69636Y324959D01*
X69463Y324937D01*
X69289Y324919D01*
X69264Y324912D01*
X69237Y324908D01*
X69071Y324853D01*
X68904Y324801D01*
X68881Y324788D01*
X68855Y324780D01*
X68704Y324693D01*
X68550Y324609D01*
X68530Y324592D01*
X68506Y324579D01*
X68253Y324364D01*
X67406Y323517D01*
X67389Y323496D01*
X67368Y323478D01*
X67261Y323340D01*
X67151Y323205D01*
X67138Y323181D01*
X67122Y323160D01*
X67044Y323003D01*
X66962Y322849D01*
X66954Y322824D01*
X66942Y322800D01*
X66897Y322630D01*
X66847Y322463D01*
X66845Y322437D01*
X66838Y322411D01*
X66811Y322080D01*
X66811Y233420D01*
X66813Y233393D01*
X66811Y233366D01*
X66833Y233193D01*
X66851Y233019D01*
X66858Y232994D01*
X66862Y232967D01*
X66917Y232801D01*
X66969Y232634D01*
X66982Y232611D01*
X66990Y232585D01*
X67077Y232434D01*
X67161Y232280D01*
X67178Y232260D01*
X67191Y232236D01*
X67406Y231983D01*
X70983Y228406D01*
X71004Y228389D01*
X71022Y228368D01*
X71160Y228261D01*
X71295Y228151D01*
X71319Y228138D01*
X71340Y228122D01*
X71497Y228044D01*
X71651Y227962D01*
X71676Y227954D01*
X71700Y227942D01*
X71870Y227897D01*
X72037Y227847D01*
X72063Y227845D01*
X72089Y227838D01*
X72420Y227811D01*
X91578Y227811D01*
X94405Y224984D01*
X94406Y224983D01*
X96983Y222406D01*
X96984Y222406D01*
X99811Y219578D01*
X99811Y207721D01*
X99811Y207716D01*
X99811Y207712D01*
X99831Y207517D01*
X99851Y207320D01*
X99852Y207316D01*
X99852Y207311D01*
X99911Y207124D01*
X99969Y206935D01*
X99971Y206931D01*
X99972Y206927D01*
X100066Y206755D01*
X100161Y206581D01*
X100163Y206578D01*
X100166Y206574D01*
X100292Y206423D01*
X100418Y206272D01*
X100422Y206269D01*
X100425Y206266D01*
X100580Y206142D01*
X100732Y206020D01*
X100736Y206018D01*
X100740Y206015D01*
X100917Y205924D01*
X101089Y205834D01*
X101094Y205833D01*
X101098Y205831D01*
X101290Y205777D01*
X101476Y205723D01*
X101481Y205722D01*
X101485Y205721D01*
X101681Y205706D01*
X101878Y205690D01*
X101882Y205690D01*
X101886Y205690D01*
X102081Y205714D01*
X102277Y205737D01*
X102282Y205738D01*
X102286Y205739D01*
X102472Y205800D01*
X102660Y205862D01*
X102664Y205864D01*
X102668Y205865D01*
X102837Y205962D01*
X103011Y206060D01*
X103014Y206063D01*
X103018Y206065D01*
X103166Y206194D01*
X103315Y206323D01*
X103318Y206326D01*
X103322Y206329D01*
X103443Y206487D01*
X103562Y206641D01*
X103564Y206645D01*
X103567Y206648D01*
X103719Y206944D01*
X104130Y207936D01*
X109064Y212870D01*
X115511Y215541D01*
X122489Y215541D01*
X128936Y212870D01*
X133870Y207936D01*
X136541Y201489D01*
X136541Y194511D01*
X133870Y188064D01*
X128936Y183130D01*
X122489Y180459D01*
X115511Y180459D01*
X109064Y183130D01*
X104130Y188064D01*
X103719Y189056D01*
X103717Y189060D01*
X103715Y189065D01*
X103622Y189238D01*
X103528Y189411D01*
X103526Y189415D01*
X103523Y189419D01*
X103398Y189569D01*
X103272Y189722D01*
X103269Y189725D01*
X103266Y189728D01*
X103115Y189849D01*
X102959Y189975D01*
X102955Y189978D01*
X102952Y189980D01*
X102780Y190069D01*
X102603Y190162D01*
X102599Y190164D01*
X102595Y190166D01*
X102407Y190220D01*
X102216Y190276D01*
X102212Y190276D01*
X102208Y190277D01*
X102010Y190293D01*
X101815Y190310D01*
X101811Y190310D01*
X101806Y190310D01*
X101611Y190287D01*
X101415Y190265D01*
X101411Y190264D01*
X101407Y190263D01*
X101219Y190202D01*
X101032Y190142D01*
X101028Y190140D01*
X101024Y190138D01*
X100851Y190041D01*
X100680Y189946D01*
X100677Y189943D01*
X100673Y189940D01*
X100525Y189812D01*
X100375Y189684D01*
X100372Y189680D01*
X100368Y189677D01*
X100249Y189524D01*
X100126Y189367D01*
X100124Y189363D01*
X100122Y189359D01*
X100035Y189184D01*
X99946Y189007D01*
X99944Y189003D01*
X99942Y188999D01*
X99891Y188807D01*
X99839Y188619D01*
X99839Y188614D01*
X99838Y188610D01*
X99811Y188279D01*
X99811Y184420D01*
X99813Y184393D01*
X99811Y184366D01*
X99833Y184193D01*
X99851Y184019D01*
X99858Y183994D01*
X99862Y183967D01*
X99918Y183801D01*
X99969Y183634D01*
X99982Y183611D01*
X99990Y183585D01*
X100077Y183434D01*
X100161Y183280D01*
X100178Y183260D01*
X100191Y183236D01*
X100406Y182983D01*
X110984Y172406D01*
X111004Y172389D01*
X111022Y172368D01*
X111160Y172261D01*
X111295Y172151D01*
X111319Y172138D01*
X111340Y172122D01*
X111497Y172044D01*
X111651Y171962D01*
X111676Y171954D01*
X111700Y171942D01*
X111870Y171897D01*
X112037Y171847D01*
X112063Y171845D01*
X112089Y171838D01*
X112420Y171811D01*
X123028Y171811D01*
X123054Y171813D01*
X123081Y171811D01*
X123255Y171833D01*
X123428Y171851D01*
X123454Y171858D01*
X123480Y171862D01*
X123646Y171917D01*
X123813Y171969D01*
X123837Y171982D01*
X123862Y171990D01*
X124014Y172077D01*
X124167Y172161D01*
X124188Y172178D01*
X124211Y172191D01*
X124464Y172406D01*
X125418Y173360D01*
X127742Y174323D01*
X130258Y174323D01*
X132582Y173360D01*
X134360Y171582D01*
X135323Y169258D01*
X135323Y166742D01*
X134360Y164418D01*
X132582Y162640D01*
X130258Y161677D01*
X127742Y161677D01*
X125418Y162640D01*
X124464Y163594D01*
X124443Y163611D01*
X124426Y163632D01*
X124288Y163739D01*
X124152Y163849D01*
X124129Y163862D01*
X124108Y163878D01*
X123951Y163956D01*
X123797Y164038D01*
X123771Y164046D01*
X123747Y164058D01*
X123578Y164103D01*
X123411Y164153D01*
X123384Y164155D01*
X123358Y164162D01*
X123028Y164189D01*
X108422Y164189D01*
X95017Y177594D01*
X95016Y177594D01*
X92189Y180422D01*
X92189Y205344D01*
X92188Y205353D01*
X92189Y205362D01*
X92168Y205552D01*
X92149Y205744D01*
X92147Y205753D01*
X92146Y205762D01*
X92087Y205946D01*
X92031Y206129D01*
X92027Y206137D01*
X92024Y206146D01*
X91931Y206315D01*
X91839Y206483D01*
X91834Y206490D01*
X91829Y206498D01*
X91704Y206645D01*
X91582Y206793D01*
X91575Y206798D01*
X91569Y206805D01*
X91418Y206925D01*
X91268Y207045D01*
X91260Y207049D01*
X91253Y207055D01*
X91080Y207142D01*
X90911Y207230D01*
X90902Y207233D01*
X90894Y207237D01*
X90708Y207289D01*
X90524Y207342D01*
X90515Y207343D01*
X90506Y207345D01*
X90314Y207359D01*
X90122Y207375D01*
X90114Y207374D01*
X90105Y207374D01*
X89913Y207350D01*
X89723Y207328D01*
X89714Y207325D01*
X89705Y207324D01*
X89524Y207263D01*
X89340Y207203D01*
X89332Y207198D01*
X89324Y207196D01*
X89158Y207100D01*
X88989Y207005D01*
X88982Y206999D01*
X88975Y206995D01*
X88722Y206780D01*
X88582Y206640D01*
X87077Y206016D01*
X86258Y205677D01*
X83742Y205677D01*
X81418Y206640D01*
X80464Y207594D01*
X80443Y207611D01*
X80426Y207632D01*
X80288Y207739D01*
X80152Y207849D01*
X80129Y207862D01*
X80108Y207878D01*
X79951Y207956D01*
X79797Y208038D01*
X79771Y208046D01*
X79747Y208058D01*
X79578Y208103D01*
X79411Y208153D01*
X79384Y208155D01*
X79358Y208162D01*
X79028Y208189D01*
X69422Y208189D01*
X55532Y222079D01*
X55525Y222084D01*
X55520Y222091D01*
X55370Y222211D01*
X55221Y222334D01*
X55213Y222338D01*
X55206Y222343D01*
X55036Y222432D01*
X54865Y222522D01*
X54856Y222525D01*
X54849Y222529D01*
X54664Y222582D01*
X54479Y222637D01*
X54470Y222638D01*
X54462Y222640D01*
X54270Y222656D01*
X54078Y222673D01*
X54069Y222672D01*
X54060Y222673D01*
X53871Y222651D01*
X53678Y222630D01*
X53669Y222627D01*
X53661Y222626D01*
X53479Y222567D01*
X53294Y222509D01*
X53286Y222504D01*
X53278Y222501D01*
X53109Y222406D01*
X52942Y222314D01*
X52935Y222308D01*
X52927Y222304D01*
X52781Y222178D01*
X52635Y222053D01*
X52629Y222046D01*
X52622Y222040D01*
X52505Y221889D01*
X52385Y221737D01*
X52381Y221729D01*
X52376Y221722D01*
X52290Y221550D01*
X52203Y221378D01*
X52200Y221370D01*
X52196Y221362D01*
X52146Y221175D01*
X52095Y220990D01*
X52094Y220982D01*
X52092Y220973D01*
X52065Y220642D01*
X52065Y176525D01*
X52067Y176498D01*
X52065Y176472D01*
X52087Y176298D01*
X52105Y176124D01*
X52112Y176099D01*
X52116Y176072D01*
X52171Y175907D01*
X52223Y175740D01*
X52236Y175716D01*
X52244Y175691D01*
X52331Y175539D01*
X52415Y175385D01*
X52432Y175365D01*
X52445Y175342D01*
X52660Y175089D01*
X54089Y173660D01*
X54109Y173643D01*
X54127Y173622D01*
X54265Y173515D01*
X54400Y173405D01*
X54424Y173392D01*
X54445Y173376D01*
X54602Y173298D01*
X54756Y173216D01*
X54781Y173208D01*
X54806Y173196D01*
X54975Y173151D01*
X55142Y173101D01*
X55168Y173099D01*
X55194Y173092D01*
X55525Y173065D01*
X69282Y173065D01*
X69308Y173067D01*
X69335Y173065D01*
X69509Y173087D01*
X69682Y173105D01*
X69708Y173112D01*
X69734Y173116D01*
X69900Y173171D01*
X70067Y173223D01*
X70091Y173236D01*
X70116Y173244D01*
X70268Y173331D01*
X70421Y173415D01*
X70442Y173432D01*
X70465Y173445D01*
X70718Y173660D01*
X71418Y174360D01*
X73742Y175323D01*
X76258Y175323D01*
X78582Y174360D01*
X80360Y172582D01*
X81323Y170258D01*
X81323Y167742D01*
X80443Y165619D01*
X80439Y165606D01*
X80433Y165595D01*
X80382Y165415D01*
X80327Y165234D01*
X80326Y165221D01*
X80322Y165208D01*
X80307Y165020D01*
X80289Y164833D01*
X80290Y164820D01*
X80289Y164806D01*
X80311Y164619D01*
X80330Y164433D01*
X80334Y164420D01*
X80336Y164407D01*
X80395Y164227D01*
X80450Y164048D01*
X80457Y164037D01*
X80461Y164024D01*
X80554Y163859D01*
X80644Y163695D01*
X80652Y163685D01*
X80659Y163673D01*
X80782Y163531D01*
X80903Y163387D01*
X80913Y163379D01*
X80922Y163368D01*
X81071Y163253D01*
X81217Y163136D01*
X81229Y163130D01*
X81240Y163122D01*
X81409Y163038D01*
X81576Y162952D01*
X81588Y162948D01*
X81600Y162942D01*
X81783Y162893D01*
X81963Y162842D01*
X81976Y162841D01*
X81989Y162838D01*
X82320Y162811D01*
X87578Y162811D01*
X91472Y158918D01*
X91492Y158901D01*
X91510Y158880D01*
X91648Y158773D01*
X91783Y158663D01*
X91807Y158650D01*
X91828Y158634D01*
X91985Y158556D01*
X92139Y158474D01*
X92164Y158466D01*
X92188Y158454D01*
X92358Y158409D01*
X92525Y158359D01*
X92551Y158357D01*
X92577Y158350D01*
X92908Y158323D01*
X94258Y158323D01*
X96582Y157360D01*
X98360Y155582D01*
X99323Y153258D01*
X99323Y150742D01*
X98360Y148418D01*
X96582Y146640D01*
X94258Y145677D01*
X91742Y145677D01*
X89418Y146640D01*
X87640Y148418D01*
X86677Y150742D01*
X86677Y152092D01*
X86675Y152119D01*
X86677Y152145D01*
X86655Y152319D01*
X86637Y152493D01*
X86630Y152518D01*
X86626Y152545D01*
X86571Y152711D01*
X86519Y152878D01*
X86506Y152901D01*
X86498Y152927D01*
X86411Y153078D01*
X86327Y153232D01*
X86310Y153252D01*
X86297Y153275D01*
X86082Y153528D01*
X85016Y154594D01*
X84996Y154611D01*
X84978Y154632D01*
X84840Y154739D01*
X84705Y154849D01*
X84681Y154862D01*
X84660Y154878D01*
X84503Y154956D01*
X84349Y155038D01*
X84324Y155046D01*
X84300Y155058D01*
X84130Y155103D01*
X83963Y155153D01*
X83937Y155155D01*
X83911Y155162D01*
X83580Y155189D01*
X49422Y155189D01*
X41278Y163333D01*
X41271Y163338D01*
X41266Y163345D01*
X41116Y163465D01*
X40967Y163588D01*
X40959Y163592D01*
X40952Y163597D01*
X40782Y163686D01*
X40611Y163776D01*
X40602Y163779D01*
X40595Y163783D01*
X40410Y163836D01*
X40225Y163891D01*
X40216Y163892D01*
X40208Y163894D01*
X40016Y163910D01*
X39824Y163927D01*
X39815Y163926D01*
X39806Y163927D01*
X39617Y163905D01*
X39424Y163884D01*
X39415Y163881D01*
X39407Y163880D01*
X39225Y163821D01*
X39040Y163763D01*
X39032Y163758D01*
X39024Y163755D01*
X38855Y163660D01*
X38688Y163568D01*
X38681Y163562D01*
X38673Y163558D01*
X38527Y163432D01*
X38381Y163307D01*
X38375Y163300D01*
X38368Y163294D01*
X38251Y163143D01*
X38131Y162991D01*
X38127Y162983D01*
X38122Y162976D01*
X38036Y162804D01*
X37949Y162632D01*
X37946Y162624D01*
X37942Y162616D01*
X37892Y162429D01*
X37841Y162244D01*
X37840Y162236D01*
X37838Y162227D01*
X37811Y161896D01*
X37811Y128342D01*
X37813Y128324D01*
X37811Y128306D01*
X37832Y128124D01*
X37851Y127941D01*
X37856Y127924D01*
X37858Y127907D01*
X37915Y127732D01*
X37969Y127556D01*
X37977Y127541D01*
X37983Y127524D01*
X38073Y127364D01*
X38161Y127202D01*
X38172Y127189D01*
X38181Y127173D01*
X38301Y127034D01*
X38418Y126893D01*
X38432Y126882D01*
X38444Y126868D01*
X38589Y126756D01*
X38732Y126641D01*
X38748Y126633D01*
X38762Y126622D01*
X38927Y126540D01*
X39089Y126455D01*
X39106Y126450D01*
X39122Y126442D01*
X39301Y126395D01*
X39476Y126344D01*
X39494Y126342D01*
X39511Y126338D01*
X39842Y126311D01*
X42076Y126311D01*
X42103Y126313D01*
X42130Y126311D01*
X42303Y126333D01*
X42477Y126351D01*
X42502Y126358D01*
X42529Y126362D01*
X42695Y126417D01*
X42862Y126469D01*
X42885Y126482D01*
X42911Y126490D01*
X43062Y126577D01*
X43216Y126661D01*
X43236Y126678D01*
X43260Y126691D01*
X43513Y126906D01*
X44798Y128191D01*
X55202Y128191D01*
X56691Y126702D01*
X56691Y118298D01*
X54671Y116278D01*
X54666Y116271D01*
X54659Y116266D01*
X54539Y116116D01*
X54416Y115967D01*
X54412Y115959D01*
X54407Y115952D01*
X54318Y115782D01*
X54228Y115611D01*
X54225Y115602D01*
X54221Y115595D01*
X54168Y115410D01*
X54113Y115225D01*
X54112Y115216D01*
X54110Y115208D01*
X54094Y115014D01*
X54077Y114824D01*
X54078Y114815D01*
X54077Y114806D01*
X54099Y114617D01*
X54120Y114424D01*
X54123Y114415D01*
X54124Y114407D01*
X54183Y114225D01*
X54241Y114040D01*
X54246Y114032D01*
X54249Y114024D01*
X54344Y113855D01*
X54436Y113688D01*
X54442Y113681D01*
X54446Y113673D01*
X54572Y113527D01*
X54697Y113381D01*
X54704Y113375D01*
X54710Y113368D01*
X54861Y113251D01*
X55013Y113131D01*
X55021Y113127D01*
X55028Y113122D01*
X55200Y113036D01*
X55372Y112949D01*
X55380Y112946D01*
X55388Y112942D01*
X55574Y112892D01*
X55759Y112841D01*
X55768Y112840D01*
X55777Y112838D01*
X56108Y112811D01*
X61578Y112811D01*
X64406Y109984D01*
X69230Y105159D01*
X69237Y105154D01*
X69242Y105147D01*
X69392Y105027D01*
X69541Y104904D01*
X69549Y104900D01*
X69556Y104895D01*
X69726Y104806D01*
X69897Y104716D01*
X69906Y104713D01*
X69913Y104709D01*
X70098Y104656D01*
X70283Y104601D01*
X70292Y104600D01*
X70300Y104598D01*
X70492Y104582D01*
X70684Y104565D01*
X70693Y104566D01*
X70702Y104565D01*
X70891Y104587D01*
X71084Y104608D01*
X71093Y104611D01*
X71101Y104612D01*
X71283Y104671D01*
X71468Y104729D01*
X71476Y104734D01*
X71484Y104737D01*
X71653Y104832D01*
X71820Y104924D01*
X71827Y104930D01*
X71835Y104934D01*
X71981Y105060D01*
X72127Y105185D01*
X72133Y105192D01*
X72140Y105198D01*
X72257Y105349D01*
X72377Y105501D01*
X72381Y105509D01*
X72386Y105516D01*
X72472Y105688D01*
X72559Y105860D01*
X72562Y105868D01*
X72566Y105876D01*
X72616Y106062D01*
X72667Y106248D01*
X72668Y106256D01*
X72670Y106265D01*
X72697Y106596D01*
X72697Y130368D01*
X74632Y132303D01*
X109368Y132303D01*
X111303Y130368D01*
X111303Y92572D01*
X111305Y92554D01*
X111303Y92536D01*
X111324Y92354D01*
X111343Y92171D01*
X111348Y92154D01*
X111350Y92137D01*
X111407Y91962D01*
X111461Y91786D01*
X111469Y91771D01*
X111475Y91754D01*
X111565Y91594D01*
X111653Y91432D01*
X111664Y91419D01*
X111673Y91403D01*
X111793Y91264D01*
X111910Y91123D01*
X111924Y91112D01*
X111936Y91098D01*
X112081Y90986D01*
X112224Y90871D01*
X112240Y90863D01*
X112254Y90852D01*
X112419Y90770D01*
X112581Y90685D01*
X112598Y90680D01*
X112614Y90672D01*
X112793Y90625D01*
X112968Y90574D01*
X112986Y90572D01*
X113003Y90568D01*
X113334Y90541D01*
X116052Y90541D01*
X117541Y89052D01*
X117541Y62948D01*
X116052Y61459D01*
X93948Y61459D01*
X92459Y62948D01*
X92459Y63885D01*
X92458Y63894D01*
X92459Y63903D01*
X92438Y64094D01*
X92419Y64285D01*
X92417Y64294D01*
X92416Y64303D01*
X92357Y64488D01*
X92301Y64670D01*
X92297Y64678D01*
X92294Y64687D01*
X92200Y64856D01*
X92109Y65024D01*
X92104Y65031D01*
X92099Y65039D01*
X91975Y65186D01*
X91852Y65333D01*
X91845Y65339D01*
X91839Y65346D01*
X91689Y65464D01*
X91538Y65586D01*
X91530Y65590D01*
X91523Y65596D01*
X91350Y65683D01*
X91181Y65771D01*
X91172Y65774D01*
X91164Y65778D01*
X90978Y65830D01*
X90794Y65883D01*
X90785Y65883D01*
X90776Y65886D01*
X90586Y65900D01*
X90392Y65916D01*
X90383Y65915D01*
X90375Y65915D01*
X90184Y65891D01*
X89993Y65869D01*
X89984Y65866D01*
X89975Y65865D01*
X89793Y65804D01*
X89610Y65744D01*
X89602Y65739D01*
X89593Y65737D01*
X89525Y65697D01*
X74632Y65697D01*
X73365Y66964D01*
X73344Y66981D01*
X73327Y67002D01*
X73189Y67109D01*
X73053Y67219D01*
X73030Y67232D01*
X73009Y67248D01*
X72852Y67326D01*
X72698Y67408D01*
X72672Y67416D01*
X72648Y67428D01*
X72479Y67473D01*
X72312Y67523D01*
X72285Y67525D01*
X72259Y67532D01*
X71929Y67559D01*
X49448Y67559D01*
X49027Y67980D01*
X49006Y67997D01*
X48988Y68018D01*
X48850Y68125D01*
X48715Y68235D01*
X48691Y68248D01*
X48670Y68264D01*
X48513Y68342D01*
X48359Y68424D01*
X48334Y68432D01*
X48310Y68444D01*
X48140Y68489D01*
X47973Y68539D01*
X47947Y68541D01*
X47921Y68548D01*
X47590Y68575D01*
X47031Y68575D01*
X47031Y81640D01*
X47030Y81657D01*
X47031Y81675D01*
X47010Y81858D01*
X46991Y82040D01*
X46986Y82057D01*
X46984Y82075D01*
X46927Y82250D01*
X46873Y82425D01*
X46865Y82441D01*
X46859Y82458D01*
X46769Y82618D01*
X46682Y82779D01*
X46670Y82793D01*
X46661Y82808D01*
X46541Y82948D01*
X46424Y83088D01*
X46424Y83089D01*
X46423Y83089D01*
X46410Y83100D01*
X46398Y83113D01*
X46398Y83114D01*
X46253Y83226D01*
X46110Y83341D01*
X46094Y83350D01*
X46080Y83360D01*
X45915Y83442D01*
X45752Y83527D01*
X45735Y83532D01*
X45719Y83540D01*
X45541Y83588D01*
X45365Y83638D01*
X45348Y83640D01*
X45330Y83644D01*
X45000Y83671D01*
X40975Y83671D01*
X40975Y93381D01*
X41079Y93768D01*
X41295Y94142D01*
X41355Y94276D01*
X41423Y94405D01*
X41438Y94459D01*
X41461Y94509D01*
X41494Y94652D01*
X41534Y94792D01*
X41539Y94848D01*
X41551Y94902D01*
X41555Y95048D01*
X41567Y95194D01*
X41560Y95249D01*
X41562Y95304D01*
X41537Y95448D01*
X41520Y95593D01*
X41503Y95646D01*
X41493Y95701D01*
X41440Y95837D01*
X41395Y95976D01*
X41368Y96025D01*
X41348Y96076D01*
X41269Y96199D01*
X41197Y96327D01*
X41161Y96369D01*
X41131Y96416D01*
X41030Y96521D01*
X40934Y96632D01*
X40890Y96665D01*
X40852Y96705D01*
X40731Y96789D01*
X40616Y96878D01*
X40566Y96903D01*
X40521Y96935D01*
X40386Y96992D01*
X40255Y97058D01*
X40202Y97072D01*
X40151Y97094D01*
X40008Y97124D01*
X39867Y97162D01*
X39804Y97167D01*
X39757Y97177D01*
X39673Y97178D01*
X39536Y97189D01*
X38422Y97189D01*
X23189Y112422D01*
X23189Y115892D01*
X23188Y115901D01*
X23189Y115910D01*
X23168Y116102D01*
X23149Y116293D01*
X23147Y116301D01*
X23146Y116310D01*
X23088Y116493D01*
X23031Y116678D01*
X23027Y116686D01*
X23024Y116694D01*
X22931Y116863D01*
X22839Y117032D01*
X22834Y117039D01*
X22829Y117047D01*
X22704Y117194D01*
X22582Y117341D01*
X22575Y117347D01*
X22569Y117354D01*
X22418Y117473D01*
X22268Y117593D01*
X22260Y117598D01*
X22253Y117603D01*
X22082Y117690D01*
X21911Y117779D01*
X21902Y117781D01*
X21894Y117785D01*
X21709Y117837D01*
X21524Y117890D01*
X21515Y117891D01*
X21506Y117893D01*
X21314Y117908D01*
X21122Y117923D01*
X21114Y117922D01*
X21105Y117923D01*
X20914Y117899D01*
X20723Y117876D01*
X20714Y117874D01*
X20705Y117872D01*
X20524Y117812D01*
X20340Y117751D01*
X20332Y117747D01*
X20324Y117744D01*
X20158Y117649D01*
X19989Y117554D01*
X19982Y117548D01*
X19975Y117543D01*
X19722Y117329D01*
X19202Y116809D01*
X8798Y116809D01*
X8548Y117059D01*
X8541Y117064D01*
X8536Y117071D01*
X8387Y117191D01*
X8237Y117314D01*
X8229Y117318D01*
X8222Y117323D01*
X8053Y117411D01*
X7881Y117502D01*
X7872Y117505D01*
X7865Y117509D01*
X7681Y117562D01*
X7495Y117617D01*
X7486Y117618D01*
X7478Y117620D01*
X7287Y117636D01*
X7094Y117653D01*
X7085Y117652D01*
X7076Y117653D01*
X6887Y117631D01*
X6694Y117610D01*
X6685Y117607D01*
X6677Y117606D01*
X6494Y117547D01*
X6310Y117489D01*
X6302Y117484D01*
X6294Y117481D01*
X6125Y117386D01*
X5958Y117294D01*
X5951Y117288D01*
X5943Y117284D01*
X5797Y117157D01*
X5651Y117033D01*
X5645Y117026D01*
X5638Y117020D01*
X5520Y116868D01*
X5401Y116717D01*
X5397Y116709D01*
X5392Y116702D01*
X5305Y116529D01*
X5219Y116358D01*
X5216Y116350D01*
X5212Y116342D01*
X5162Y116153D01*
X5111Y115971D01*
X5110Y115962D01*
X5108Y115953D01*
X5081Y115622D01*
X5081Y92572D01*
X5083Y92554D01*
X5081Y92536D01*
X5102Y92354D01*
X5121Y92171D01*
X5126Y92154D01*
X5128Y92137D01*
X5185Y91962D01*
X5239Y91786D01*
X5247Y91771D01*
X5253Y91754D01*
X5343Y91594D01*
X5431Y91432D01*
X5442Y91419D01*
X5451Y91403D01*
X5571Y91264D01*
X5688Y91123D01*
X5702Y91112D01*
X5714Y91098D01*
X5859Y90986D01*
X6002Y90871D01*
X6018Y90863D01*
X6032Y90852D01*
X6197Y90770D01*
X6359Y90685D01*
X6376Y90680D01*
X6392Y90672D01*
X6571Y90625D01*
X6746Y90574D01*
X6764Y90572D01*
X6781Y90568D01*
X7112Y90541D01*
X28052Y90541D01*
X29541Y89052D01*
X29541Y62948D01*
X28052Y61459D01*
X7112Y61459D01*
X7094Y61457D01*
X7076Y61459D01*
X6894Y61438D01*
X6711Y61419D01*
X6694Y61414D01*
X6677Y61412D01*
X6502Y61355D01*
X6326Y61301D01*
X6311Y61293D01*
X6294Y61287D01*
X6134Y61197D01*
X5972Y61109D01*
X5959Y61098D01*
X5943Y61089D01*
X5804Y60969D01*
X5663Y60852D01*
X5652Y60838D01*
X5638Y60826D01*
X5526Y60681D01*
X5411Y60538D01*
X5403Y60522D01*
X5392Y60508D01*
X5310Y60343D01*
X5225Y60181D01*
X5220Y60164D01*
X5212Y60148D01*
X5165Y59969D01*
X5114Y59794D01*
X5112Y59776D01*
X5108Y59759D01*
X5081Y59428D01*
X5081Y37572D01*
X5082Y37558D01*
X5081Y37545D01*
X5081Y37542D01*
X5081Y37536D01*
X5102Y37354D01*
X5121Y37171D01*
X5126Y37154D01*
X5128Y37137D01*
X5185Y36962D01*
X5239Y36786D01*
X5247Y36771D01*
X5253Y36754D01*
X5343Y36594D01*
X5431Y36432D01*
X5442Y36419D01*
X5451Y36403D01*
X5571Y36264D01*
X5688Y36123D01*
X5702Y36112D01*
X5714Y36098D01*
X5859Y35986D01*
X6002Y35871D01*
X6018Y35863D01*
X6032Y35852D01*
X6197Y35770D01*
X6359Y35685D01*
X6376Y35680D01*
X6392Y35672D01*
X6571Y35625D01*
X6746Y35574D01*
X6764Y35572D01*
X6781Y35568D01*
X7112Y35541D01*
X28052Y35541D01*
X29541Y34052D01*
X29541Y7112D01*
X29543Y7094D01*
X29541Y7076D01*
X29562Y6894D01*
X29581Y6711D01*
X29586Y6694D01*
X29588Y6677D01*
X29645Y6502D01*
X29699Y6326D01*
X29707Y6311D01*
X29713Y6294D01*
X29803Y6134D01*
X29891Y5972D01*
X29902Y5959D01*
X29911Y5943D01*
X30031Y5804D01*
X30148Y5663D01*
X30162Y5652D01*
X30174Y5638D01*
X30319Y5526D01*
X30462Y5411D01*
X30478Y5403D01*
X30492Y5392D01*
X30657Y5310D01*
X30819Y5225D01*
X30836Y5220D01*
X30852Y5212D01*
X31031Y5165D01*
X31206Y5114D01*
X31224Y5112D01*
X31241Y5108D01*
X31572Y5081D01*
X90428Y5081D01*
X90446Y5083D01*
G37*
%LPC*%
G36*
X384742Y256677D02*
X384742Y256677D01*
X382418Y257640D01*
X380640Y259418D01*
X379677Y261742D01*
X379677Y262733D01*
X379675Y262760D01*
X379677Y262786D01*
X379655Y262960D01*
X379637Y263134D01*
X379630Y263159D01*
X379626Y263186D01*
X379571Y263351D01*
X379519Y263518D01*
X379506Y263542D01*
X379498Y263567D01*
X379411Y263719D01*
X379327Y263873D01*
X379310Y263893D01*
X379297Y263916D01*
X379082Y264169D01*
X372554Y270698D01*
X371935Y272191D01*
X371935Y409646D01*
X371933Y409664D01*
X371935Y409682D01*
X371914Y409864D01*
X371895Y410047D01*
X371890Y410064D01*
X371888Y410081D01*
X371831Y410256D01*
X371777Y410432D01*
X371769Y410447D01*
X371763Y410464D01*
X371673Y410624D01*
X371585Y410786D01*
X371574Y410799D01*
X371565Y410815D01*
X371445Y410954D01*
X371328Y411095D01*
X371314Y411106D01*
X371302Y411120D01*
X371157Y411232D01*
X371014Y411347D01*
X370998Y411355D01*
X370984Y411366D01*
X370819Y411448D01*
X370657Y411533D01*
X370640Y411538D01*
X370624Y411546D01*
X370445Y411593D01*
X370270Y411644D01*
X370252Y411646D01*
X370235Y411650D01*
X369904Y411677D01*
X368742Y411677D01*
X367131Y412345D01*
X367118Y412348D01*
X367107Y412355D01*
X366927Y412406D01*
X366746Y412461D01*
X366733Y412462D01*
X366720Y412466D01*
X366532Y412481D01*
X366345Y412499D01*
X366332Y412498D01*
X366318Y412499D01*
X366132Y412477D01*
X365945Y412458D01*
X365932Y412454D01*
X365919Y412452D01*
X365739Y412394D01*
X365560Y412338D01*
X365549Y412331D01*
X365536Y412327D01*
X365372Y412235D01*
X365207Y412144D01*
X365197Y412136D01*
X365185Y412129D01*
X365043Y412007D01*
X364899Y411885D01*
X364891Y411875D01*
X364880Y411866D01*
X364766Y411718D01*
X364648Y411570D01*
X364642Y411558D01*
X364634Y411548D01*
X364550Y411380D01*
X364464Y411212D01*
X364460Y411200D01*
X364454Y411187D01*
X364405Y411005D01*
X364354Y410825D01*
X364353Y410812D01*
X364350Y410799D01*
X364323Y410468D01*
X364323Y407742D01*
X363360Y405418D01*
X361582Y403640D01*
X360152Y403048D01*
X359258Y402677D01*
X356742Y402677D01*
X354418Y403640D01*
X352640Y405418D01*
X351677Y407742D01*
X351677Y410258D01*
X352640Y412582D01*
X353594Y413536D01*
X353611Y413557D01*
X353632Y413574D01*
X353739Y413712D01*
X353849Y413848D01*
X353862Y413871D01*
X353878Y413892D01*
X353956Y414049D01*
X354038Y414203D01*
X354046Y414229D01*
X354058Y414253D01*
X354103Y414422D01*
X354153Y414589D01*
X354155Y414616D01*
X354162Y414642D01*
X354189Y414972D01*
X354189Y439578D01*
X356082Y441472D01*
X356099Y441492D01*
X356120Y441510D01*
X356227Y441648D01*
X356337Y441783D01*
X356350Y441807D01*
X356366Y441828D01*
X356444Y441985D01*
X356526Y442139D01*
X356534Y442164D01*
X356546Y442188D01*
X356591Y442357D01*
X356641Y442525D01*
X356643Y442551D01*
X356650Y442577D01*
X356677Y442908D01*
X356677Y444258D01*
X357640Y446582D01*
X359418Y448360D01*
X361742Y449323D01*
X364258Y449323D01*
X366582Y448360D01*
X368468Y446474D01*
X368475Y446468D01*
X368480Y446461D01*
X368630Y446341D01*
X368779Y446219D01*
X368787Y446215D01*
X368794Y446209D01*
X368964Y446121D01*
X369135Y446030D01*
X369144Y446028D01*
X369151Y446024D01*
X369336Y445971D01*
X369521Y445916D01*
X369530Y445915D01*
X369538Y445912D01*
X369729Y445897D01*
X369922Y445879D01*
X369931Y445880D01*
X369940Y445879D01*
X370129Y445902D01*
X370322Y445923D01*
X370331Y445925D01*
X370339Y445926D01*
X370521Y445986D01*
X370706Y446044D01*
X370714Y446048D01*
X370722Y446051D01*
X370891Y446146D01*
X371058Y446239D01*
X371065Y446245D01*
X371073Y446249D01*
X371219Y446375D01*
X371365Y446499D01*
X371371Y446506D01*
X371378Y446512D01*
X371495Y446664D01*
X371615Y446815D01*
X371619Y446823D01*
X371624Y446830D01*
X371710Y447002D01*
X371797Y447174D01*
X371800Y447183D01*
X371804Y447191D01*
X371854Y447377D01*
X371905Y447562D01*
X371906Y447571D01*
X371908Y447580D01*
X371935Y447910D01*
X371935Y491240D01*
X371933Y491262D01*
X371935Y491285D01*
X371913Y491462D01*
X371895Y491641D01*
X371889Y491662D01*
X371886Y491684D01*
X371830Y491854D01*
X371777Y492026D01*
X371767Y492045D01*
X371760Y492066D01*
X371671Y492222D01*
X371585Y492380D01*
X371571Y492397D01*
X371560Y492416D01*
X371442Y492552D01*
X371328Y492689D01*
X371310Y492703D01*
X371296Y492720D01*
X371154Y492829D01*
X371014Y492941D01*
X370994Y492952D01*
X370976Y492965D01*
X370681Y493117D01*
X369418Y493640D01*
X367640Y495418D01*
X367117Y496681D01*
X367106Y496701D01*
X367099Y496722D01*
X367011Y496878D01*
X366927Y497036D01*
X366912Y497053D01*
X366901Y497073D01*
X366784Y497208D01*
X366670Y497347D01*
X366653Y497361D01*
X366638Y497378D01*
X366497Y497487D01*
X366358Y497600D01*
X366338Y497611D01*
X366320Y497624D01*
X366159Y497704D01*
X366001Y497787D01*
X365980Y497794D01*
X365960Y497804D01*
X365786Y497850D01*
X365615Y497900D01*
X365592Y497902D01*
X365571Y497908D01*
X365240Y497935D01*
X305699Y497935D01*
X305668Y497932D01*
X305637Y497934D01*
X305467Y497912D01*
X305298Y497895D01*
X305268Y497886D01*
X305237Y497882D01*
X304922Y497781D01*
X302258Y496677D01*
X299742Y496677D01*
X297418Y497640D01*
X295640Y499418D01*
X294677Y501742D01*
X294677Y503092D01*
X294675Y503119D01*
X294677Y503145D01*
X294655Y503319D01*
X294637Y503493D01*
X294630Y503518D01*
X294626Y503545D01*
X294571Y503711D01*
X294519Y503878D01*
X294506Y503901D01*
X294498Y503927D01*
X294411Y504078D01*
X294327Y504232D01*
X294310Y504252D01*
X294297Y504275D01*
X294082Y504528D01*
X291189Y507422D01*
X291189Y515721D01*
X291187Y515743D01*
X291189Y515765D01*
X291167Y515943D01*
X291149Y516121D01*
X291143Y516143D01*
X291140Y516165D01*
X291084Y516335D01*
X291031Y516506D01*
X291021Y516526D01*
X291014Y516547D01*
X290925Y516703D01*
X290839Y516860D01*
X290825Y516877D01*
X290814Y516897D01*
X290696Y517033D01*
X290582Y517170D01*
X290564Y517183D01*
X290550Y517200D01*
X290408Y517310D01*
X290268Y517422D01*
X290248Y517432D01*
X290230Y517446D01*
X289935Y517597D01*
X287418Y518640D01*
X285640Y520418D01*
X284677Y522742D01*
X284677Y525258D01*
X285640Y527582D01*
X286594Y528536D01*
X286611Y528557D01*
X286632Y528574D01*
X286739Y528712D01*
X286849Y528848D01*
X286862Y528871D01*
X286878Y528892D01*
X286956Y529049D01*
X287038Y529203D01*
X287046Y529229D01*
X287058Y529253D01*
X287103Y529422D01*
X287153Y529589D01*
X287155Y529616D01*
X287162Y529642D01*
X287189Y529972D01*
X287189Y699580D01*
X287187Y699607D01*
X287189Y699633D01*
X287167Y699807D01*
X287149Y699981D01*
X287142Y700006D01*
X287138Y700033D01*
X287083Y700199D01*
X287031Y700366D01*
X287018Y700389D01*
X287010Y700415D01*
X286923Y700566D01*
X286839Y700720D01*
X286822Y700740D01*
X286809Y700763D01*
X286594Y701016D01*
X260189Y727422D01*
X260189Y900942D01*
X260187Y900964D01*
X260189Y900986D01*
X260167Y901163D01*
X260149Y901342D01*
X260143Y901364D01*
X260140Y901386D01*
X260084Y901556D01*
X260031Y901727D01*
X260021Y901747D01*
X260014Y901768D01*
X259925Y901924D01*
X259839Y902081D01*
X259825Y902098D01*
X259814Y902118D01*
X259696Y902253D01*
X259582Y902390D01*
X259564Y902404D01*
X259550Y902421D01*
X259408Y902530D01*
X259268Y902643D01*
X259248Y902653D01*
X259230Y902667D01*
X258935Y902818D01*
X257025Y903609D01*
X253809Y906825D01*
X252677Y909560D01*
X252672Y909568D01*
X252670Y909576D01*
X252578Y909744D01*
X252486Y909915D01*
X252481Y909922D01*
X252476Y909930D01*
X252353Y910076D01*
X252230Y910225D01*
X252223Y910231D01*
X252217Y910238D01*
X252067Y910358D01*
X251917Y910479D01*
X251909Y910483D01*
X251903Y910489D01*
X251732Y910576D01*
X251561Y910666D01*
X251552Y910669D01*
X251544Y910673D01*
X251360Y910725D01*
X251174Y910779D01*
X251166Y910780D01*
X251157Y910782D01*
X250966Y910797D01*
X250773Y910814D01*
X250764Y910813D01*
X250756Y910813D01*
X250566Y910790D01*
X250373Y910769D01*
X250365Y910766D01*
X250356Y910765D01*
X250174Y910705D01*
X249990Y910645D01*
X249982Y910641D01*
X249974Y910638D01*
X249806Y910543D01*
X249638Y910449D01*
X249632Y910443D01*
X249624Y910439D01*
X249479Y910312D01*
X249333Y910187D01*
X249327Y910180D01*
X249320Y910174D01*
X249203Y910022D01*
X249084Y909870D01*
X249080Y909862D01*
X249075Y909855D01*
X248923Y909560D01*
X247791Y906825D01*
X244575Y903609D01*
X240374Y901869D01*
X235826Y901869D01*
X231625Y903609D01*
X228409Y906825D01*
X226671Y911023D01*
X226629Y911101D01*
X226596Y911184D01*
X226534Y911278D01*
X226481Y911378D01*
X226424Y911446D01*
X226375Y911521D01*
X226296Y911601D01*
X226224Y911688D01*
X226155Y911744D01*
X226093Y911807D01*
X225999Y911871D01*
X225911Y911942D01*
X225833Y911983D01*
X225759Y912033D01*
X225655Y912077D01*
X225555Y912129D01*
X225470Y912154D01*
X225388Y912188D01*
X225277Y912210D01*
X225169Y912242D01*
X225080Y912250D01*
X224993Y912267D01*
X224880Y912267D01*
X224767Y912277D01*
X224679Y912267D01*
X224590Y912267D01*
X224479Y912244D01*
X224367Y912232D01*
X224283Y912204D01*
X224196Y912187D01*
X224092Y912143D01*
X223984Y912108D01*
X223907Y912065D01*
X223825Y912031D01*
X223731Y911967D01*
X223633Y911912D01*
X223565Y911854D01*
X223492Y911804D01*
X223413Y911724D01*
X223327Y911650D01*
X223272Y911580D01*
X223210Y911517D01*
X223148Y911422D01*
X223078Y911333D01*
X223039Y911254D01*
X222990Y911179D01*
X222936Y911049D01*
X222898Y910973D01*
X222886Y910929D01*
X222862Y910873D01*
X222352Y909302D01*
X221607Y907841D01*
X220644Y906515D01*
X219485Y905356D01*
X218159Y904393D01*
X216698Y903648D01*
X215199Y903161D01*
X215199Y912832D01*
X215197Y912850D01*
X215199Y912867D01*
X215178Y913049D01*
X215159Y913232D01*
X215154Y913249D01*
X215152Y913267D01*
X215139Y913308D01*
X215166Y913402D01*
X215168Y913420D01*
X215172Y913437D01*
X215199Y913768D01*
X215199Y923439D01*
X216698Y922952D01*
X218159Y922207D01*
X219485Y921244D01*
X220644Y920085D01*
X221607Y918759D01*
X222352Y917298D01*
X222862Y915727D01*
X222898Y915645D01*
X222924Y915561D01*
X222978Y915462D01*
X223024Y915358D01*
X223075Y915285D01*
X223118Y915207D01*
X223190Y915121D01*
X223255Y915028D01*
X223320Y914967D01*
X223377Y914899D01*
X223465Y914829D01*
X223547Y914751D01*
X223622Y914704D01*
X223692Y914648D01*
X223792Y914597D01*
X223888Y914537D01*
X223971Y914505D01*
X224050Y914464D01*
X224158Y914434D01*
X224264Y914393D01*
X224352Y914379D01*
X224437Y914355D01*
X224550Y914346D01*
X224661Y914327D01*
X224750Y914330D01*
X224838Y914324D01*
X224951Y914337D01*
X225064Y914341D01*
X225150Y914362D01*
X225238Y914372D01*
X225345Y914408D01*
X225455Y914434D01*
X225536Y914471D01*
X225620Y914499D01*
X225718Y914555D01*
X225821Y914602D01*
X225893Y914654D01*
X225970Y914698D01*
X226055Y914773D01*
X226147Y914839D01*
X226207Y914904D01*
X226274Y914963D01*
X226343Y915052D01*
X226419Y915136D01*
X226465Y915212D01*
X226519Y915282D01*
X226584Y915407D01*
X226627Y915480D01*
X226643Y915523D01*
X226671Y915577D01*
X228409Y919775D01*
X231625Y922991D01*
X235826Y924731D01*
X239300Y924731D01*
X239327Y924733D01*
X239353Y924731D01*
X239527Y924753D01*
X239701Y924771D01*
X239726Y924778D01*
X239753Y924782D01*
X239918Y924837D01*
X240086Y924889D01*
X240109Y924902D01*
X240135Y924910D01*
X240286Y924997D01*
X240440Y925081D01*
X240460Y925098D01*
X240483Y925111D01*
X240736Y925326D01*
X246371Y930960D01*
X246376Y930967D01*
X246383Y930972D01*
X246503Y931122D01*
X246626Y931271D01*
X246630Y931279D01*
X246635Y931286D01*
X246724Y931456D01*
X246814Y931627D01*
X246817Y931635D01*
X246821Y931643D01*
X246874Y931828D01*
X246929Y932013D01*
X246930Y932022D01*
X246932Y932030D01*
X246948Y932222D01*
X246965Y932414D01*
X246964Y932423D01*
X246965Y932432D01*
X246943Y932621D01*
X246922Y932814D01*
X246919Y932823D01*
X246918Y932831D01*
X246859Y933012D01*
X246801Y933198D01*
X246796Y933206D01*
X246793Y933214D01*
X246698Y933383D01*
X246606Y933550D01*
X246600Y933557D01*
X246596Y933565D01*
X246470Y933711D01*
X246345Y933857D01*
X246338Y933863D01*
X246332Y933870D01*
X246181Y933987D01*
X246029Y934107D01*
X246021Y934111D01*
X246014Y934116D01*
X245842Y934202D01*
X245670Y934289D01*
X245662Y934292D01*
X245654Y934296D01*
X245467Y934346D01*
X245282Y934397D01*
X245274Y934398D01*
X245265Y934400D01*
X244934Y934427D01*
X215735Y934427D01*
X215709Y934425D01*
X215682Y934427D01*
X215508Y934405D01*
X215335Y934387D01*
X215309Y934380D01*
X215283Y934376D01*
X215117Y934321D01*
X214950Y934269D01*
X214926Y934256D01*
X214901Y934248D01*
X214750Y934161D01*
X214596Y934077D01*
X214575Y934060D01*
X214552Y934047D01*
X214299Y933832D01*
X206858Y926391D01*
X206778Y926294D01*
X206691Y926202D01*
X206651Y926138D01*
X206603Y926080D01*
X206544Y925968D01*
X206477Y925861D01*
X206450Y925791D01*
X206414Y925724D01*
X206378Y925603D01*
X206334Y925485D01*
X206321Y925411D01*
X206300Y925338D01*
X206288Y925212D01*
X206268Y925088D01*
X206270Y925012D01*
X206263Y924937D01*
X206277Y924811D01*
X206281Y924685D01*
X206299Y924612D01*
X206307Y924537D01*
X206345Y924417D01*
X206374Y924294D01*
X206405Y924225D01*
X206428Y924153D01*
X206489Y924042D01*
X206542Y923928D01*
X206587Y923867D01*
X206623Y923801D01*
X206705Y923705D01*
X206779Y923602D01*
X206835Y923551D01*
X206883Y923494D01*
X206983Y923415D01*
X207076Y923330D01*
X207140Y923291D01*
X207199Y923244D01*
X207312Y923187D01*
X207420Y923122D01*
X207491Y923096D01*
X207558Y923062D01*
X207680Y923028D01*
X207799Y922985D01*
X207873Y922974D01*
X207946Y922954D01*
X208072Y922945D01*
X208197Y922926D01*
X208272Y922930D01*
X208348Y922924D01*
X208473Y922940D01*
X208599Y922947D01*
X208685Y922967D01*
X208747Y922975D01*
X208817Y922998D01*
X208922Y923023D01*
X210201Y923439D01*
X210201Y913768D01*
X210202Y913750D01*
X210201Y913733D01*
X210222Y913550D01*
X210241Y913368D01*
X210246Y913350D01*
X210248Y913333D01*
X210261Y913292D01*
X210234Y913198D01*
X210232Y913180D01*
X210228Y913163D01*
X210201Y912832D01*
X210201Y903161D01*
X208702Y903648D01*
X207241Y904393D01*
X205915Y905356D01*
X204756Y906515D01*
X203793Y907841D01*
X203048Y909302D01*
X202538Y910873D01*
X202502Y910955D01*
X202476Y911039D01*
X202422Y911138D01*
X202376Y911242D01*
X202325Y911315D01*
X202282Y911393D01*
X202210Y911479D01*
X202145Y911572D01*
X202080Y911633D01*
X202023Y911701D01*
X201935Y911771D01*
X201853Y911849D01*
X201778Y911896D01*
X201708Y911952D01*
X201608Y912003D01*
X201512Y912063D01*
X201429Y912095D01*
X201350Y912136D01*
X201242Y912166D01*
X201136Y912207D01*
X201048Y912221D01*
X200963Y912245D01*
X200850Y912254D01*
X200739Y912273D01*
X200650Y912270D01*
X200562Y912276D01*
X200449Y912263D01*
X200336Y912259D01*
X200250Y912238D01*
X200162Y912228D01*
X200055Y912192D01*
X199945Y912166D01*
X199864Y912129D01*
X199780Y912101D01*
X199682Y912045D01*
X199579Y911998D01*
X199507Y911946D01*
X199430Y911902D01*
X199345Y911827D01*
X199253Y911761D01*
X199193Y911696D01*
X199126Y911637D01*
X199057Y911548D01*
X198981Y911464D01*
X198935Y911388D01*
X198881Y911318D01*
X198816Y911193D01*
X198773Y911120D01*
X198757Y911077D01*
X198729Y911023D01*
X196991Y906825D01*
X193775Y903609D01*
X189574Y901869D01*
X185026Y901869D01*
X180825Y903609D01*
X177609Y906825D01*
X175869Y911026D01*
X175869Y915574D01*
X177609Y919775D01*
X180825Y922991D01*
X185026Y924731D01*
X189574Y924731D01*
X190222Y924462D01*
X190243Y924456D01*
X190263Y924446D01*
X190436Y924397D01*
X190607Y924346D01*
X190630Y924344D01*
X190651Y924338D01*
X190831Y924324D01*
X191008Y924308D01*
X191030Y924310D01*
X191053Y924308D01*
X191231Y924331D01*
X191409Y924349D01*
X191430Y924356D01*
X191452Y924359D01*
X191622Y924416D01*
X191793Y924469D01*
X191813Y924480D01*
X191834Y924487D01*
X191989Y924576D01*
X192146Y924662D01*
X192163Y924677D01*
X192183Y924688D01*
X192436Y924902D01*
X210410Y942877D01*
X212090Y943573D01*
X278910Y943573D01*
X280590Y942877D01*
X292877Y930590D01*
X293573Y928910D01*
X293573Y899090D01*
X292877Y897410D01*
X291305Y895838D01*
X287168Y891701D01*
X287151Y891680D01*
X287130Y891663D01*
X287023Y891525D01*
X286913Y891389D01*
X286900Y891366D01*
X286884Y891345D01*
X286806Y891188D01*
X286724Y891034D01*
X286716Y891008D01*
X286704Y890984D01*
X286659Y890815D01*
X286609Y890648D01*
X286607Y890621D01*
X286600Y890595D01*
X286573Y890265D01*
X286573Y740735D01*
X286575Y740709D01*
X286573Y740682D01*
X286595Y740509D01*
X286613Y740335D01*
X286620Y740309D01*
X286624Y740283D01*
X286679Y740117D01*
X286731Y739950D01*
X286743Y739926D01*
X286752Y739901D01*
X286839Y739750D01*
X286923Y739596D01*
X286940Y739575D01*
X286953Y739552D01*
X287168Y739299D01*
X287512Y738955D01*
X287522Y738946D01*
X287531Y738936D01*
X287541Y738928D01*
X287548Y738920D01*
X287675Y738821D01*
X287678Y738819D01*
X287823Y738700D01*
X287835Y738694D01*
X287846Y738685D01*
X287860Y738678D01*
X287866Y738673D01*
X287972Y738620D01*
X288014Y738599D01*
X288179Y738511D01*
X288192Y738507D01*
X288204Y738501D01*
X288222Y738496D01*
X288227Y738494D01*
X288305Y738473D01*
X288386Y738450D01*
X288565Y738396D01*
X288578Y738395D01*
X288591Y738392D01*
X288612Y738390D01*
X288615Y738389D01*
X288926Y738364D01*
X288966Y738360D01*
X288979Y738361D01*
X288993Y738360D01*
X289178Y738383D01*
X289366Y738403D01*
X289379Y738407D01*
X289392Y738409D01*
X289570Y738468D01*
X289750Y738525D01*
X289762Y738531D01*
X289775Y738536D01*
X289937Y738628D01*
X290059Y738696D01*
X290089Y738712D01*
X290090Y738713D01*
X290102Y738720D01*
X290113Y738728D01*
X290124Y738735D01*
X290265Y738858D01*
X290339Y738921D01*
X290398Y738970D01*
X290400Y738972D01*
X290409Y738980D01*
X290418Y738991D01*
X290428Y739000D01*
X290542Y739148D01*
X290573Y739187D01*
X290650Y739283D01*
X290653Y739288D01*
X290659Y739296D01*
X290665Y739308D01*
X290673Y739319D01*
X290825Y739614D01*
X291640Y741582D01*
X292340Y742282D01*
X292357Y742303D01*
X292378Y742320D01*
X292485Y742458D01*
X292595Y742594D01*
X292608Y742617D01*
X292624Y742638D01*
X292702Y742795D01*
X292784Y742949D01*
X292792Y742975D01*
X292804Y742999D01*
X292849Y743168D01*
X292899Y743335D01*
X292901Y743362D01*
X292908Y743388D01*
X292935Y743718D01*
X292935Y825809D01*
X293554Y827302D01*
X303082Y836831D01*
X303099Y836851D01*
X303120Y836869D01*
X303227Y837007D01*
X303337Y837142D01*
X303350Y837166D01*
X303366Y837187D01*
X303444Y837344D01*
X303526Y837498D01*
X303534Y837523D01*
X303546Y837548D01*
X303591Y837717D01*
X303641Y837884D01*
X303643Y837910D01*
X303650Y837936D01*
X303677Y838267D01*
X303677Y839258D01*
X304640Y841582D01*
X306418Y843360D01*
X308742Y844323D01*
X311258Y844323D01*
X313582Y843360D01*
X315360Y841582D01*
X316323Y839258D01*
X316323Y836742D01*
X315360Y834418D01*
X313582Y832640D01*
X311258Y831677D01*
X310267Y831677D01*
X310240Y831675D01*
X310214Y831677D01*
X310040Y831655D01*
X309866Y831637D01*
X309841Y831630D01*
X309814Y831626D01*
X309649Y831571D01*
X309482Y831519D01*
X309458Y831506D01*
X309433Y831498D01*
X309281Y831411D01*
X309127Y831327D01*
X309107Y831310D01*
X309084Y831297D01*
X308831Y831082D01*
X301660Y823911D01*
X301643Y823891D01*
X301622Y823873D01*
X301515Y823735D01*
X301405Y823600D01*
X301392Y823576D01*
X301376Y823555D01*
X301298Y823398D01*
X301216Y823244D01*
X301208Y823219D01*
X301196Y823194D01*
X301151Y823025D01*
X301101Y822858D01*
X301099Y822832D01*
X301092Y822806D01*
X301065Y822475D01*
X301065Y743718D01*
X301067Y743692D01*
X301065Y743665D01*
X301087Y743491D01*
X301105Y743318D01*
X301112Y743292D01*
X301116Y743266D01*
X301171Y743100D01*
X301223Y742933D01*
X301236Y742909D01*
X301244Y742884D01*
X301331Y742732D01*
X301415Y742579D01*
X301432Y742558D01*
X301445Y742535D01*
X301660Y742282D01*
X302360Y741582D01*
X303323Y739258D01*
X303323Y736742D01*
X302360Y734418D01*
X300582Y732640D01*
X298614Y731825D01*
X298602Y731819D01*
X298589Y731814D01*
X298424Y731723D01*
X298259Y731635D01*
X298249Y731626D01*
X298237Y731620D01*
X298094Y731498D01*
X297949Y731378D01*
X297940Y731368D01*
X297930Y731359D01*
X297814Y731212D01*
X297695Y731066D01*
X297689Y731054D01*
X297680Y731043D01*
X297595Y730875D01*
X297508Y730709D01*
X297504Y730696D01*
X297498Y730684D01*
X297448Y730503D01*
X297395Y730323D01*
X297394Y730309D01*
X297390Y730296D01*
X297376Y730108D01*
X297360Y729922D01*
X297362Y729908D01*
X297361Y729895D01*
X297384Y729708D01*
X297405Y729521D01*
X297409Y729509D01*
X297411Y729495D01*
X297471Y729317D01*
X297528Y729138D01*
X297535Y729126D01*
X297539Y729114D01*
X297633Y728951D01*
X297725Y728787D01*
X297733Y728777D01*
X297740Y728765D01*
X297955Y728512D01*
X304299Y722168D01*
X304320Y722151D01*
X304337Y722130D01*
X304475Y722023D01*
X304611Y721913D01*
X304634Y721900D01*
X304655Y721884D01*
X304812Y721806D01*
X304966Y721724D01*
X304992Y721716D01*
X305016Y721704D01*
X305185Y721659D01*
X305352Y721609D01*
X305379Y721607D01*
X305405Y721600D01*
X305735Y721573D01*
X326083Y721573D01*
X326109Y721575D01*
X326136Y721573D01*
X326310Y721595D01*
X326483Y721613D01*
X326509Y721620D01*
X326535Y721624D01*
X326701Y721679D01*
X326868Y721731D01*
X326892Y721744D01*
X326917Y721752D01*
X327069Y721839D01*
X327222Y721923D01*
X327243Y721940D01*
X327266Y721953D01*
X327519Y722168D01*
X328135Y722784D01*
X330643Y723823D01*
X333357Y723823D01*
X335865Y722784D01*
X337784Y720865D01*
X338823Y718357D01*
X338823Y715643D01*
X337784Y713135D01*
X335865Y711216D01*
X333357Y710177D01*
X330643Y710177D01*
X328135Y711216D01*
X327519Y711832D01*
X327498Y711849D01*
X327481Y711870D01*
X327343Y711977D01*
X327207Y712087D01*
X327184Y712100D01*
X327163Y712116D01*
X327006Y712194D01*
X326852Y712276D01*
X326826Y712284D01*
X326802Y712296D01*
X326633Y712341D01*
X326466Y712391D01*
X326439Y712393D01*
X326413Y712400D01*
X326083Y712427D01*
X301866Y712427D01*
X301857Y712426D01*
X301848Y712427D01*
X301656Y712406D01*
X301465Y712387D01*
X301457Y712385D01*
X301448Y712384D01*
X301265Y712326D01*
X301080Y712269D01*
X301072Y712265D01*
X301064Y712262D01*
X300895Y712169D01*
X300726Y712077D01*
X300719Y712072D01*
X300712Y712067D01*
X300565Y711943D01*
X300417Y711820D01*
X300411Y711813D01*
X300405Y711807D01*
X300285Y711656D01*
X300165Y711506D01*
X300160Y711498D01*
X300155Y711491D01*
X300067Y711318D01*
X299979Y711149D01*
X299977Y711140D01*
X299973Y711132D01*
X299921Y710946D01*
X299868Y710762D01*
X299867Y710753D01*
X299865Y710744D01*
X299850Y710551D01*
X299835Y710360D01*
X299836Y710352D01*
X299835Y710343D01*
X299860Y710150D01*
X299882Y709961D01*
X299884Y709952D01*
X299886Y709943D01*
X299947Y709760D01*
X300007Y709578D01*
X300011Y709570D01*
X300014Y709562D01*
X300110Y709395D01*
X300204Y709227D01*
X300210Y709220D01*
X300215Y709213D01*
X300429Y708960D01*
X303311Y706078D01*
X303311Y537920D01*
X303313Y537893D01*
X303311Y537867D01*
X303333Y537693D01*
X303351Y537519D01*
X303358Y537494D01*
X303362Y537467D01*
X303417Y537301D01*
X303469Y537134D01*
X303482Y537111D01*
X303490Y537085D01*
X303577Y536934D01*
X303661Y536780D01*
X303678Y536760D01*
X303691Y536737D01*
X303906Y536484D01*
X316311Y524078D01*
X316311Y521472D01*
X316313Y521446D01*
X316311Y521419D01*
X316333Y521245D01*
X316351Y521072D01*
X316358Y521046D01*
X316362Y521020D01*
X316418Y520854D01*
X316469Y520687D01*
X316482Y520663D01*
X316490Y520638D01*
X316577Y520487D01*
X316661Y520333D01*
X316678Y520312D01*
X316691Y520289D01*
X316906Y520036D01*
X317860Y519082D01*
X318824Y516755D01*
X318825Y516740D01*
X318823Y516714D01*
X318845Y516540D01*
X318863Y516366D01*
X318870Y516341D01*
X318874Y516314D01*
X318929Y516149D01*
X318981Y515982D01*
X318994Y515958D01*
X319002Y515933D01*
X319089Y515781D01*
X319173Y515627D01*
X319190Y515607D01*
X319203Y515584D01*
X319418Y515331D01*
X319874Y514874D01*
X319895Y514857D01*
X319913Y514837D01*
X320051Y514730D01*
X320186Y514619D01*
X320210Y514606D01*
X320231Y514590D01*
X320388Y514512D01*
X320542Y514430D01*
X320567Y514423D01*
X320591Y514411D01*
X320761Y514365D01*
X320928Y514315D01*
X320954Y514313D01*
X320980Y514306D01*
X321311Y514279D01*
X377594Y514279D01*
X379088Y513660D01*
X380064Y512685D01*
X380077Y512673D01*
X380089Y512660D01*
X380233Y512546D01*
X380375Y512430D01*
X380391Y512421D01*
X380405Y512410D01*
X380569Y512327D01*
X380731Y512241D01*
X380748Y512236D01*
X380764Y512228D01*
X380941Y512179D01*
X381117Y512126D01*
X381135Y512125D01*
X381152Y512120D01*
X381335Y512106D01*
X381518Y512090D01*
X381536Y512092D01*
X381553Y512090D01*
X381735Y512113D01*
X381918Y512133D01*
X381935Y512139D01*
X381953Y512141D01*
X382126Y512199D01*
X382302Y512255D01*
X382318Y512263D01*
X382334Y512269D01*
X382493Y512361D01*
X382654Y512450D01*
X382668Y512461D01*
X382683Y512470D01*
X382936Y512685D01*
X384275Y514023D01*
X384289Y514041D01*
X384306Y514055D01*
X384416Y514195D01*
X384530Y514335D01*
X384540Y514354D01*
X384554Y514372D01*
X384635Y514533D01*
X384718Y514690D01*
X384725Y514712D01*
X384735Y514732D01*
X384782Y514905D01*
X384833Y515076D01*
X384835Y515098D01*
X384841Y515120D01*
X384853Y515299D01*
X384870Y515477D01*
X384867Y515499D01*
X384869Y515522D01*
X384846Y515699D01*
X384826Y515878D01*
X384820Y515899D01*
X384817Y515921D01*
X384715Y516237D01*
X383677Y518742D01*
X383677Y521258D01*
X384640Y523582D01*
X386418Y525360D01*
X388742Y526323D01*
X391258Y526323D01*
X393582Y525360D01*
X395360Y523582D01*
X396323Y521258D01*
X396323Y518742D01*
X395360Y516418D01*
X394660Y515718D01*
X394643Y515697D01*
X394622Y515680D01*
X394515Y515542D01*
X394405Y515406D01*
X394392Y515383D01*
X394376Y515362D01*
X394298Y515205D01*
X394216Y515051D01*
X394208Y515025D01*
X394196Y515001D01*
X394151Y514832D01*
X394101Y514665D01*
X394099Y514638D01*
X394092Y514612D01*
X394065Y514282D01*
X394065Y513191D01*
X393446Y511698D01*
X388685Y506936D01*
X388673Y506922D01*
X388659Y506910D01*
X388546Y506766D01*
X388430Y506625D01*
X388421Y506609D01*
X388410Y506594D01*
X388326Y506430D01*
X388241Y506269D01*
X388236Y506252D01*
X388228Y506235D01*
X388178Y506058D01*
X388126Y505883D01*
X388125Y505865D01*
X388120Y505848D01*
X388106Y505666D01*
X388090Y505482D01*
X388092Y505464D01*
X388090Y505446D01*
X388113Y505265D01*
X388133Y505082D01*
X388139Y505065D01*
X388141Y505047D01*
X388199Y504874D01*
X388255Y504698D01*
X388264Y504682D01*
X388269Y504665D01*
X388361Y504507D01*
X388364Y504501D01*
X389065Y502809D01*
X389065Y450618D01*
X389066Y450609D01*
X389065Y450600D01*
X389086Y450408D01*
X389105Y450217D01*
X389107Y450209D01*
X389108Y450200D01*
X389166Y450018D01*
X389223Y449832D01*
X389227Y449825D01*
X389230Y449816D01*
X389323Y449648D01*
X389415Y449478D01*
X389420Y449472D01*
X389425Y449464D01*
X389549Y449317D01*
X389672Y449169D01*
X389679Y449164D01*
X389685Y449157D01*
X389836Y449038D01*
X389986Y448917D01*
X389994Y448913D01*
X390001Y448907D01*
X390174Y448819D01*
X390343Y448731D01*
X390352Y448729D01*
X390360Y448725D01*
X390546Y448673D01*
X390730Y448620D01*
X390739Y448619D01*
X390748Y448617D01*
X390941Y448603D01*
X391132Y448587D01*
X391140Y448588D01*
X391149Y448587D01*
X391342Y448612D01*
X391531Y448634D01*
X391540Y448637D01*
X391549Y448638D01*
X391732Y448699D01*
X391914Y448759D01*
X391922Y448763D01*
X391930Y448766D01*
X392096Y448861D01*
X392265Y448957D01*
X392272Y448963D01*
X392279Y448967D01*
X392532Y449182D01*
X395164Y451814D01*
X398899Y453361D01*
X418181Y453361D01*
X421916Y451814D01*
X424774Y448956D01*
X426321Y445221D01*
X426321Y441179D01*
X424774Y437444D01*
X421916Y434586D01*
X418181Y433039D01*
X398899Y433039D01*
X395164Y434586D01*
X392532Y437218D01*
X392525Y437224D01*
X392520Y437231D01*
X392370Y437351D01*
X392221Y437473D01*
X392213Y437478D01*
X392206Y437483D01*
X392036Y437572D01*
X391865Y437662D01*
X391856Y437665D01*
X391849Y437669D01*
X391664Y437722D01*
X391479Y437777D01*
X391470Y437778D01*
X391462Y437780D01*
X391271Y437796D01*
X391078Y437813D01*
X391069Y437812D01*
X391060Y437813D01*
X390871Y437791D01*
X390678Y437770D01*
X390669Y437767D01*
X390661Y437766D01*
X390479Y437707D01*
X390294Y437648D01*
X390286Y437644D01*
X390278Y437641D01*
X390109Y437546D01*
X389942Y437453D01*
X389935Y437448D01*
X389927Y437443D01*
X389781Y437317D01*
X389635Y437193D01*
X389629Y437186D01*
X389622Y437180D01*
X389505Y437029D01*
X389385Y436877D01*
X389381Y436869D01*
X389376Y436862D01*
X389290Y436690D01*
X389203Y436518D01*
X389200Y436510D01*
X389196Y436501D01*
X389146Y436316D01*
X389095Y436130D01*
X389094Y436121D01*
X389092Y436113D01*
X389065Y435782D01*
X389065Y427758D01*
X389066Y427749D01*
X389065Y427740D01*
X389086Y427549D01*
X389105Y427357D01*
X389107Y427349D01*
X389108Y427340D01*
X389166Y427157D01*
X389223Y426972D01*
X389227Y426965D01*
X389230Y426956D01*
X389323Y426787D01*
X389415Y426618D01*
X389420Y426612D01*
X389425Y426604D01*
X389550Y426455D01*
X389672Y426309D01*
X389679Y426304D01*
X389685Y426297D01*
X389836Y426177D01*
X389986Y426057D01*
X389994Y426053D01*
X390001Y426047D01*
X390173Y425960D01*
X390343Y425871D01*
X390352Y425869D01*
X390360Y425865D01*
X390546Y425813D01*
X390730Y425760D01*
X390739Y425759D01*
X390748Y425757D01*
X390940Y425743D01*
X391132Y425727D01*
X391140Y425728D01*
X391149Y425727D01*
X391341Y425752D01*
X391531Y425774D01*
X391540Y425777D01*
X391549Y425778D01*
X391730Y425839D01*
X391914Y425899D01*
X391922Y425903D01*
X391930Y425906D01*
X392096Y426002D01*
X392265Y426097D01*
X392272Y426103D01*
X392279Y426107D01*
X392532Y426322D01*
X392624Y426414D01*
X396359Y427961D01*
X415641Y427961D01*
X419376Y426414D01*
X422234Y423556D01*
X423781Y419821D01*
X423781Y415779D01*
X422234Y412044D01*
X419376Y409186D01*
X415641Y407639D01*
X396359Y407639D01*
X392624Y409186D01*
X392532Y409278D01*
X392525Y409284D01*
X392520Y409291D01*
X392370Y409411D01*
X392221Y409533D01*
X392213Y409538D01*
X392206Y409543D01*
X392036Y409632D01*
X391865Y409722D01*
X391857Y409725D01*
X391849Y409729D01*
X391663Y409782D01*
X391479Y409837D01*
X391470Y409838D01*
X391462Y409840D01*
X391270Y409856D01*
X391078Y409873D01*
X391069Y409872D01*
X391060Y409873D01*
X390870Y409851D01*
X390678Y409830D01*
X390669Y409827D01*
X390661Y409826D01*
X390478Y409767D01*
X390294Y409708D01*
X390286Y409704D01*
X390278Y409701D01*
X390111Y409607D01*
X389942Y409513D01*
X389935Y409508D01*
X389927Y409503D01*
X389782Y409378D01*
X389635Y409253D01*
X389629Y409246D01*
X389622Y409240D01*
X389505Y409089D01*
X389385Y408937D01*
X389381Y408929D01*
X389376Y408922D01*
X389290Y408750D01*
X389203Y408578D01*
X389200Y408570D01*
X389196Y408561D01*
X389146Y408374D01*
X389095Y408190D01*
X389094Y408181D01*
X389092Y408173D01*
X389065Y407842D01*
X389065Y399818D01*
X389066Y399809D01*
X389065Y399800D01*
X389086Y399608D01*
X389105Y399417D01*
X389107Y399409D01*
X389108Y399400D01*
X389166Y399218D01*
X389223Y399032D01*
X389227Y399025D01*
X389230Y399016D01*
X389323Y398848D01*
X389415Y398678D01*
X389420Y398672D01*
X389425Y398664D01*
X389549Y398517D01*
X389672Y398369D01*
X389679Y398364D01*
X389685Y398357D01*
X389836Y398238D01*
X389986Y398117D01*
X389994Y398113D01*
X390001Y398107D01*
X390174Y398019D01*
X390343Y397931D01*
X390352Y397929D01*
X390360Y397925D01*
X390546Y397873D01*
X390730Y397820D01*
X390739Y397819D01*
X390748Y397817D01*
X390941Y397803D01*
X391132Y397787D01*
X391140Y397788D01*
X391149Y397787D01*
X391342Y397812D01*
X391531Y397834D01*
X391540Y397837D01*
X391549Y397838D01*
X391732Y397899D01*
X391914Y397959D01*
X391922Y397963D01*
X391930Y397966D01*
X392096Y398061D01*
X392265Y398157D01*
X392272Y398163D01*
X392279Y398167D01*
X392532Y398382D01*
X395164Y401014D01*
X398899Y402561D01*
X418181Y402561D01*
X421916Y401014D01*
X424774Y398156D01*
X426321Y394421D01*
X426321Y390379D01*
X424774Y386644D01*
X421916Y383786D01*
X418181Y382239D01*
X398899Y382239D01*
X395164Y383786D01*
X392532Y386418D01*
X392525Y386424D01*
X392520Y386431D01*
X392370Y386551D01*
X392221Y386673D01*
X392213Y386678D01*
X392206Y386683D01*
X392036Y386772D01*
X391865Y386862D01*
X391856Y386865D01*
X391849Y386869D01*
X391664Y386922D01*
X391479Y386977D01*
X391470Y386978D01*
X391462Y386980D01*
X391271Y386996D01*
X391078Y387013D01*
X391069Y387012D01*
X391060Y387013D01*
X390871Y386991D01*
X390678Y386970D01*
X390669Y386967D01*
X390661Y386966D01*
X390479Y386907D01*
X390294Y386848D01*
X390286Y386844D01*
X390278Y386841D01*
X390109Y386746D01*
X389942Y386653D01*
X389935Y386648D01*
X389927Y386643D01*
X389781Y386517D01*
X389635Y386393D01*
X389629Y386386D01*
X389622Y386380D01*
X389505Y386229D01*
X389385Y386077D01*
X389381Y386069D01*
X389376Y386062D01*
X389290Y385890D01*
X389203Y385718D01*
X389200Y385710D01*
X389196Y385701D01*
X389146Y385516D01*
X389095Y385330D01*
X389094Y385321D01*
X389092Y385313D01*
X389065Y384982D01*
X389065Y375521D01*
X389066Y375508D01*
X389065Y375494D01*
X389071Y375437D01*
X389071Y375423D01*
X389080Y375360D01*
X389086Y375307D01*
X389105Y375121D01*
X389109Y375108D01*
X389110Y375094D01*
X389129Y375036D01*
X389131Y375025D01*
X389147Y374978D01*
X389168Y374914D01*
X389223Y374736D01*
X389229Y374724D01*
X389233Y374711D01*
X389265Y374655D01*
X389268Y374646D01*
X389289Y374612D01*
X389326Y374546D01*
X389415Y374382D01*
X389423Y374371D01*
X389430Y374359D01*
X389473Y374309D01*
X389477Y374302D01*
X389501Y374276D01*
X389553Y374216D01*
X389672Y374072D01*
X389683Y374064D01*
X389692Y374053D01*
X389745Y374012D01*
X389750Y374006D01*
X389779Y373985D01*
X389840Y373937D01*
X389986Y373820D01*
X389998Y373814D01*
X390009Y373805D01*
X390068Y373775D01*
X390076Y373770D01*
X390114Y373753D01*
X390177Y373721D01*
X390343Y373635D01*
X390356Y373631D01*
X390369Y373625D01*
X390432Y373607D01*
X390442Y373603D01*
X390493Y373591D01*
X390550Y373575D01*
X390730Y373523D01*
X390744Y373522D01*
X390757Y373518D01*
X390820Y373514D01*
X390834Y373511D01*
X390900Y373509D01*
X390944Y373506D01*
X391132Y373490D01*
X391145Y373492D01*
X391159Y373491D01*
X391217Y373499D01*
X391237Y373498D01*
X391320Y373512D01*
X391346Y373515D01*
X391531Y373537D01*
X391544Y373541D01*
X391558Y373543D01*
X391610Y373561D01*
X391634Y373565D01*
X391733Y373603D01*
X391736Y373604D01*
X391914Y373662D01*
X391926Y373669D01*
X391939Y373673D01*
X391982Y373698D01*
X392010Y373709D01*
X392173Y373808D01*
X392265Y373860D01*
X392275Y373869D01*
X392287Y373876D01*
X392294Y373882D01*
X393587Y374821D01*
X394870Y375475D01*
X396239Y375920D01*
X397660Y376145D01*
X403461Y376145D01*
X403461Y367508D01*
X403462Y367490D01*
X403461Y367473D01*
X403482Y367290D01*
X403501Y367108D01*
X403506Y367091D01*
X403508Y367073D01*
X403533Y366995D01*
X403494Y366858D01*
X403492Y366840D01*
X403488Y366823D01*
X403461Y366492D01*
X403461Y357855D01*
X397660Y357855D01*
X396239Y358080D01*
X394870Y358525D01*
X393587Y359179D01*
X392293Y360119D01*
X392263Y360136D01*
X392229Y360165D01*
X392217Y360171D01*
X392206Y360180D01*
X392051Y360260D01*
X391946Y360322D01*
X391918Y360331D01*
X391874Y360355D01*
X391861Y360359D01*
X391849Y360365D01*
X391668Y360417D01*
X391662Y360419D01*
X391565Y360453D01*
X391542Y360456D01*
X391488Y360472D01*
X391475Y360473D01*
X391462Y360477D01*
X391274Y360492D01*
X391246Y360495D01*
X391166Y360506D01*
X391147Y360504D01*
X391088Y360510D01*
X391074Y360509D01*
X391060Y360510D01*
X390874Y360488D01*
X390827Y360483D01*
X390764Y360479D01*
X390750Y360475D01*
X390687Y360468D01*
X390674Y360464D01*
X390661Y360463D01*
X390481Y360404D01*
X390423Y360386D01*
X390375Y360373D01*
X390365Y360368D01*
X390303Y360349D01*
X390291Y360342D01*
X390278Y360338D01*
X390113Y360245D01*
X390051Y360211D01*
X390015Y360193D01*
X390008Y360188D01*
X389950Y360156D01*
X389939Y360147D01*
X389927Y360140D01*
X389785Y360017D01*
X389726Y359967D01*
X389698Y359946D01*
X389693Y359940D01*
X389641Y359897D01*
X389633Y359886D01*
X389622Y359877D01*
X389508Y359729D01*
X389459Y359668D01*
X389435Y359640D01*
X389431Y359633D01*
X389390Y359582D01*
X389384Y359570D01*
X389376Y359559D01*
X389292Y359390D01*
X389258Y359325D01*
X389238Y359289D01*
X389235Y359280D01*
X389206Y359224D01*
X389203Y359211D01*
X389196Y359198D01*
X389147Y359016D01*
X389130Y358955D01*
X389114Y358906D01*
X389113Y358895D01*
X389096Y358836D01*
X389095Y358823D01*
X389092Y358810D01*
X389065Y358479D01*
X389065Y286525D01*
X389067Y286498D01*
X389065Y286472D01*
X389087Y286298D01*
X389105Y286124D01*
X389112Y286099D01*
X389116Y286072D01*
X389172Y285906D01*
X389223Y285739D01*
X389236Y285716D01*
X389244Y285691D01*
X389331Y285539D01*
X389415Y285385D01*
X389432Y285365D01*
X389445Y285342D01*
X389660Y285089D01*
X392831Y281918D01*
X392848Y281904D01*
X392861Y281888D01*
X392864Y281886D01*
X392869Y281880D01*
X393007Y281774D01*
X393142Y281663D01*
X393166Y281650D01*
X393187Y281634D01*
X393343Y281556D01*
X393498Y281474D01*
X393524Y281466D01*
X393548Y281454D01*
X393716Y281409D01*
X393884Y281359D01*
X393910Y281357D01*
X393936Y281350D01*
X394267Y281323D01*
X395258Y281323D01*
X397582Y280360D01*
X399360Y278582D01*
X400323Y276258D01*
X400323Y273742D01*
X399360Y271418D01*
X397582Y269640D01*
X395258Y268677D01*
X393532Y268677D01*
X393519Y268676D01*
X393505Y268677D01*
X393319Y268656D01*
X393131Y268637D01*
X393119Y268633D01*
X393105Y268632D01*
X392927Y268575D01*
X392747Y268519D01*
X392735Y268513D01*
X392722Y268509D01*
X392558Y268417D01*
X392392Y268327D01*
X392382Y268319D01*
X392370Y268312D01*
X392227Y268189D01*
X392083Y268070D01*
X392075Y268059D01*
X392065Y268051D01*
X391948Y267902D01*
X391831Y267756D01*
X391825Y267744D01*
X391816Y267734D01*
X391731Y267564D01*
X391645Y267399D01*
X391642Y267386D01*
X391636Y267374D01*
X391586Y267191D01*
X391534Y267012D01*
X391533Y266998D01*
X391529Y266985D01*
X391516Y266798D01*
X391501Y266610D01*
X391503Y266597D01*
X391502Y266584D01*
X391526Y266396D01*
X391548Y266211D01*
X391552Y266198D01*
X391554Y266185D01*
X391655Y265869D01*
X392323Y264258D01*
X392323Y261742D01*
X391360Y259418D01*
X389582Y257640D01*
X387258Y256677D01*
X384742Y256677D01*
G37*
%LPD*%
G36*
X139176Y348813D02*
X139176Y348813D01*
X139194Y348811D01*
X139376Y348832D01*
X139559Y348851D01*
X139576Y348856D01*
X139593Y348858D01*
X139768Y348915D01*
X139944Y348969D01*
X139959Y348977D01*
X139976Y348983D01*
X140136Y349073D01*
X140298Y349161D01*
X140311Y349172D01*
X140327Y349181D01*
X140466Y349301D01*
X140607Y349418D01*
X140618Y349432D01*
X140632Y349444D01*
X140744Y349589D01*
X140859Y349732D01*
X140867Y349748D01*
X140878Y349762D01*
X140960Y349927D01*
X141045Y350089D01*
X141050Y350106D01*
X141058Y350122D01*
X141105Y350301D01*
X141156Y350476D01*
X141158Y350494D01*
X141162Y350511D01*
X141189Y350842D01*
X141189Y534865D01*
X141189Y534870D01*
X141189Y534874D01*
X141169Y535068D01*
X141149Y535266D01*
X141148Y535270D01*
X141148Y535275D01*
X141090Y535460D01*
X141031Y535651D01*
X141029Y535655D01*
X141028Y535659D01*
X140934Y535830D01*
X140839Y536005D01*
X140837Y536008D01*
X140834Y536012D01*
X140707Y536163D01*
X140582Y536314D01*
X140578Y536317D01*
X140575Y536320D01*
X140421Y536443D01*
X140268Y536566D01*
X140264Y536568D01*
X140261Y536571D01*
X140086Y536661D01*
X139911Y536752D01*
X139906Y536753D01*
X139902Y536755D01*
X139715Y536808D01*
X139524Y536863D01*
X139519Y536864D01*
X139515Y536865D01*
X139322Y536880D01*
X139122Y536896D01*
X139118Y536896D01*
X139114Y536896D01*
X138920Y536872D01*
X138723Y536849D01*
X138718Y536848D01*
X138714Y536847D01*
X138529Y536786D01*
X138340Y536724D01*
X138336Y536722D01*
X138332Y536721D01*
X138160Y536623D01*
X137989Y536526D01*
X137986Y536524D01*
X137982Y536521D01*
X137831Y536390D01*
X137685Y536263D01*
X137682Y536260D01*
X137678Y536257D01*
X137558Y536100D01*
X137438Y535945D01*
X137436Y535941D01*
X137433Y535938D01*
X137281Y535643D01*
X136360Y533418D01*
X134582Y531640D01*
X134334Y531537D01*
X134319Y531529D01*
X134302Y531524D01*
X134141Y531434D01*
X133980Y531347D01*
X133966Y531336D01*
X133950Y531327D01*
X133811Y531208D01*
X133669Y531091D01*
X133658Y531077D01*
X133644Y531065D01*
X133531Y530921D01*
X133415Y530778D01*
X133407Y530762D01*
X133396Y530748D01*
X133314Y530585D01*
X133228Y530422D01*
X133223Y530405D01*
X133215Y530389D01*
X133167Y530212D01*
X133115Y530035D01*
X133114Y530018D01*
X133109Y530000D01*
X133096Y529816D01*
X133081Y529634D01*
X133083Y529617D01*
X133081Y529599D01*
X133105Y529416D01*
X133126Y529234D01*
X133131Y529217D01*
X133134Y529199D01*
X133235Y528883D01*
X134323Y526258D01*
X134323Y523742D01*
X133360Y521418D01*
X131582Y519640D01*
X129258Y518677D01*
X126742Y518677D01*
X124690Y519527D01*
X124669Y519534D01*
X124649Y519544D01*
X124476Y519592D01*
X124305Y519644D01*
X124282Y519646D01*
X124261Y519652D01*
X124082Y519665D01*
X123904Y519682D01*
X123882Y519680D01*
X123859Y519681D01*
X123681Y519659D01*
X123503Y519640D01*
X123482Y519634D01*
X123460Y519631D01*
X123289Y519574D01*
X123119Y519521D01*
X123099Y519510D01*
X123078Y519503D01*
X122922Y519413D01*
X122766Y519327D01*
X122749Y519313D01*
X122729Y519302D01*
X122476Y519087D01*
X104406Y501016D01*
X104389Y500996D01*
X104368Y500978D01*
X104261Y500840D01*
X104151Y500705D01*
X104138Y500681D01*
X104122Y500660D01*
X104044Y500503D01*
X103962Y500349D01*
X103954Y500324D01*
X103942Y500300D01*
X103897Y500130D01*
X103847Y499963D01*
X103845Y499937D01*
X103838Y499911D01*
X103811Y499580D01*
X103811Y469972D01*
X103813Y469946D01*
X103811Y469919D01*
X103833Y469745D01*
X103851Y469572D01*
X103858Y469546D01*
X103862Y469520D01*
X103917Y469354D01*
X103969Y469187D01*
X103982Y469163D01*
X103990Y469138D01*
X104077Y468986D01*
X104161Y468833D01*
X104178Y468812D01*
X104191Y468789D01*
X104406Y468536D01*
X105360Y467582D01*
X106323Y465258D01*
X106323Y462742D01*
X105360Y460418D01*
X103582Y458640D01*
X101775Y457891D01*
X101258Y457677D01*
X98742Y457677D01*
X96418Y458640D01*
X94640Y460418D01*
X93677Y462742D01*
X93677Y465258D01*
X94640Y467582D01*
X95594Y468536D01*
X95611Y468557D01*
X95632Y468574D01*
X95739Y468712D01*
X95849Y468848D01*
X95862Y468871D01*
X95878Y468892D01*
X95956Y469049D01*
X96038Y469203D01*
X96046Y469229D01*
X96058Y469253D01*
X96103Y469422D01*
X96153Y469589D01*
X96155Y469616D01*
X96162Y469642D01*
X96189Y469972D01*
X96189Y474896D01*
X96188Y474905D01*
X96189Y474914D01*
X96168Y475107D01*
X96149Y475297D01*
X96147Y475305D01*
X96146Y475314D01*
X96088Y475498D01*
X96031Y475682D01*
X96027Y475690D01*
X96024Y475698D01*
X95932Y475866D01*
X95839Y476036D01*
X95834Y476043D01*
X95829Y476050D01*
X95705Y476198D01*
X95582Y476345D01*
X95575Y476351D01*
X95569Y476357D01*
X95417Y476477D01*
X95268Y476597D01*
X95260Y476602D01*
X95253Y476607D01*
X95080Y476695D01*
X94911Y476783D01*
X94902Y476785D01*
X94894Y476789D01*
X94708Y476841D01*
X94524Y476894D01*
X94515Y476895D01*
X94506Y476897D01*
X94313Y476912D01*
X94122Y476927D01*
X94114Y476926D01*
X94105Y476927D01*
X93912Y476902D01*
X93723Y476880D01*
X93714Y476878D01*
X93705Y476876D01*
X93522Y476815D01*
X93340Y476755D01*
X93332Y476751D01*
X93324Y476748D01*
X93157Y476652D01*
X92989Y476558D01*
X92982Y476552D01*
X92975Y476547D01*
X92722Y476333D01*
X80918Y464528D01*
X80901Y464508D01*
X80880Y464490D01*
X80773Y464352D01*
X80663Y464217D01*
X80650Y464193D01*
X80634Y464172D01*
X80556Y464015D01*
X80474Y463861D01*
X80466Y463836D01*
X80454Y463812D01*
X80409Y463642D01*
X80359Y463475D01*
X80357Y463449D01*
X80350Y463423D01*
X80323Y463092D01*
X80323Y461742D01*
X79360Y459418D01*
X77582Y457640D01*
X75258Y456677D01*
X72742Y456677D01*
X70418Y457640D01*
X68640Y459418D01*
X67677Y461742D01*
X67677Y464258D01*
X68640Y466582D01*
X70418Y468360D01*
X70427Y468364D01*
X72742Y469323D01*
X74092Y469323D01*
X74119Y469325D01*
X74145Y469323D01*
X74319Y469345D01*
X74493Y469363D01*
X74518Y469370D01*
X74545Y469374D01*
X74711Y469429D01*
X74878Y469481D01*
X74901Y469494D01*
X74927Y469502D01*
X75078Y469589D01*
X75232Y469673D01*
X75252Y469690D01*
X75275Y469703D01*
X75528Y469918D01*
X87594Y481984D01*
X87611Y482004D01*
X87632Y482022D01*
X87739Y482160D01*
X87849Y482295D01*
X87862Y482319D01*
X87878Y482340D01*
X87956Y482497D01*
X88038Y482651D01*
X88046Y482676D01*
X88058Y482700D01*
X88103Y482870D01*
X88153Y483037D01*
X88155Y483063D01*
X88162Y483089D01*
X88189Y483420D01*
X88189Y507578D01*
X91016Y510406D01*
X112821Y532210D01*
X112826Y532217D01*
X112833Y532222D01*
X112953Y532372D01*
X113076Y532521D01*
X113080Y532529D01*
X113085Y532536D01*
X113174Y532707D01*
X113264Y532877D01*
X113267Y532885D01*
X113271Y532893D01*
X113324Y533079D01*
X113379Y533263D01*
X113380Y533272D01*
X113382Y533280D01*
X113398Y533472D01*
X113415Y533664D01*
X113414Y533673D01*
X113415Y533682D01*
X113393Y533871D01*
X113372Y534064D01*
X113369Y534073D01*
X113368Y534081D01*
X113309Y534263D01*
X113251Y534448D01*
X113246Y534456D01*
X113243Y534464D01*
X113148Y534633D01*
X113056Y534800D01*
X113050Y534807D01*
X113046Y534815D01*
X112920Y534961D01*
X112795Y535107D01*
X112788Y535113D01*
X112782Y535120D01*
X112631Y535237D01*
X112479Y535357D01*
X112471Y535361D01*
X112464Y535366D01*
X112292Y535452D01*
X112120Y535539D01*
X112112Y535542D01*
X112104Y535546D01*
X111917Y535596D01*
X111732Y535647D01*
X111724Y535648D01*
X111715Y535650D01*
X111384Y535677D01*
X109742Y535677D01*
X107418Y536640D01*
X106464Y537594D01*
X106443Y537611D01*
X106426Y537632D01*
X106288Y537739D01*
X106152Y537849D01*
X106129Y537862D01*
X106108Y537878D01*
X105951Y537956D01*
X105797Y538038D01*
X105771Y538046D01*
X105747Y538058D01*
X105578Y538103D01*
X105411Y538153D01*
X105384Y538155D01*
X105358Y538162D01*
X105028Y538189D01*
X87420Y538189D01*
X87393Y538187D01*
X87367Y538189D01*
X87193Y538167D01*
X87019Y538149D01*
X86994Y538142D01*
X86967Y538138D01*
X86801Y538083D01*
X86634Y538031D01*
X86611Y538018D01*
X86585Y538010D01*
X86434Y537923D01*
X86280Y537839D01*
X86260Y537822D01*
X86237Y537809D01*
X85984Y537594D01*
X75528Y527139D01*
X75520Y527138D01*
X75354Y527083D01*
X75187Y527031D01*
X75163Y527018D01*
X75138Y527010D01*
X74986Y526923D01*
X74833Y526839D01*
X74812Y526822D01*
X74789Y526809D01*
X74536Y526594D01*
X73582Y525640D01*
X71258Y524677D01*
X68742Y524677D01*
X66418Y525640D01*
X66072Y525986D01*
X66065Y525992D01*
X66060Y525999D01*
X65911Y526118D01*
X65761Y526241D01*
X65753Y526245D01*
X65746Y526251D01*
X65577Y526339D01*
X65405Y526430D01*
X65396Y526432D01*
X65389Y526436D01*
X65205Y526489D01*
X65019Y526544D01*
X65010Y526545D01*
X65002Y526548D01*
X64811Y526563D01*
X64618Y526581D01*
X64609Y526580D01*
X64600Y526581D01*
X64411Y526558D01*
X64218Y526537D01*
X64209Y526535D01*
X64201Y526534D01*
X64018Y526474D01*
X63834Y526416D01*
X63826Y526412D01*
X63818Y526409D01*
X63649Y526314D01*
X63482Y526221D01*
X63475Y526215D01*
X63467Y526211D01*
X63322Y526085D01*
X63175Y525961D01*
X63169Y525954D01*
X63162Y525948D01*
X63045Y525796D01*
X62925Y525645D01*
X62921Y525637D01*
X62916Y525630D01*
X62829Y525456D01*
X62743Y525286D01*
X62740Y525277D01*
X62736Y525269D01*
X62686Y525081D01*
X62635Y524898D01*
X62634Y524889D01*
X62632Y524880D01*
X62605Y524550D01*
X62605Y390577D01*
X62607Y390551D01*
X62605Y390524D01*
X62627Y390350D01*
X62645Y390177D01*
X62652Y390151D01*
X62656Y390124D01*
X62711Y389959D01*
X62763Y389792D01*
X62776Y389768D01*
X62784Y389743D01*
X62871Y389591D01*
X62955Y389438D01*
X62972Y389417D01*
X62985Y389394D01*
X63200Y389141D01*
X64141Y388200D01*
X64162Y388183D01*
X64179Y388162D01*
X64317Y388055D01*
X64452Y387945D01*
X64476Y387932D01*
X64497Y387916D01*
X64654Y387838D01*
X64808Y387756D01*
X64834Y387748D01*
X64858Y387736D01*
X65027Y387691D01*
X65194Y387641D01*
X65221Y387639D01*
X65246Y387632D01*
X65577Y387605D01*
X75314Y387605D01*
X77741Y386599D01*
X114935Y349406D01*
X114956Y349389D01*
X114973Y349368D01*
X115111Y349261D01*
X115246Y349151D01*
X115270Y349138D01*
X115291Y349122D01*
X115448Y349044D01*
X115602Y348962D01*
X115628Y348954D01*
X115652Y348942D01*
X115821Y348897D01*
X115988Y348847D01*
X116015Y348845D01*
X116040Y348838D01*
X116371Y348811D01*
X139158Y348811D01*
X139176Y348813D01*
G37*
G36*
X21185Y127078D02*
X21185Y127078D01*
X21194Y127077D01*
X21383Y127099D01*
X21576Y127120D01*
X21585Y127123D01*
X21593Y127124D01*
X21776Y127183D01*
X21960Y127241D01*
X21968Y127246D01*
X21976Y127249D01*
X22143Y127343D01*
X22312Y127436D01*
X22319Y127442D01*
X22327Y127446D01*
X22472Y127572D01*
X22619Y127697D01*
X22625Y127704D01*
X22632Y127710D01*
X22749Y127861D01*
X22869Y128013D01*
X22873Y128021D01*
X22878Y128028D01*
X22964Y128200D01*
X23051Y128372D01*
X23054Y128380D01*
X23058Y128388D01*
X23107Y128574D01*
X23159Y128759D01*
X23160Y128768D01*
X23162Y128777D01*
X23189Y129108D01*
X23189Y140448D01*
X23182Y140521D01*
X23184Y140594D01*
X23162Y140721D01*
X23149Y140849D01*
X23128Y140919D01*
X23115Y140991D01*
X23069Y141111D01*
X23031Y141234D01*
X22996Y141298D01*
X22970Y141366D01*
X22901Y141475D01*
X22839Y141588D01*
X22793Y141644D01*
X22753Y141706D01*
X22664Y141798D01*
X22582Y141897D01*
X22525Y141943D01*
X22474Y141996D01*
X22368Y142069D01*
X22268Y142149D01*
X22203Y142183D01*
X22143Y142225D01*
X22025Y142276D01*
X21911Y142335D01*
X21840Y142355D01*
X21773Y142384D01*
X21647Y142411D01*
X21524Y142446D01*
X21451Y142452D01*
X21379Y142467D01*
X21251Y142469D01*
X21122Y142479D01*
X21050Y142471D01*
X20976Y142471D01*
X20850Y142447D01*
X20723Y142432D01*
X20653Y142409D01*
X20581Y142396D01*
X20462Y142347D01*
X20340Y142307D01*
X20276Y142271D01*
X20208Y142244D01*
X20101Y142173D01*
X19989Y142109D01*
X19934Y142061D01*
X19873Y142021D01*
X19782Y141930D01*
X19685Y141846D01*
X19640Y141788D01*
X19588Y141737D01*
X19491Y141597D01*
X19438Y141528D01*
X19423Y141499D01*
X19399Y141464D01*
X19370Y141414D01*
X19086Y141130D01*
X18739Y140929D01*
X18351Y140825D01*
X16031Y140825D01*
X16031Y145500D01*
X16031Y150175D01*
X18351Y150175D01*
X18739Y150071D01*
X19086Y149870D01*
X19370Y149586D01*
X19399Y149536D01*
X19442Y149477D01*
X19477Y149412D01*
X19559Y149314D01*
X19634Y149209D01*
X19687Y149159D01*
X19734Y149103D01*
X19834Y149023D01*
X19928Y148935D01*
X19991Y148897D01*
X20048Y148851D01*
X20162Y148792D01*
X20272Y148724D01*
X20340Y148699D01*
X20405Y148665D01*
X20529Y148630D01*
X20649Y148585D01*
X20722Y148574D01*
X20792Y148554D01*
X20920Y148543D01*
X21047Y148524D01*
X21120Y148527D01*
X21194Y148521D01*
X21321Y148536D01*
X21449Y148542D01*
X21521Y148559D01*
X21593Y148568D01*
X21716Y148608D01*
X21840Y148639D01*
X21906Y148670D01*
X21976Y148693D01*
X22088Y148756D01*
X22204Y148811D01*
X22263Y148855D01*
X22327Y148891D01*
X22424Y148975D01*
X22527Y149051D01*
X22576Y149106D01*
X22632Y149154D01*
X22710Y149255D01*
X22796Y149351D01*
X22833Y149414D01*
X22878Y149472D01*
X22936Y149587D01*
X23001Y149698D01*
X23025Y149767D01*
X23058Y149832D01*
X23091Y149957D01*
X23133Y150078D01*
X23143Y150150D01*
X23162Y150221D01*
X23176Y150390D01*
X23188Y150477D01*
X23186Y150510D01*
X23189Y150552D01*
X23189Y334580D01*
X23187Y334607D01*
X23189Y334633D01*
X23167Y334807D01*
X23149Y334981D01*
X23142Y335006D01*
X23138Y335033D01*
X23083Y335199D01*
X23031Y335366D01*
X23018Y335389D01*
X23010Y335415D01*
X22923Y335566D01*
X22839Y335720D01*
X22822Y335740D01*
X22809Y335763D01*
X22594Y336016D01*
X18528Y340082D01*
X18508Y340099D01*
X18490Y340120D01*
X18352Y340227D01*
X18217Y340337D01*
X18193Y340350D01*
X18172Y340366D01*
X18015Y340444D01*
X17861Y340526D01*
X17836Y340534D01*
X17812Y340546D01*
X17642Y340591D01*
X17475Y340641D01*
X17449Y340643D01*
X17423Y340650D01*
X17092Y340677D01*
X15742Y340677D01*
X13418Y341640D01*
X11640Y343418D01*
X10677Y345742D01*
X10677Y348258D01*
X11640Y350582D01*
X13418Y352360D01*
X15742Y353323D01*
X18258Y353323D01*
X20582Y352360D01*
X21237Y351705D01*
X21247Y351696D01*
X21256Y351686D01*
X21403Y351569D01*
X21548Y351450D01*
X21560Y351444D01*
X21571Y351435D01*
X21739Y351349D01*
X21904Y351261D01*
X21917Y351257D01*
X21929Y351251D01*
X22111Y351200D01*
X22290Y351146D01*
X22303Y351145D01*
X22316Y351142D01*
X22503Y351127D01*
X22691Y351110D01*
X22704Y351112D01*
X22718Y351111D01*
X22902Y351133D01*
X23091Y351153D01*
X23104Y351158D01*
X23117Y351159D01*
X23294Y351218D01*
X23475Y351275D01*
X23487Y351282D01*
X23499Y351286D01*
X23663Y351379D01*
X23827Y351470D01*
X23838Y351478D01*
X23849Y351485D01*
X23991Y351609D01*
X24134Y351730D01*
X24143Y351741D01*
X24153Y351750D01*
X24268Y351899D01*
X24384Y352046D01*
X24390Y352058D01*
X24398Y352069D01*
X24550Y352364D01*
X24640Y352582D01*
X26418Y354360D01*
X27031Y354614D01*
X28441Y355198D01*
X28453Y355204D01*
X28466Y355208D01*
X28630Y355299D01*
X28796Y355388D01*
X28806Y355397D01*
X28818Y355403D01*
X28961Y355524D01*
X29106Y355645D01*
X29115Y355655D01*
X29125Y355664D01*
X29242Y355812D01*
X29360Y355957D01*
X29366Y355969D01*
X29375Y355980D01*
X29460Y356148D01*
X29547Y356314D01*
X29551Y356327D01*
X29557Y356339D01*
X29607Y356520D01*
X29660Y356700D01*
X29661Y356714D01*
X29665Y356727D01*
X29679Y356914D01*
X29695Y357101D01*
X29693Y357115D01*
X29694Y357128D01*
X29671Y357315D01*
X29650Y357501D01*
X29645Y357514D01*
X29644Y357528D01*
X29584Y357706D01*
X29526Y357885D01*
X29520Y357896D01*
X29515Y357909D01*
X29422Y358072D01*
X29330Y358236D01*
X29321Y358246D01*
X29314Y358258D01*
X29100Y358511D01*
X29016Y358594D01*
X26189Y361422D01*
X26189Y480680D01*
X26188Y480693D01*
X26189Y480707D01*
X26168Y480893D01*
X26149Y481081D01*
X26145Y481093D01*
X26144Y481107D01*
X26086Y481286D01*
X26031Y481466D01*
X26025Y481477D01*
X26021Y481490D01*
X25929Y481655D01*
X25839Y481820D01*
X25831Y481830D01*
X25824Y481842D01*
X25702Y481984D01*
X25582Y482129D01*
X25571Y482137D01*
X25563Y482147D01*
X25415Y482263D01*
X25268Y482381D01*
X25256Y482387D01*
X25246Y482396D01*
X25077Y482480D01*
X24911Y482567D01*
X24898Y482570D01*
X24886Y482576D01*
X24704Y482626D01*
X24524Y482678D01*
X24510Y482679D01*
X24497Y482683D01*
X24309Y482696D01*
X24122Y482711D01*
X24109Y482709D01*
X24096Y482710D01*
X23908Y482686D01*
X23723Y482664D01*
X23710Y482660D01*
X23697Y482658D01*
X23381Y482557D01*
X21258Y481677D01*
X18742Y481677D01*
X16418Y482640D01*
X14640Y484418D01*
X13677Y486742D01*
X13677Y489258D01*
X14640Y491582D01*
X15594Y492536D01*
X15611Y492557D01*
X15632Y492574D01*
X15739Y492712D01*
X15849Y492848D01*
X15862Y492871D01*
X15878Y492892D01*
X15956Y493049D01*
X16038Y493203D01*
X16046Y493229D01*
X16058Y493253D01*
X16103Y493422D01*
X16153Y493589D01*
X16155Y493616D01*
X16162Y493642D01*
X16189Y493972D01*
X16189Y619580D01*
X16187Y619607D01*
X16189Y619634D01*
X16167Y619807D01*
X16149Y619981D01*
X16142Y620006D01*
X16138Y620033D01*
X16083Y620199D01*
X16031Y620366D01*
X16018Y620389D01*
X16010Y620415D01*
X15923Y620566D01*
X15839Y620720D01*
X15822Y620740D01*
X15809Y620764D01*
X15594Y621017D01*
X8548Y628063D01*
X8541Y628068D01*
X8536Y628075D01*
X8386Y628195D01*
X8237Y628318D01*
X8229Y628322D01*
X8222Y628327D01*
X8051Y628416D01*
X7881Y628506D01*
X7873Y628509D01*
X7865Y628513D01*
X7679Y628566D01*
X7495Y628621D01*
X7486Y628622D01*
X7478Y628624D01*
X7286Y628640D01*
X7094Y628657D01*
X7085Y628656D01*
X7076Y628657D01*
X6887Y628635D01*
X6694Y628614D01*
X6685Y628611D01*
X6677Y628610D01*
X6495Y628551D01*
X6310Y628493D01*
X6302Y628488D01*
X6294Y628485D01*
X6125Y628390D01*
X5958Y628298D01*
X5951Y628292D01*
X5943Y628288D01*
X5797Y628162D01*
X5651Y628037D01*
X5645Y628030D01*
X5638Y628024D01*
X5521Y627873D01*
X5401Y627721D01*
X5397Y627713D01*
X5392Y627706D01*
X5306Y627534D01*
X5219Y627362D01*
X5216Y627354D01*
X5212Y627346D01*
X5162Y627159D01*
X5111Y626974D01*
X5110Y626966D01*
X5108Y626957D01*
X5081Y626626D01*
X5081Y150941D01*
X5082Y150932D01*
X5081Y150923D01*
X5101Y150732D01*
X5121Y150540D01*
X5123Y150532D01*
X5124Y150523D01*
X5182Y150339D01*
X5239Y150155D01*
X5243Y150147D01*
X5246Y150139D01*
X5339Y149970D01*
X5431Y149801D01*
X5436Y149794D01*
X5441Y149787D01*
X5565Y149640D01*
X5688Y149492D01*
X5695Y149486D01*
X5701Y149480D01*
X5852Y149360D01*
X6002Y149240D01*
X6010Y149236D01*
X6017Y149230D01*
X6191Y149141D01*
X6359Y149054D01*
X6368Y149052D01*
X6376Y149048D01*
X6563Y148996D01*
X6746Y148943D01*
X6755Y148942D01*
X6764Y148940D01*
X6956Y148926D01*
X7148Y148910D01*
X7156Y148911D01*
X7165Y148910D01*
X7357Y148934D01*
X7547Y148957D01*
X7556Y148960D01*
X7565Y148961D01*
X7747Y149022D01*
X7930Y149082D01*
X7938Y149086D01*
X7946Y149089D01*
X8114Y149185D01*
X8281Y149280D01*
X8288Y149285D01*
X8295Y149290D01*
X8548Y149505D01*
X8914Y149870D01*
X9261Y150071D01*
X9649Y150175D01*
X11969Y150175D01*
X11969Y145500D01*
X11969Y140825D01*
X9649Y140825D01*
X9261Y140929D01*
X8914Y141130D01*
X8548Y141495D01*
X8541Y141501D01*
X8536Y141508D01*
X8387Y141628D01*
X8237Y141750D01*
X8229Y141755D01*
X8222Y141760D01*
X8052Y141849D01*
X7881Y141939D01*
X7872Y141942D01*
X7865Y141946D01*
X7681Y141999D01*
X7495Y142054D01*
X7486Y142055D01*
X7478Y142057D01*
X7287Y142073D01*
X7094Y142090D01*
X7085Y142089D01*
X7076Y142090D01*
X6887Y142068D01*
X6694Y142047D01*
X6685Y142044D01*
X6677Y142043D01*
X6494Y141983D01*
X6310Y141925D01*
X6302Y141921D01*
X6294Y141918D01*
X6125Y141823D01*
X5958Y141731D01*
X5951Y141725D01*
X5943Y141720D01*
X5798Y141595D01*
X5651Y141470D01*
X5645Y141463D01*
X5638Y141457D01*
X5521Y141306D01*
X5401Y141154D01*
X5397Y141146D01*
X5392Y141139D01*
X5306Y140967D01*
X5219Y140795D01*
X5216Y140787D01*
X5212Y140779D01*
X5162Y140591D01*
X5111Y140407D01*
X5110Y140399D01*
X5108Y140390D01*
X5081Y140059D01*
X5081Y129378D01*
X5082Y129369D01*
X5081Y129360D01*
X5102Y129168D01*
X5121Y128977D01*
X5123Y128969D01*
X5124Y128960D01*
X5182Y128776D01*
X5239Y128592D01*
X5243Y128584D01*
X5246Y128576D01*
X5339Y128407D01*
X5431Y128238D01*
X5436Y128231D01*
X5441Y128223D01*
X5566Y128076D01*
X5688Y127929D01*
X5695Y127923D01*
X5701Y127916D01*
X5853Y127796D01*
X6002Y127677D01*
X6010Y127672D01*
X6017Y127667D01*
X6190Y127579D01*
X6359Y127491D01*
X6368Y127489D01*
X6376Y127485D01*
X6561Y127433D01*
X6746Y127380D01*
X6755Y127379D01*
X6764Y127377D01*
X6956Y127362D01*
X7148Y127347D01*
X7156Y127348D01*
X7165Y127347D01*
X7357Y127371D01*
X7547Y127394D01*
X7556Y127396D01*
X7565Y127398D01*
X7747Y127459D01*
X7930Y127519D01*
X7938Y127523D01*
X7946Y127526D01*
X8114Y127622D01*
X8281Y127716D01*
X8288Y127722D01*
X8295Y127727D01*
X8548Y127941D01*
X8798Y128191D01*
X19202Y128191D01*
X19722Y127671D01*
X19729Y127666D01*
X19734Y127659D01*
X19883Y127539D01*
X20033Y127416D01*
X20041Y127412D01*
X20048Y127407D01*
X20218Y127318D01*
X20389Y127228D01*
X20398Y127225D01*
X20405Y127221D01*
X20590Y127168D01*
X20775Y127113D01*
X20784Y127112D01*
X20792Y127110D01*
X20983Y127094D01*
X21176Y127077D01*
X21185Y127078D01*
G37*
G36*
X88020Y68242D02*
X88020Y68242D01*
X88039Y68240D01*
X88141Y68262D01*
X88243Y68279D01*
X88260Y68288D01*
X88280Y68292D01*
X88369Y68345D01*
X88460Y68394D01*
X88474Y68408D01*
X88491Y68418D01*
X88558Y68497D01*
X88630Y68572D01*
X88638Y68590D01*
X88651Y68605D01*
X88690Y68701D01*
X88733Y68795D01*
X88735Y68815D01*
X88743Y68833D01*
X88761Y69000D01*
X88761Y91239D01*
X108000Y91239D01*
X108020Y91242D01*
X108039Y91240D01*
X108141Y91262D01*
X108243Y91279D01*
X108260Y91288D01*
X108280Y91292D01*
X108369Y91345D01*
X108460Y91394D01*
X108474Y91408D01*
X108491Y91418D01*
X108558Y91497D01*
X108630Y91572D01*
X108638Y91590D01*
X108651Y91605D01*
X108690Y91701D01*
X108733Y91795D01*
X108735Y91815D01*
X108743Y91833D01*
X108761Y92000D01*
X108761Y129000D01*
X108758Y129020D01*
X108760Y129039D01*
X108738Y129141D01*
X108722Y129243D01*
X108712Y129260D01*
X108708Y129280D01*
X108655Y129369D01*
X108606Y129460D01*
X108592Y129474D01*
X108582Y129491D01*
X108503Y129558D01*
X108428Y129630D01*
X108410Y129638D01*
X108395Y129651D01*
X108299Y129690D01*
X108205Y129733D01*
X108185Y129735D01*
X108167Y129743D01*
X108000Y129761D01*
X76000Y129761D01*
X75980Y129758D01*
X75961Y129760D01*
X75859Y129738D01*
X75757Y129722D01*
X75740Y129712D01*
X75720Y129708D01*
X75631Y129655D01*
X75540Y129606D01*
X75526Y129592D01*
X75509Y129582D01*
X75442Y129503D01*
X75371Y129428D01*
X75362Y129410D01*
X75349Y129395D01*
X75310Y129299D01*
X75267Y129205D01*
X75265Y129185D01*
X75257Y129167D01*
X75239Y129000D01*
X75239Y69000D01*
X75242Y68980D01*
X75240Y68961D01*
X75262Y68859D01*
X75279Y68757D01*
X75288Y68740D01*
X75292Y68720D01*
X75345Y68631D01*
X75394Y68540D01*
X75408Y68526D01*
X75418Y68509D01*
X75497Y68442D01*
X75572Y68371D01*
X75590Y68362D01*
X75605Y68349D01*
X75701Y68310D01*
X75795Y68267D01*
X75815Y68265D01*
X75833Y68257D01*
X76000Y68239D01*
X88000Y68239D01*
X88020Y68242D01*
G37*
G36*
X137118Y316746D02*
X137118Y316746D01*
X137237Y316753D01*
X137275Y316766D01*
X137316Y316771D01*
X137426Y316814D01*
X137539Y316851D01*
X137574Y316873D01*
X137611Y316888D01*
X137707Y316958D01*
X137808Y317021D01*
X137836Y317051D01*
X137869Y317074D01*
X137945Y317166D01*
X138026Y317253D01*
X138046Y317288D01*
X138071Y317319D01*
X138122Y317427D01*
X138180Y317531D01*
X138190Y317571D01*
X138207Y317607D01*
X138229Y317724D01*
X138259Y317839D01*
X138263Y317900D01*
X138267Y317920D01*
X138265Y317940D01*
X138269Y318000D01*
X138269Y345000D01*
X138254Y345118D01*
X138247Y345237D01*
X138234Y345275D01*
X138229Y345316D01*
X138186Y345426D01*
X138149Y345539D01*
X138127Y345574D01*
X138112Y345611D01*
X138043Y345707D01*
X137979Y345808D01*
X137949Y345836D01*
X137926Y345869D01*
X137834Y345945D01*
X137747Y346026D01*
X137712Y346046D01*
X137681Y346071D01*
X137573Y346122D01*
X137469Y346180D01*
X137429Y346190D01*
X137393Y346207D01*
X137276Y346229D01*
X137161Y346259D01*
X137101Y346263D01*
X137081Y346267D01*
X137060Y346265D01*
X137000Y346269D01*
X101000Y346269D01*
X100882Y346254D01*
X100763Y346247D01*
X100725Y346234D01*
X100684Y346229D01*
X100574Y346186D01*
X100461Y346149D01*
X100426Y346127D01*
X100389Y346112D01*
X100293Y346043D01*
X100192Y345979D01*
X100164Y345949D01*
X100131Y345926D01*
X100056Y345834D01*
X99974Y345747D01*
X99954Y345712D01*
X99929Y345681D01*
X99878Y345573D01*
X99820Y345469D01*
X99810Y345429D01*
X99793Y345393D01*
X99771Y345276D01*
X99741Y345161D01*
X99737Y345101D01*
X99733Y345081D01*
X99735Y345060D01*
X99731Y345000D01*
X99731Y318000D01*
X99746Y317882D01*
X99753Y317763D01*
X99766Y317725D01*
X99771Y317684D01*
X99814Y317574D01*
X99851Y317461D01*
X99873Y317426D01*
X99888Y317389D01*
X99958Y317293D01*
X100021Y317192D01*
X100051Y317164D01*
X100074Y317131D01*
X100166Y317056D01*
X100253Y316974D01*
X100288Y316954D01*
X100319Y316929D01*
X100427Y316878D01*
X100531Y316820D01*
X100571Y316810D01*
X100607Y316793D01*
X100724Y316771D01*
X100839Y316741D01*
X100900Y316737D01*
X100920Y316733D01*
X100940Y316735D01*
X101000Y316731D01*
X137000Y316731D01*
X137118Y316746D01*
G37*
%LPC*%
G36*
X332511Y181459D02*
X332511Y181459D01*
X326064Y184130D01*
X321130Y189064D01*
X318459Y195511D01*
X318459Y202489D01*
X321130Y208936D01*
X326064Y213870D01*
X332511Y216541D01*
X339489Y216541D01*
X345936Y213870D01*
X350870Y208936D01*
X353541Y202489D01*
X353541Y195511D01*
X350870Y189064D01*
X345936Y184130D01*
X339489Y181459D01*
X332511Y181459D01*
G37*
%LPD*%
%LPC*%
G36*
X187788Y93299D02*
X187788Y93299D01*
X186299Y94788D01*
X186299Y117212D01*
X187788Y118701D01*
X210212Y118701D01*
X211701Y117212D01*
X211701Y94788D01*
X210212Y93299D01*
X187788Y93299D01*
G37*
%LPD*%
%LPC*%
G36*
X419788Y96299D02*
X419788Y96299D01*
X418299Y97788D01*
X418299Y120212D01*
X419788Y121701D01*
X442212Y121701D01*
X443701Y120212D01*
X443701Y97788D01*
X442212Y96299D01*
X419788Y96299D01*
G37*
%LPD*%
%LPC*%
G36*
X430398Y200419D02*
X430398Y200419D01*
X425590Y202411D01*
X421911Y206090D01*
X419919Y210898D01*
X419919Y216102D01*
X421911Y220910D01*
X425590Y224589D01*
X425649Y224614D01*
X430398Y226581D01*
X435602Y226581D01*
X440410Y224589D01*
X444089Y220910D01*
X446081Y216102D01*
X446081Y210898D01*
X444089Y206090D01*
X440410Y202411D01*
X439307Y201954D01*
X435602Y200419D01*
X430398Y200419D01*
G37*
%LPD*%
%LPC*%
G36*
X393474Y96299D02*
X393474Y96299D01*
X388806Y98233D01*
X385233Y101806D01*
X383299Y106474D01*
X383299Y111526D01*
X385233Y116194D01*
X388806Y119767D01*
X393474Y121701D01*
X398526Y121701D01*
X403194Y119767D01*
X406767Y116194D01*
X408701Y111526D01*
X408701Y106474D01*
X406767Y101806D01*
X403194Y98233D01*
X398526Y96299D01*
X393474Y96299D01*
G37*
%LPD*%
%LPC*%
G36*
X358474Y96299D02*
X358474Y96299D01*
X353806Y98233D01*
X350233Y101806D01*
X348299Y106474D01*
X348299Y111526D01*
X350233Y116194D01*
X353806Y119767D01*
X358474Y121701D01*
X363526Y121701D01*
X368194Y119767D01*
X371767Y116194D01*
X373701Y111526D01*
X373701Y106474D01*
X371767Y101806D01*
X368194Y98233D01*
X363526Y96299D01*
X358474Y96299D01*
G37*
%LPD*%
%LPC*%
G36*
X323474Y96299D02*
X323474Y96299D01*
X318806Y98233D01*
X315233Y101806D01*
X313299Y106474D01*
X313299Y111526D01*
X315233Y116194D01*
X318806Y119767D01*
X323474Y121701D01*
X328526Y121701D01*
X333194Y119767D01*
X336767Y116194D01*
X338701Y111526D01*
X338701Y106474D01*
X336767Y101806D01*
X333194Y98233D01*
X328526Y96299D01*
X323474Y96299D01*
G37*
%LPD*%
%LPC*%
G36*
X253474Y96299D02*
X253474Y96299D01*
X248806Y98233D01*
X245233Y101806D01*
X243299Y106474D01*
X243299Y111526D01*
X245233Y116194D01*
X248806Y119767D01*
X253474Y121701D01*
X258526Y121701D01*
X263194Y119767D01*
X266767Y116194D01*
X268701Y111526D01*
X268701Y106474D01*
X266767Y101806D01*
X263194Y98233D01*
X258526Y96299D01*
X253474Y96299D01*
G37*
%LPD*%
G36*
X193118Y139746D02*
X193118Y139746D01*
X193237Y139753D01*
X193275Y139766D01*
X193316Y139771D01*
X193426Y139814D01*
X193539Y139851D01*
X193574Y139873D01*
X193611Y139888D01*
X193707Y139958D01*
X193808Y140021D01*
X193836Y140051D01*
X193869Y140074D01*
X193945Y140166D01*
X194026Y140253D01*
X194046Y140288D01*
X194071Y140319D01*
X194122Y140427D01*
X194180Y140531D01*
X194190Y140571D01*
X194207Y140607D01*
X194229Y140724D01*
X194259Y140839D01*
X194263Y140900D01*
X194267Y140920D01*
X194265Y140940D01*
X194269Y141000D01*
X194269Y162000D01*
X194254Y162118D01*
X194247Y162237D01*
X194234Y162275D01*
X194229Y162316D01*
X194186Y162426D01*
X194149Y162539D01*
X194127Y162574D01*
X194112Y162611D01*
X194043Y162707D01*
X193979Y162808D01*
X193949Y162836D01*
X193926Y162869D01*
X193834Y162945D01*
X193747Y163026D01*
X193712Y163046D01*
X193681Y163071D01*
X193573Y163122D01*
X193469Y163180D01*
X193429Y163190D01*
X193393Y163207D01*
X193276Y163229D01*
X193161Y163259D01*
X193101Y163263D01*
X193081Y163267D01*
X193060Y163265D01*
X193000Y163269D01*
X174000Y163269D01*
X173882Y163254D01*
X173763Y163247D01*
X173725Y163234D01*
X173684Y163229D01*
X173574Y163186D01*
X173461Y163149D01*
X173426Y163127D01*
X173389Y163112D01*
X173293Y163043D01*
X173192Y162979D01*
X173164Y162949D01*
X173131Y162926D01*
X173056Y162834D01*
X172974Y162747D01*
X172954Y162712D01*
X172929Y162681D01*
X172878Y162573D01*
X172820Y162469D01*
X172810Y162429D01*
X172793Y162393D01*
X172771Y162276D01*
X172741Y162161D01*
X172737Y162101D01*
X172733Y162081D01*
X172735Y162060D01*
X172731Y162000D01*
X172731Y141000D01*
X172746Y140882D01*
X172753Y140763D01*
X172766Y140725D01*
X172771Y140684D01*
X172814Y140574D01*
X172851Y140461D01*
X172873Y140426D01*
X172888Y140389D01*
X172958Y140293D01*
X173021Y140192D01*
X173051Y140164D01*
X173074Y140131D01*
X173166Y140056D01*
X173253Y139974D01*
X173288Y139954D01*
X173319Y139929D01*
X173427Y139878D01*
X173531Y139820D01*
X173571Y139810D01*
X173607Y139793D01*
X173724Y139771D01*
X173839Y139741D01*
X173900Y139737D01*
X173920Y139733D01*
X173940Y139735D01*
X174000Y139731D01*
X193000Y139731D01*
X193118Y139746D01*
G37*
%LPC*%
G36*
X97408Y805919D02*
X97408Y805919D01*
X95919Y807408D01*
X95919Y822592D01*
X97408Y824081D01*
X112592Y824081D01*
X114081Y822592D01*
X114081Y807408D01*
X112592Y805919D01*
X97408Y805919D01*
G37*
%LPD*%
%LPC*%
G36*
X36995Y40919D02*
X36995Y40919D01*
X33290Y42454D01*
X30454Y45290D01*
X28919Y48995D01*
X28919Y53005D01*
X30454Y56710D01*
X33290Y59546D01*
X34585Y60082D01*
X34585Y60083D01*
X36995Y61081D01*
X41005Y61081D01*
X44710Y59546D01*
X47546Y56710D01*
X49081Y53005D01*
X49081Y48995D01*
X47546Y45290D01*
X44710Y42454D01*
X41005Y40919D01*
X36995Y40919D01*
G37*
%LPD*%
%LPC*%
G36*
X80995Y40919D02*
X80995Y40919D01*
X77290Y42454D01*
X74454Y45290D01*
X72919Y48995D01*
X72919Y53005D01*
X74454Y56710D01*
X77290Y59546D01*
X78585Y60082D01*
X78585Y60083D01*
X80995Y61081D01*
X85005Y61081D01*
X88710Y59546D01*
X91546Y56710D01*
X93081Y53005D01*
X93081Y48995D01*
X91546Y45290D01*
X88710Y42454D01*
X85005Y40919D01*
X80995Y40919D01*
G37*
%LPD*%
%LPC*%
G36*
X153194Y805919D02*
X153194Y805919D01*
X149856Y807302D01*
X147302Y809856D01*
X145919Y813194D01*
X145919Y816806D01*
X147302Y820144D01*
X149856Y822698D01*
X153194Y824081D01*
X156806Y824081D01*
X160144Y822698D01*
X162698Y820144D01*
X164081Y816806D01*
X164081Y813194D01*
X162698Y809856D01*
X160144Y807302D01*
X156806Y805919D01*
X153194Y805919D01*
G37*
%LPD*%
%LPC*%
G36*
X340063Y917063D02*
X340063Y917063D01*
X340063Y929019D01*
X341323Y928681D01*
X343324Y927852D01*
X345200Y926769D01*
X346919Y925451D01*
X348451Y923919D01*
X349769Y922200D01*
X350852Y920324D01*
X351681Y918323D01*
X352019Y917063D01*
X340063Y917063D01*
G37*
%LPD*%
%LPC*%
G36*
X123063Y916063D02*
X123063Y916063D01*
X123063Y928019D01*
X124323Y927681D01*
X126324Y926852D01*
X128200Y925769D01*
X129919Y924451D01*
X131451Y922919D01*
X132769Y921200D01*
X133852Y919324D01*
X134681Y917323D01*
X135019Y916063D01*
X123063Y916063D01*
G37*
%LPD*%
%LPC*%
G36*
X123063Y907937D02*
X123063Y907937D01*
X135019Y907937D01*
X134681Y906677D01*
X133852Y904676D01*
X132769Y902800D01*
X131451Y901081D01*
X129919Y899549D01*
X128200Y898231D01*
X126324Y897148D01*
X125103Y896641D01*
X125102Y896641D01*
X124323Y896319D01*
X123063Y895981D01*
X123063Y907937D01*
G37*
%LPD*%
%LPC*%
G36*
X319981Y917063D02*
X319981Y917063D01*
X320319Y918323D01*
X321148Y920324D01*
X322231Y922200D01*
X323549Y923919D01*
X325081Y925451D01*
X326800Y926769D01*
X328676Y927852D01*
X330677Y928681D01*
X331937Y929019D01*
X331937Y917063D01*
X319981Y917063D01*
G37*
%LPD*%
%LPC*%
G36*
X340063Y908937D02*
X340063Y908937D01*
X352019Y908937D01*
X351681Y907677D01*
X350852Y905676D01*
X349769Y903800D01*
X348451Y902081D01*
X346919Y900549D01*
X345200Y899231D01*
X343324Y898148D01*
X341323Y897319D01*
X340063Y896981D01*
X340063Y908937D01*
G37*
%LPD*%
%LPC*%
G36*
X102981Y916063D02*
X102981Y916063D01*
X103319Y917323D01*
X104148Y919324D01*
X105231Y921200D01*
X106549Y922919D01*
X108081Y924451D01*
X109800Y925769D01*
X111676Y926852D01*
X113677Y927681D01*
X114937Y928019D01*
X114937Y916063D01*
X102981Y916063D01*
G37*
%LPD*%
%LPC*%
G36*
X113677Y896319D02*
X113677Y896319D01*
X111676Y897148D01*
X109800Y898231D01*
X108081Y899549D01*
X106549Y901081D01*
X105231Y902800D01*
X104148Y904676D01*
X103319Y906677D01*
X102981Y907937D01*
X114937Y907937D01*
X114937Y895981D01*
X113677Y896319D01*
G37*
%LPD*%
%LPC*%
G36*
X330677Y897319D02*
X330677Y897319D01*
X328676Y898148D01*
X326800Y899231D01*
X325081Y900549D01*
X323549Y902081D01*
X322231Y903800D01*
X321148Y905676D01*
X320319Y907677D01*
X319981Y908937D01*
X331937Y908937D01*
X331937Y896981D01*
X330677Y897319D01*
G37*
%LPD*%
%LPC*%
G36*
X424209Y951835D02*
X424209Y951835D01*
X424209Y969871D01*
X429545Y969871D01*
X429545Y953159D01*
X429441Y952771D01*
X429240Y952424D01*
X428956Y952140D01*
X428609Y951939D01*
X428221Y951835D01*
X424209Y951835D01*
G37*
%LPD*%
%LPC*%
G36*
X373409Y951835D02*
X373409Y951835D01*
X373409Y969871D01*
X378745Y969871D01*
X378745Y953159D01*
X378641Y952771D01*
X378440Y952424D01*
X378156Y952140D01*
X377809Y951939D01*
X377421Y951835D01*
X373409Y951835D01*
G37*
%LPD*%
%LPC*%
G36*
X361779Y951835D02*
X361779Y951835D01*
X361391Y951939D01*
X361044Y952140D01*
X360760Y952424D01*
X360559Y952771D01*
X360455Y953159D01*
X360455Y969871D01*
X365791Y969871D01*
X365791Y951835D01*
X361779Y951835D01*
G37*
%LPD*%
%LPC*%
G36*
X412579Y951835D02*
X412579Y951835D01*
X412191Y951939D01*
X411844Y952140D01*
X411560Y952424D01*
X411359Y952771D01*
X411255Y953159D01*
X411255Y969871D01*
X416591Y969871D01*
X416591Y951835D01*
X412579Y951835D01*
G37*
%LPD*%
%LPC*%
G36*
X408539Y369539D02*
X408539Y369539D01*
X408539Y376145D01*
X414340Y376145D01*
X415761Y375920D01*
X417130Y375475D01*
X418413Y374821D01*
X419577Y373975D01*
X420595Y372957D01*
X421441Y371793D01*
X422095Y370510D01*
X422410Y369539D01*
X408539Y369539D01*
G37*
%LPD*%
%LPC*%
G36*
X408539Y357855D02*
X408539Y357855D01*
X408539Y364461D01*
X422410Y364461D01*
X422095Y363490D01*
X421441Y362207D01*
X420595Y361043D01*
X419577Y360025D01*
X418413Y359179D01*
X417130Y358525D01*
X415761Y358080D01*
X414340Y357855D01*
X408539Y357855D01*
G37*
%LPD*%
%LPC*%
G36*
X152249Y109249D02*
X152249Y109249D01*
X152249Y117230D01*
X153486Y116829D01*
X155124Y115994D01*
X156612Y114913D01*
X157913Y113612D01*
X158994Y112124D01*
X159829Y110486D01*
X160230Y109249D01*
X152249Y109249D01*
G37*
%LPD*%
%LPC*%
G36*
X152249Y102751D02*
X152249Y102751D01*
X160230Y102751D01*
X159829Y101514D01*
X158994Y99876D01*
X157913Y98388D01*
X156612Y97087D01*
X155124Y96006D01*
X153486Y95171D01*
X152249Y94770D01*
X152249Y102751D01*
G37*
%LPD*%
%LPC*%
G36*
X137770Y109249D02*
X137770Y109249D01*
X138171Y110486D01*
X139006Y112124D01*
X140087Y113612D01*
X141388Y114913D01*
X142876Y115994D01*
X144514Y116829D01*
X145751Y117230D01*
X145751Y109249D01*
X137770Y109249D01*
G37*
%LPD*%
%LPC*%
G36*
X144514Y95171D02*
X144514Y95171D01*
X142876Y96006D01*
X141388Y97087D01*
X140087Y98388D01*
X139006Y99876D01*
X138171Y101514D01*
X137770Y102751D01*
X145751Y102751D01*
X145751Y94770D01*
X144514Y95171D01*
G37*
%LPD*%
%LPC*%
G36*
X42299Y68575D02*
X42299Y68575D01*
X41911Y68679D01*
X41564Y68880D01*
X41280Y69164D01*
X41079Y69511D01*
X40975Y69899D01*
X40975Y79609D01*
X42969Y79609D01*
X42969Y68575D01*
X42299Y68575D01*
G37*
%LPD*%
%LPC*%
G36*
X73499Y351999D02*
X73499Y351999D01*
X73499Y356025D01*
X76701Y356025D01*
X77089Y355921D01*
X77436Y355720D01*
X77720Y355436D01*
X77921Y355089D01*
X78025Y354701D01*
X78025Y351999D01*
X73499Y351999D01*
G37*
%LPD*%
%LPC*%
G36*
X52031Y147531D02*
X52031Y147531D01*
X52031Y150175D01*
X54351Y150175D01*
X54739Y150071D01*
X55086Y149870D01*
X55370Y149586D01*
X55571Y149239D01*
X55675Y148851D01*
X55675Y147531D01*
X52031Y147531D01*
G37*
%LPD*%
%LPC*%
G36*
X52031Y143469D02*
X52031Y143469D01*
X55675Y143469D01*
X55675Y142149D01*
X55571Y141761D01*
X55370Y141414D01*
X55086Y141130D01*
X54739Y140929D01*
X54351Y140825D01*
X52031Y140825D01*
X52031Y143469D01*
G37*
%LPD*%
%LPC*%
G36*
X44325Y147531D02*
X44325Y147531D01*
X44325Y148851D01*
X44429Y149239D01*
X44630Y149586D01*
X44914Y149870D01*
X45261Y150071D01*
X45649Y150175D01*
X47969Y150175D01*
X47969Y147531D01*
X44325Y147531D01*
G37*
%LPD*%
%LPC*%
G36*
X45649Y140825D02*
X45649Y140825D01*
X45261Y140929D01*
X44914Y141130D01*
X44630Y141414D01*
X44429Y141761D01*
X44325Y142149D01*
X44325Y143469D01*
X47969Y143469D01*
X47969Y140825D01*
X45649Y140825D01*
G37*
%LPD*%
%LPC*%
G36*
X118999Y911999D02*
X118999Y911999D01*
X118999Y912001D01*
X119001Y912001D01*
X119001Y911999D01*
X118999Y911999D01*
G37*
%LPD*%
%LPC*%
G36*
X335999Y912999D02*
X335999Y912999D01*
X335999Y913001D01*
X336001Y913001D01*
X336001Y912999D01*
X335999Y912999D01*
G37*
%LPD*%
D10*
X105000Y76000D03*
D11*
X77000Y81640D03*
X69000Y81640D03*
X61000Y81640D03*
X53000Y81640D03*
X45000Y81640D03*
D10*
X105000Y21000D03*
X17000Y76000D03*
X17000Y21000D03*
D12*
X50000Y122500D03*
X50000Y145500D03*
X14000Y122500D03*
X14000Y145500D03*
D13*
X420400Y973680D03*
X369600Y973680D03*
D14*
X336000Y199000D03*
X336000Y913000D03*
X119000Y198000D03*
X119000Y912000D03*
D15*
X71000Y332500D03*
X71000Y349500D03*
D16*
X199000Y106000D03*
D17*
X149000Y106000D03*
D16*
X431000Y109000D03*
D17*
X396000Y109000D03*
X361000Y109000D03*
X326000Y109000D03*
X291000Y109000D03*
X256000Y109000D03*
D18*
X398380Y367000D02*
X413620Y367000D01*
X416160Y392400D02*
X400920Y392400D01*
X398380Y417800D02*
X413620Y417800D01*
X416160Y443200D02*
X400920Y443200D01*
D19*
X28000Y657000D03*
X28000Y682400D03*
X28000Y707800D03*
X28000Y733200D03*
X28000Y758600D03*
X28000Y784000D03*
D20*
X263500Y913300D03*
X238100Y913300D03*
X212700Y913300D03*
X187300Y913300D03*
D21*
X155000Y815000D03*
D22*
X105000Y815000D03*
D23*
X114000Y47000D03*
X127000Y47000D03*
X18000Y103000D03*
X18000Y49000D03*
X61000Y21000D03*
X14000Y203000D03*
X14000Y161000D03*
X14000Y190000D03*
X164000Y140000D03*
X110000Y268000D03*
X96000Y268000D03*
X82000Y268000D03*
X14000Y299000D03*
X14000Y318000D03*
X14000Y335000D03*
X85000Y350000D03*
X71000Y360000D03*
X17000Y394000D03*
X17000Y411000D03*
X17000Y427000D03*
X112000Y443000D03*
X112000Y459000D03*
X127000Y476000D03*
X112000Y476000D03*
X127000Y492000D03*
X112000Y492000D03*
X83000Y525000D03*
X72000Y495000D03*
X80000Y508000D03*
X49000Y641000D03*
X42000Y671000D03*
X81000Y627000D03*
X124000Y597000D03*
X109000Y597000D03*
X81000Y611000D03*
X95000Y611000D03*
X109000Y611000D03*
X124000Y611000D03*
X124000Y626000D03*
X176000Y612000D03*
X156000Y655000D03*
X173000Y655000D03*
X213000Y664000D03*
X207000Y549000D03*
X221000Y549000D03*
X235000Y549000D03*
X338000Y563000D03*
X326000Y563000D03*
X313000Y563000D03*
X404000Y570000D03*
X391000Y570000D03*
X404000Y704000D03*
X371000Y703000D03*
X340000Y704000D03*
X390000Y886000D03*
X390000Y837000D03*
X431000Y837000D03*
X430000Y888000D03*
X430000Y902000D03*
X430000Y916000D03*
X430000Y930000D03*
X12000Y827000D03*
X95000Y627000D03*
X16000Y892000D03*
X70000Y892000D03*
X197000Y527000D03*
X215000Y527000D03*
X233000Y527000D03*
X249000Y527000D03*
X267000Y56000D03*
X310000Y56000D03*
X345000Y56000D03*
X380000Y56000D03*
D24*
X432000Y29000D03*
X38000Y966000D03*
D23*
X364000Y281000D03*
X350000Y281000D03*
X444000Y279000D03*
X443000Y265000D03*
X443000Y249000D03*
X352000Y372000D03*
X365000Y371000D03*
X415000Y488000D03*
X415000Y478000D03*
X361000Y535000D03*
X361000Y523000D03*
X242000Y399000D03*
X242000Y387000D03*
X242000Y203000D03*
X299000Y204000D03*
X299000Y219000D03*
X299000Y234000D03*
X299000Y249000D03*
X104000Y411000D03*
X91000Y411000D03*
X77000Y411000D03*
X111000Y369000D03*
X305000Y173000D03*
X289000Y173000D03*
X272000Y173000D03*
X429000Y173000D03*
X429000Y187000D03*
X40000Y21000D03*
X82000Y21000D03*
X61000Y38000D03*
X395000Y306000D03*
X411000Y306000D03*
X253000Y173000D03*
X390000Y898000D03*
X438000Y974000D03*
X130000Y815000D03*
X130000Y849000D03*
X390000Y782000D03*
X315000Y818000D03*
X316000Y752000D03*
X449000Y679000D03*
X10000Y587000D03*
X130000Y832000D03*
X130000Y798000D03*
X130000Y782000D03*
D25*
X74000Y381000D02*
X125000Y330000D01*
X62000Y381000D02*
X56000Y387000D01*
X56000Y538000D01*
D26*
X56000Y538000D03*
D25*
X62000Y381000D02*
X74000Y381000D01*
D23*
X132000Y340000D03*
X132000Y331000D03*
X123000Y340000D03*
X114000Y340000D03*
X105000Y340000D03*
X123000Y331000D03*
X123000Y322000D03*
X132000Y322000D03*
X179000Y149000D03*
X179000Y159000D03*
X179000Y138000D03*
D25*
X152000Y186000D02*
X152000Y221000D01*
X152000Y186000D02*
X179000Y159000D01*
X152000Y221000D02*
X125000Y248000D01*
X125000Y330000D01*
D27*
X332000Y717000D03*
D28*
X303000Y717000D01*
X282000Y893000D02*
X289000Y900000D01*
X289000Y928000D01*
X278000Y939000D01*
X213000Y939000D01*
X187300Y913300D01*
X282000Y738000D02*
X303000Y717000D01*
X282000Y738000D02*
X282000Y893000D01*
D27*
X179000Y356000D03*
D28*
X179000Y406000D02*
X194000Y421000D01*
X194000Y434000D01*
X186000Y442000D01*
X186000Y546000D02*
X192000Y552000D01*
X186000Y546000D02*
X186000Y442000D01*
D27*
X192000Y552000D03*
D28*
X179000Y406000D02*
X179000Y356000D01*
D23*
X70000Y531000D03*
D29*
X74000Y531000D01*
X85000Y542000D01*
D23*
X111000Y542000D03*
D29*
X85000Y542000D01*
D23*
X20000Y488000D03*
D29*
X20000Y622000D01*
X9000Y633000D02*
X9000Y700000D01*
X16800Y707800D01*
X28000Y707800D01*
X9000Y633000D02*
X20000Y622000D01*
D23*
X394000Y275000D03*
D30*
X385000Y284000D01*
D29*
X382000Y505000D02*
X382000Y506000D01*
D30*
X385000Y502000D02*
X385000Y443000D01*
X385000Y284000D01*
X376786Y510214D02*
X318786Y510214D01*
X313500Y515500D01*
D29*
X312500Y515500D01*
D23*
X312500Y515500D03*
D30*
X382000Y505000D02*
X385000Y502000D01*
X382000Y505000D02*
X376786Y510214D01*
D23*
X390000Y520000D03*
D30*
X390000Y514000D01*
X382000Y506000D01*
X385200Y443200D02*
X408540Y443200D01*
D29*
X385200Y443200D02*
X385000Y443000D01*
D23*
X358000Y409000D03*
D29*
X358000Y438000D01*
X363000Y443000D01*
D23*
X363000Y443000D03*
D29*
X299500Y535500D02*
X299500Y704500D01*
X312500Y522500D02*
X312500Y515500D01*
X312500Y522500D02*
X299500Y535500D01*
X299500Y704500D02*
X273000Y731000D01*
X273000Y899000D01*
X279000Y905000D01*
X279000Y922000D01*
X271800Y929200D01*
X250000Y929200D01*
X238100Y917300D01*
X238100Y913300D01*
D23*
X301000Y503000D03*
D29*
X295000Y509000D01*
X295000Y520000D02*
X291000Y524000D01*
X295000Y520000D02*
X295000Y509000D01*
D23*
X291000Y524000D03*
D30*
X301000Y503000D02*
X302000Y502000D01*
X370000Y502000D01*
D29*
X373000Y499000D02*
X376000Y496000D01*
D30*
X376000Y418000D01*
X376000Y273000D01*
X386000Y263000D01*
D23*
X386000Y263000D03*
X373000Y499000D03*
D30*
X370000Y502000D01*
D23*
X370000Y418000D03*
D30*
X376000Y418000D01*
D29*
X264000Y912800D02*
X263500Y913300D01*
X291000Y702000D02*
X291000Y524000D01*
X291000Y702000D02*
X264000Y729000D01*
X264000Y912800D01*
D23*
X128000Y525000D03*
D29*
X123000Y525000D01*
X100000Y502000D01*
X100000Y464000D01*
D23*
X100000Y464000D03*
X74000Y463000D03*
D29*
X123000Y537000D02*
X131000Y537000D01*
D23*
X131000Y537000D03*
D29*
X123000Y537000D02*
X92000Y506000D01*
X92000Y481000D01*
X74000Y463000D01*
X28000Y733200D02*
X201200Y733200D01*
X209000Y741000D01*
D23*
X209000Y741000D03*
D29*
X42400Y758600D02*
X28000Y758600D01*
X42400Y758600D02*
X59000Y742000D01*
X188000Y742000D01*
X210000Y764000D01*
D23*
X210000Y764000D03*
D29*
X33000Y784000D02*
X28000Y784000D01*
X33000Y784000D02*
X66000Y751000D01*
X174000Y751000D01*
X210000Y787000D01*
D23*
X210000Y787000D03*
X93000Y121000D03*
X103000Y121000D03*
X103000Y111000D03*
X103000Y101000D03*
X93000Y111000D03*
X93000Y101000D03*
X83000Y101000D03*
D29*
X61000Y96000D02*
X61000Y81640D01*
X40000Y101000D02*
X27000Y114000D01*
X27000Y337000D02*
X17000Y347000D01*
D23*
X17000Y347000D03*
D29*
X56000Y101000D02*
X61000Y96000D01*
X56000Y101000D02*
X40000Y101000D01*
X27000Y114000D02*
X27000Y123000D01*
X27000Y337000D01*
X26500Y122500D02*
X14000Y122500D01*
X26500Y122500D02*
X27000Y123000D01*
X69000Y100000D02*
X69000Y81640D01*
X69000Y100000D02*
X60000Y109000D01*
X34000Y345000D02*
X30000Y349000D01*
D23*
X30000Y349000D03*
D29*
X44000Y109000D02*
X60000Y109000D01*
X44000Y109000D02*
X34000Y119000D01*
X34000Y125000D01*
X34000Y345000D01*
X36500Y122500D02*
X50000Y122500D01*
X36500Y122500D02*
X34000Y125000D01*
D23*
X297000Y738000D03*
D30*
X297000Y825000D01*
X310000Y838000D01*
D23*
X310000Y838000D03*
X41000Y519000D03*
D29*
X57000Y362000D02*
X57000Y353000D01*
X55000Y351000D01*
X55000Y228000D01*
X71000Y212000D02*
X85000Y212000D01*
D23*
X85000Y212000D03*
D29*
X39000Y517000D02*
X41000Y519000D01*
X39000Y517000D02*
X39000Y380000D01*
X57000Y362000D01*
X55000Y228000D02*
X71000Y212000D01*
D23*
X93000Y152000D03*
D29*
X86000Y159000D01*
X51000Y159000D01*
X41000Y169000D01*
D23*
X69000Y560000D03*
D29*
X45000Y560000D01*
X29000Y508000D02*
X30000Y507000D01*
X29000Y508000D02*
X29000Y544000D01*
X41000Y352000D02*
X41000Y169000D01*
X41000Y352000D02*
X30000Y363000D01*
X30000Y507000D01*
X29000Y544000D02*
X45000Y560000D01*
D23*
X47000Y358000D03*
D30*
X48000Y357000D01*
X48000Y174000D01*
X53000Y169000D01*
X75000Y169000D01*
D23*
X75000Y169000D03*
X129000Y168000D03*
D29*
X110000Y168000D01*
X96000Y182000D01*
X96000Y218000D02*
X90000Y224000D01*
X70000Y224000D02*
X63000Y231000D01*
X63000Y324500D02*
X71000Y332500D01*
X96000Y218000D02*
X96000Y182000D01*
X90000Y224000D02*
X70000Y224000D01*
X63000Y231000D02*
X63000Y324500D01*
D23*
X347000Y263000D03*
D29*
X214000Y263000D01*
X169000Y308000D01*
X145000Y579000D02*
X145000Y646000D01*
D23*
X145000Y646000D03*
D29*
X169000Y555000D02*
X169000Y308000D01*
X169000Y555000D02*
X145000Y579000D01*
D23*
X83000Y576000D03*
D29*
X107000Y576000D01*
D23*
X215000Y135000D03*
D29*
X204936Y145064D02*
X204936Y165064D01*
X204936Y145064D02*
X215000Y135000D01*
X145000Y538000D02*
X107000Y576000D01*
X145000Y538000D02*
X145000Y274000D01*
X174000Y245000D01*
X174000Y196000D01*
X204936Y165064D01*
D23*
X42000Y539000D03*
D29*
X42000Y541000D02*
X51000Y550000D01*
X42000Y541000D02*
X42000Y539000D01*
X70000Y546000D02*
X72000Y546000D01*
X70000Y546000D02*
X66000Y550000D01*
X51000Y550000D01*
D23*
X72000Y546000D03*
D26*
X174000Y274000D03*
D25*
X195000Y253000D01*
X195000Y207000D01*
D26*
X229000Y159000D03*
D25*
X229000Y173000D01*
X195000Y207000D01*
D23*
X221000Y250000D03*
D29*
X216000Y250000D01*
X129000Y583000D02*
X93000Y583000D01*
X89000Y587000D01*
X87000Y587000D01*
D23*
X87000Y587000D03*
D29*
X161000Y305000D02*
X216000Y250000D01*
X161000Y305000D02*
X161000Y551000D01*
X129000Y583000D01*
D23*
X182000Y428000D03*
D29*
X177000Y433000D01*
X177000Y565000D02*
X167000Y575000D01*
D23*
X167000Y575000D03*
D29*
X177000Y565000D02*
X177000Y433000D01*
X153000Y545000D02*
X144000Y554000D01*
D23*
X144000Y554000D03*
D29*
X260000Y140000D02*
X291000Y109000D01*
X230000Y140000D02*
X217000Y153000D01*
X230000Y140000D02*
X260000Y140000D01*
X217000Y153000D02*
X217000Y168000D01*
X183000Y202000D01*
X183000Y247000D01*
X153000Y277000D01*
X153000Y545000D01*
M02*
