G04 EAGLE Gerber RS-274X export*
G75*
%MOMM*%
%FSLAX34Y34*%
%LPD*%
%INSolder stop mask SOL*%
%IPPOS*%
%AMOC8*
5,1,8,0,0,1.08239X$1,22.5*%
G01*
%ADD10R,2.203200X2.603200*%
%ADD11R,0.703200X2.511200*%
%ADD12C,1.203200*%
%ADD13R,1.033200X0.833200*%
%ADD14R,1.727200X4.267200*%
%ADD15C,3.203200*%
%ADD16C,1.803200*%
%ADD17R,1.303200X1.203200*%
%ADD18R,2.235200X2.235200*%
%ADD19C,2.235200*%
%ADD20C,1.727200*%
%ADD21C,2.082800*%
%ADD22C,1.981200*%
%ADD23C,1.511200*%
%ADD24R,1.511200X1.511200*%
%ADD25C,4.219200*%


D10*
X105000Y76000D03*
D11*
X77000Y81640D03*
X69000Y81640D03*
X61000Y81640D03*
X53000Y81640D03*
X45000Y81640D03*
D10*
X105000Y21000D03*
X17000Y76000D03*
X17000Y21000D03*
D12*
X83000Y51000D03*
X39000Y51000D03*
D13*
X50000Y122500D03*
X50000Y145500D03*
X14000Y122500D03*
X14000Y145500D03*
D14*
X420400Y973680D03*
X369600Y973680D03*
D15*
X336000Y199000D03*
X336000Y913000D03*
D16*
X433000Y213500D03*
D15*
X119000Y198000D03*
X119000Y912000D03*
D16*
X216000Y212500D03*
D17*
X71000Y332500D03*
X71000Y349500D03*
D18*
X199000Y106000D03*
D19*
X149000Y106000D03*
D18*
X431000Y109000D03*
D19*
X396000Y109000D03*
X361000Y109000D03*
X326000Y109000D03*
X291000Y109000D03*
X256000Y109000D03*
D20*
X398380Y367000D02*
X413620Y367000D01*
X416160Y392400D02*
X400920Y392400D01*
X398380Y417800D02*
X413620Y417800D01*
X416160Y443200D02*
X400920Y443200D01*
D21*
X28000Y657000D03*
X28000Y682400D03*
X28000Y707800D03*
X28000Y733200D03*
X28000Y758600D03*
X28000Y784000D03*
D22*
X263500Y913300D03*
X238100Y913300D03*
X212700Y913300D03*
X187300Y913300D03*
D23*
X155000Y815000D03*
D24*
X105000Y815000D03*
D25*
X432000Y29000D03*
X38000Y966000D03*
M02*
